<svg width="143" height="50" viewBox="0 0 143 50" fill="none" xmlns="http://www.w3.org/2000/svg">
<path fill-rule="evenodd" clip-rule="evenodd" d="M0 2.45143C0 1.09754 1.09754 0 2.45143 0L46.461 0C47.1111 0 47.7346 0.258275 48.1944 0.718007L50.803 3.32665C52.0795 4.6031 54.149 4.6031 55.4255 3.32665L58.0341 0.718007C58.4938 0.258275 59.1174 0 59.7675 0L140.549 0C141.902 0 143 1.09754 143 2.45143V46.5771C143 47.931 141.902 49.0286 140.549 49.0286L59.8496 49.0286C59.1995 49.0286 58.5759 48.7703 58.1162 48.3106L55.4255 45.6198C54.149 44.3434 52.0795 44.3434 50.803 45.6198L48.1123 48.3106C47.6526 48.7703 47.029 49.0286 46.3789 49.0286H2.45143C1.09754 49.0286 0 47.931 0 46.5771L0 2.45143Z" fill="url(#paint0_linear_57_43)"/>
<path fill-rule="evenodd" clip-rule="evenodd" d="M53.1144 5.62515C53.7913 5.62515 54.3401 6.17392 54.3401 6.85087L54.3401 9.25852C54.3401 9.93546 53.7913 10.4842 53.1144 10.4842C52.4374 10.4842 51.8887 9.93546 51.8887 9.25852L51.8887 6.85087C51.8887 6.17392 52.4374 5.62515 53.1144 5.62515ZM53.1144 12.0456C53.7913 12.0456 54.3401 12.5943 54.3401 13.2713L54.3401 15.6789C54.3401 16.3559 53.7913 16.9046 53.1144 16.9046C52.4374 16.9046 51.8887 16.3559 51.8887 15.6789L51.8887 13.2713C51.8887 12.5943 52.4374 12.0456 53.1144 12.0456ZM53.1144 18.466C53.7913 18.466 54.3401 19.0147 54.3401 19.6917L54.3401 22.0993C54.3401 22.7763 53.7913 23.325 53.1144 23.325C52.4374 23.325 51.8887 22.7763 51.8887 22.0993L51.8887 19.6917C51.8887 19.0147 52.4374 18.466 53.1144 18.466ZM53.1144 24.8864C53.7913 24.8864 54.3401 25.4351 54.3401 26.1121L54.3401 28.5197C54.3401 29.1967 53.7913 29.7455 53.1144 29.7455C52.4374 29.7455 51.8887 29.1967 51.8887 28.5197L51.8887 26.1121C51.8887 25.4351 52.4374 24.8864 53.1144 24.8864ZM53.1144 31.3068C53.7913 31.3068 54.3401 31.8556 54.3401 32.5325L54.3401 34.9402C54.3401 35.6171 53.7913 36.1659 53.1144 36.1659C52.4374 36.1659 51.8887 35.6171 51.8887 34.9402L51.8887 32.5325C51.8887 31.8556 52.4374 31.3068 53.1144 31.3068ZM53.1144 37.7272C53.7913 37.7272 54.3401 38.276 54.3401 38.9529L54.3401 41.3606C54.3401 42.0375 53.7913 42.5863 53.1144 42.5863C52.4374 42.5863 51.8887 42.0375 51.8887 41.3606L51.8887 38.9529C51.8887 38.276 52.4374 37.7272 53.1144 37.7272Z" fill="white"/>
<path d="M71.4913 29.6728C70.0891 29.6728 68.9908 29.3345 68.1966 28.658C67.4121 27.9716 66.9954 26.9812 66.9464 25.6868C66.9366 25.4221 66.9316 24.9906 66.9316 24.3925C66.9316 23.7845 66.9366 23.3433 66.9464 23.0687C66.9954 21.794 67.4219 20.8134 68.226 20.127C69.0301 19.4308 70.1185 19.0827 71.4913 19.0827C72.3542 19.0827 73.1289 19.2298 73.8153 19.5239C74.5017 19.8083 75.041 20.2201 75.4332 20.7594C75.8352 21.289 76.0412 21.9116 76.051 22.6274V22.6569C76.051 22.7353 76.0166 22.8039 75.948 22.8628C75.8892 22.9118 75.8205 22.9363 75.7421 22.9363H73.7564C73.629 22.9363 73.5309 22.9118 73.4623 22.8628C73.3936 22.8039 73.3348 22.701 73.2858 22.5539C73.1485 22.0538 72.9327 21.7057 72.6386 21.5096C72.3444 21.3037 71.9571 21.2007 71.4766 21.2007C70.3195 21.2007 69.7214 21.8479 69.6822 23.1422C69.6723 23.407 69.6674 23.8139 69.6674 24.363C69.6674 24.9122 69.6723 25.3289 69.6822 25.6133C69.7214 26.9076 70.3195 27.5548 71.4766 27.5548C71.9571 27.5548 72.3493 27.4518 72.6533 27.2459C72.9573 27.0302 73.1681 26.6821 73.2858 26.2016C73.325 26.0545 73.3789 25.9565 73.4475 25.9074C73.5162 25.8486 73.6191 25.8192 73.7564 25.8192H75.7421C75.8303 25.8192 75.9039 25.8486 75.9627 25.9074C76.0314 25.9663 76.0608 26.0398 76.051 26.1281C76.0412 26.8439 75.8352 27.4715 75.4332 28.0108C75.041 28.5403 74.5017 28.9521 73.8153 29.2463C73.1289 29.5307 72.3542 29.6728 71.4913 29.6728ZM86.4962 29.0257C86.5256 29.0649 86.5404 29.1188 86.5404 29.1875C86.5404 29.2855 86.506 29.3689 86.4374 29.4375C86.3786 29.4963 86.3001 29.5258 86.2021 29.5258H84.0252C83.8879 29.5258 83.785 29.5012 83.7163 29.4522C83.6575 29.4032 83.5888 29.3345 83.5104 29.2463L81.26 25.4956H80.2451V29.158C80.2451 29.2659 80.2059 29.3542 80.1274 29.4228C80.0588 29.4914 79.9705 29.5258 79.8627 29.5258H77.9653C77.8574 29.5258 77.7691 29.4914 77.7005 29.4228C77.6319 29.3542 77.5975 29.2659 77.5975 29.158V19.5975C77.5975 19.4896 77.6319 19.4014 77.7005 19.3327C77.779 19.2641 77.8672 19.2298 77.9653 19.2298H79.8627C79.9705 19.2298 80.0588 19.2641 80.1274 19.3327C80.2059 19.4014 80.2451 19.4896 80.2451 19.5975V23.1422L81.1423 23.1569L83.3045 19.5092C83.4123 19.3229 83.5937 19.2298 83.8487 19.2298H85.9814C86.0697 19.2298 86.1432 19.2592 86.2021 19.318C86.2609 19.3768 86.2903 19.4504 86.2903 19.5386C86.2903 19.5779 86.2707 19.6367 86.2315 19.7151L83.4957 24.1865L86.4962 29.0257ZM88.2785 29.5258C88.1706 29.5258 88.0824 29.4914 88.0137 29.4228C87.9451 29.3444 87.9108 29.2512 87.9108 29.1433V19.5975C87.9108 19.4896 87.9451 19.4014 88.0137 19.3327C88.0922 19.2641 88.1804 19.2298 88.2785 19.2298H90.1759C90.2838 19.2298 90.372 19.2641 90.4407 19.3327C90.5191 19.4014 90.5583 19.4896 90.5583 19.5975V25.5103L94.7356 19.5092C94.8532 19.3229 95.0199 19.2298 95.2356 19.2298H96.9418C97.0497 19.2298 97.138 19.2641 97.2066 19.3327C97.2752 19.4014 97.3096 19.4896 97.3096 19.5975V29.158C97.3096 29.2561 97.2752 29.3444 97.2066 29.4228C97.138 29.4914 97.0497 29.5258 96.9418 29.5258H95.0444C94.9366 29.5258 94.8434 29.4914 94.765 29.4228C94.6963 29.3542 94.662 29.2659 94.662 29.158V23.4511L90.4848 29.2463C90.3573 29.4326 90.1906 29.5258 89.9847 29.5258H88.2785ZM99.1525 31.585C99.0446 31.585 98.9515 31.5506 98.873 31.482C98.8044 31.4134 98.7701 31.3251 98.7701 31.2172V27.5401C98.7701 27.4322 98.8044 27.344 98.873 27.2753C98.9515 27.2067 99.0446 27.1724 99.1525 27.1724H99.4173C99.8585 27.1724 100.172 26.7704 100.359 25.9663C100.555 25.1622 100.653 24.0346 100.653 22.5833V19.5975C100.653 19.4896 100.687 19.4014 100.756 19.3327C100.834 19.2641 100.922 19.2298 101.02 19.2298L107.934 19.2298C108.041 19.2298 108.13 19.2641 108.198 19.3327C108.267 19.4014 108.301 19.4896 108.301 19.5975V27.1724H108.993C109.1 27.1724 109.189 27.2067 109.257 27.2753C109.336 27.344 109.375 27.4322 109.375 27.5401V31.2172C109.375 31.3251 109.336 31.4134 109.257 31.482C109.189 31.5506 109.1 31.585 108.993 31.585H107.095C106.997 31.585 106.909 31.5506 106.83 31.482C106.762 31.4134 106.727 31.3251 106.727 31.2172V29.5258L101.418 29.5258V31.2172C101.418 31.3251 101.383 31.4134 101.315 31.482C101.246 31.5506 101.158 31.585 101.05 31.585H99.1525ZM105.668 27.1724V21.5831H103.212V22.9216C103.212 24.9122 102.987 26.3291 102.535 27.1724H105.668ZM119.777 29.0257C119.807 29.0649 119.821 29.1188 119.821 29.1875C119.821 29.2855 119.787 29.3689 119.718 29.4375C119.66 29.4963 119.581 29.5258 119.483 29.5258H117.306C117.169 29.5258 117.066 29.5012 116.997 29.4522C116.938 29.4032 116.87 29.3345 116.791 29.2463L114.541 25.4956H113.526V29.158C113.526 29.2659 113.487 29.3542 113.408 29.4228C113.34 29.4914 113.252 29.5258 113.144 29.5258H111.246C111.138 29.5258 111.05 29.4914 110.982 29.4228C110.913 29.3542 110.879 29.2659 110.879 29.158V19.5975C110.879 19.4896 110.913 19.4014 110.982 19.3327C111.06 19.2641 111.148 19.2298 111.246 19.2298H113.144C113.252 19.2298 113.34 19.2641 113.408 19.3327C113.487 19.4014 113.526 19.4896 113.526 19.5975V23.1422L114.423 23.1569L116.585 19.5092C116.693 19.3229 116.875 19.2298 117.13 19.2298H119.262C119.351 19.2298 119.424 19.2592 119.483 19.318C119.542 19.3768 119.571 19.4504 119.571 19.5386C119.571 19.5779 119.552 19.6367 119.512 19.7151L116.777 24.1865L119.777 29.0257ZM120.603 29.5258C120.525 29.5258 120.451 29.4963 120.383 29.4375C120.324 29.3689 120.295 29.2953 120.295 29.2169C120.295 29.158 120.299 29.1139 120.309 29.0845L123.766 19.6416C123.795 19.5239 123.859 19.4259 123.957 19.3474C124.055 19.269 124.183 19.2298 124.339 19.2298H126.516C126.673 19.2298 126.801 19.269 126.899 19.3474C126.997 19.4259 127.061 19.5239 127.09 19.6416L130.532 29.0845L130.561 29.2169C130.561 29.2953 130.527 29.3689 130.458 29.4375C130.399 29.4963 130.326 29.5258 130.238 29.5258H128.428C128.193 29.5258 128.036 29.4228 127.958 29.2169L127.384 27.7166H123.457L122.898 29.2169C122.82 29.4228 122.658 29.5258 122.413 29.5258H120.603ZM126.796 25.5986L125.428 21.7155L124.06 25.5986H126.796Z" fill="white"/>
<path d="M16.2675 31.8746C15.0015 31.8746 13.9109 31.661 12.9957 31.2339C12.0957 30.8068 11.4017 30.2425 10.9136 29.5408C10.4407 28.8392 10.1891 28.0841 10.1585 27.2757V27.2299C10.1585 27.1079 10.2043 27.0088 10.2958 26.9325C10.3873 26.8562 10.5017 26.8181 10.639 26.8181H12.7669C13.1177 26.8181 13.3465 26.9706 13.4533 27.2757C13.6668 27.9468 14.0176 28.4426 14.5057 28.7629C15.0091 29.0832 15.5964 29.2434 16.2675 29.2434C17.1217 29.2434 17.831 28.9841 18.3953 28.4655C18.975 27.9468 19.2648 27.2223 19.2648 26.2919C19.2648 25.4682 18.975 24.797 18.3953 24.2784C17.831 23.7598 17.1217 23.5005 16.2675 23.5005C15.8099 23.5005 15.4362 23.5615 15.1464 23.6835C14.8566 23.8056 14.5744 23.9733 14.2998 24.1869C14.1168 24.3242 13.9719 24.4233 13.8651 24.4843C13.7736 24.5301 13.6592 24.553 13.5219 24.553H11.4169C11.2797 24.553 11.1576 24.5072 11.0509 24.4157C10.9593 24.3089 10.9136 24.1869 10.9136 24.0496L11.7144 16.2247C11.7296 16.0416 11.7907 15.8967 11.8974 15.7899C12.0195 15.6679 12.172 15.6069 12.355 15.6069L20.9579 15.6069C21.1104 15.6069 21.2401 15.6603 21.3469 15.7671C21.4536 15.8738 21.507 16.0035 21.507 16.156V17.689C21.507 17.8415 21.4536 17.9712 21.3469 18.0779C21.2401 18.1847 21.1104 18.2381 20.9579 18.2381H14.3456L13.9795 21.9675C14.7269 21.4489 15.726 21.1896 16.9768 21.1896C17.9683 21.1896 18.8835 21.4032 19.7224 21.8303C20.5766 22.2421 21.2553 22.8446 21.7587 23.6378C22.2621 24.4157 22.5137 25.3233 22.5137 26.3605C22.5137 27.474 22.2544 28.4502 21.7358 29.2891C21.2172 30.1128 20.4851 30.7535 19.5393 31.2111C18.6089 31.6534 17.5183 31.8746 16.2675 31.8746ZM27.8475 23.6607C26.8407 23.6607 26.0323 23.3937 25.4222 22.8599C24.8273 22.326 24.4994 21.6015 24.4383 20.6863C24.4231 20.4269 24.4155 20.0837 24.4155 19.6567C24.4155 19.1991 24.4231 18.833 24.4383 18.5584C24.4994 17.6127 24.8197 16.8653 25.3993 16.3162C25.9789 15.7671 26.795 15.4925 27.8475 15.4925C28.8999 15.4925 29.716 15.7671 30.2956 16.3162C30.8905 16.8653 31.2108 17.6127 31.2566 18.5584C31.2871 19.1685 31.3023 19.5651 31.3023 19.7482C31.3023 19.916 31.2871 20.2287 31.2566 20.6863C31.2108 21.6015 30.8829 22.326 30.2727 22.8599C29.6779 23.3937 28.8694 23.6607 27.8475 23.6607ZM25.9713 31.6229C25.834 31.6229 25.7196 31.5848 25.6281 31.5085C25.5366 31.417 25.4908 31.3026 25.4908 31.1653C25.4908 31.0738 25.5213 30.9899 25.5823 30.9136L36.8622 16.0416C36.9842 15.8891 37.0986 15.7823 37.2054 15.7213C37.3122 15.645 37.4571 15.6069 37.6401 15.6069H38.8527C39.0053 15.6069 39.1197 15.6527 39.1959 15.7442C39.2875 15.8204 39.3332 15.9272 39.3332 16.0645C39.3332 16.156 39.3027 16.2399 39.2417 16.3162L27.9619 31.1882C27.8398 31.3407 27.7254 31.4551 27.6187 31.5314C27.5119 31.5924 27.367 31.6229 27.1839 31.6229H25.9713ZM27.8475 21.9675C28.2898 21.9675 28.6178 21.8379 28.8313 21.5786C29.0449 21.304 29.1669 20.9684 29.1974 20.5719C29.2279 20.0532 29.2431 19.7329 29.2431 19.6109C29.2431 19.4431 29.2279 19.1304 29.1974 18.6728C29.1821 18.2762 29.0601 17.9483 28.8313 17.689C28.6178 17.4144 28.2898 17.2771 27.8475 17.2771C27.4051 17.2771 27.0772 17.4144 26.8636 17.689C26.6501 17.9483 26.5357 18.2762 26.5204 18.6728C26.5052 18.9016 26.4975 19.2143 26.4975 19.6109C26.4975 19.9922 26.5052 20.3125 26.5204 20.5719C26.5509 20.9684 26.6653 21.304 26.8636 21.5786C27.0772 21.8379 27.4051 21.9675 27.8475 21.9675ZM36.9766 31.7602C35.9699 31.7602 35.1614 31.4856 34.5513 30.9365C33.9564 30.3721 33.6285 29.6247 33.5675 28.6943C33.5522 28.4349 33.5446 28.0917 33.5446 27.6647C33.5446 27.2223 33.5522 26.8639 33.5675 26.5893C33.6285 25.6436 33.9488 24.8962 34.5284 24.3471C35.1081 23.7979 35.9241 23.5234 36.9766 23.5234C38.0291 23.5234 38.8451 23.7979 39.4247 24.3471C40.0196 24.8962 40.3399 25.6436 40.3857 26.5893C40.4162 27.1994 40.4315 27.5884 40.4315 27.7562C40.4315 27.924 40.4162 28.2367 40.3857 28.6943C40.3247 29.6247 39.9891 30.3721 39.379 30.9365C38.7841 31.4856 37.9833 31.7602 36.9766 31.7602ZM36.9766 29.9755C37.4342 29.9755 37.7621 29.8459 37.9604 29.5866C38.174 29.312 38.296 28.9841 38.3265 28.6027C38.357 28.0841 38.3723 27.7638 38.3723 27.6418C38.3723 27.474 38.357 27.1613 38.3265 26.7037C38.3113 26.3071 38.1892 25.9715 37.9604 25.697C37.7469 25.4224 37.4189 25.2851 36.9766 25.2851C36.5342 25.2851 36.2063 25.4224 35.9927 25.697C35.7792 25.9563 35.6572 26.2919 35.6267 26.7037C35.6114 26.9325 35.6038 27.2452 35.6038 27.6418C35.6038 28.0231 35.6114 28.3434 35.6267 28.6027C35.6724 28.9993 35.7945 29.3273 35.9927 29.5866C36.2063 29.8459 36.5342 29.9755 36.9766 29.9755Z" fill="white"/>
<defs>
<linearGradient id="paint0_linear_57_43" x1="68.64" y1="0" x2="68.64" y2="53.1143" gradientUnits="userSpaceOnUse">
<stop stop-color="#F6BC2A"/>
<stop offset="0.289104" stop-color="#FCCA4D"/>
<stop offset="0.680948" stop-color="#FF9F2F"/>
<stop offset="1" stop-color="#FD9312"/>
</linearGradient>
</defs>
</svg>
