<svg width="87" height="114" viewBox="0 0 87 114" fill="none" xmlns="http://www.w3.org/2000/svg">
<path d="M12.3707 42.9682C12.3699 44.5607 11.7549 46.0915 10.6537 47.242C9.55254 48.3924 8.05006 49.0738 6.4591 49.1443C4.86814 49.2148 3.3113 48.6689 2.11271 47.6203C0.91412 46.5717 0.166149 45.1013 0.024523 43.5151C-0.117103 41.9289 0.35853 40.3491 1.3524 39.1048C2.34626 37.8605 3.78177 37.0474 5.36005 36.8349C6.93833 36.6224 8.53776 37.0269 9.82533 37.964C11.1129 38.9012 11.9894 40.2989 12.2723 41.8661C12.338 42.2298 12.3709 42.5986 12.3707 42.9682Z" fill="#29607F"/>
<path d="M12.2723 41.8661C12.0296 43.3083 11.2838 44.6179 10.1671 45.5624C9.05044 46.5068 7.63523 47.0251 6.17272 47.0251C4.7102 47.0251 3.295 46.5068 2.17834 45.5624C1.06167 44.6179 0.31579 43.3083 0.0731049 41.8661C0.31579 40.4238 1.06167 39.1142 2.17834 38.1698C3.295 37.2253 4.7102 36.7071 6.17272 36.7071C7.63523 36.7071 9.05044 37.2253 10.1671 38.1698C11.2838 39.1142 12.0296 40.4238 12.2723 41.8661Z" fill="#307197"/>
<path d="M86.2887 42.9682C86.2879 44.5607 85.6728 46.0915 84.5716 47.242C83.4705 48.3924 81.968 49.0738 80.377 49.1443C78.7861 49.2148 77.2292 48.6689 76.0306 47.6203C74.832 46.5717 74.0841 45.1013 73.9424 43.5151C73.8008 41.9289 74.2765 40.3491 75.2703 39.1048C76.2642 37.8605 77.6997 37.0474 79.278 36.8349C80.8563 36.6224 82.4557 37.0269 83.7433 37.964C85.0308 38.9012 85.9073 40.2989 86.1903 41.8661C86.2559 42.2298 86.2889 42.5986 86.2887 42.9682Z" fill="#29607F"/>
<path d="M86.1903 41.8661C85.9476 43.3083 85.2017 44.6179 84.085 45.5624C82.9684 46.5068 81.5532 47.0251 80.0907 47.0251C78.6281 47.0251 77.2129 46.5068 76.0963 45.5624C74.9796 44.6179 74.2337 43.3083 73.991 41.8661C74.2337 40.4238 74.9796 39.1142 76.0963 38.1698C77.2129 37.2253 78.6281 36.7071 80.0907 36.7071C81.5532 36.7071 82.9684 37.2253 84.085 38.1698C85.2017 39.1142 85.9476 40.4238 86.1903 41.8661Z" fill="#307197"/>
<path d="M43.1935 18.5838V11.0489" stroke="#F45C69" stroke-width="5" stroke-linecap="round" stroke-linejoin="round"/>
<path d="M80.0921 28.1683V59.5394C80.0921 64.6732 76.125 68.8343 71.2301 68.8343H15.0361C10.1412 68.8343 6.17133 64.6732 6.17133 59.5394V28.1683C6.17133 23.0345 10.1412 18.8734 15.0361 18.8734H71.2301C76.125 18.8734 80.0921 23.0345 80.0921 28.1683Z" fill="#FFDB71"/>
<path d="M80.0921 28.1683V59.5394C80.0921 64.6732 75.9957 68.8343 70.9405 68.8343H19.4192C14.3585 68.8343 10.2705 64.6732 10.2705 59.5394V28.1683C10.2705 23.0345 14.3669 18.8734 19.4192 18.8734H70.9405C75.9957 18.8734 80.0921 23.0345 80.0921 28.1683Z" fill="#FECF37"/>
<path d="M71.4776 33.1644V51.3578C71.4776 55.2209 68.4973 58.3529 64.8227 58.3529H21.691C18.0163 58.3529 15.0361 55.2209 15.0361 51.3578V33.1644C15.0361 29.3014 18.0163 26.1693 21.691 26.1693H64.8227C68.4973 26.1581 71.4776 29.3014 71.4776 33.1644Z" fill="#FFDB71"/>
<path d="M71.4775 33.1644V49.2632C71.4775 53.1263 68.4973 56.2583 64.8226 56.2583H24.3732C20.6985 56.2583 17.7183 53.1263 17.7183 49.2632V33.1644C17.7183 29.3014 20.6985 26.1693 24.3732 26.1693H64.8226C68.4973 26.1581 71.4775 29.3014 71.4775 33.1644Z" fill="#FFDB71"/>
<path d="M63.4028 27.8703H25.5006C22.0566 27.8703 19.2646 30.6622 19.2646 34.1063V50.3232C19.2646 53.7672 22.0566 56.5592 25.5006 56.5592H63.4028C66.8469 56.5592 69.6388 53.7672 69.6388 50.3232V34.1063C69.6388 30.6622 66.8469 27.8703 63.4028 27.8703Z" fill="#B9E3FB"/>
<path d="M63.4028 27.8703H22.9871C19.5431 27.8703 16.7511 30.6622 16.7511 34.1063V50.3232C16.7511 53.7672 19.5431 56.5592 22.9871 56.5592H63.4028C66.8469 56.5592 69.6388 53.7672 69.6388 50.3232V34.1063C69.6388 30.6622 66.8469 27.8703 63.4028 27.8703Z" fill="#B9E3FB"/>
<path d="M63.4028 27.8703H25.5006C22.0566 27.8703 19.2646 30.6622 19.2646 34.1063V48.4563C19.2646 51.9004 22.0566 54.6923 25.5006 54.6923H63.4028C66.8469 54.6923 69.6388 51.9004 69.6388 48.4563V34.1063C69.6388 30.6622 66.8469 27.8703 63.4028 27.8703Z" fill="#D4EFFA"/>
<path d="M49.393 6.19622C49.395 7.60276 48.919 8.96825 48.0432 10.0688C47.1674 11.1694 45.9436 11.9398 44.5725 12.2536C43.2015 12.5675 41.7644 12.4062 40.497 11.7963C39.2296 11.1863 38.2071 10.1638 37.597 8.8965C36.9869 7.62916 36.8255 6.19215 37.1392 4.82104C37.4529 3.44993 38.2232 2.22609 39.3237 1.35015C40.4242 0.474209 41.7896 -0.00185403 43.1961 5.42653e-06C44.6027 0.00186488 45.9669 0.481538 47.065 1.36039C47.7913 1.93983 48.3778 2.67547 48.7808 3.51266C49.1838 4.34984 49.3931 5.26707 49.393 6.19622Z" fill="#29607F"/>
<path d="M49.393 6.19621C49.3946 7.11118 49.1931 8.01511 48.8032 8.84284C48.4133 9.67058 47.8446 10.4015 47.1382 10.9829C46.4317 11.5644 45.605 11.9818 44.7177 12.2052C43.8304 12.4286 42.9047 12.4523 42.0071 12.2747C40.9138 11.4134 40.1429 10.2085 39.8191 8.8549C39.4953 7.50125 39.6375 6.07796 40.2228 4.81514C40.808 3.55233 41.802 2.5238 43.0442 1.89587C44.2863 1.26793 45.7039 1.07729 47.0678 1.35475C47.7944 1.93507 48.3808 2.67174 48.7833 3.50995C49.1859 4.34816 49.3942 5.26635 49.393 6.19621Z" fill="#307197"/>
<path d="M22.1127 75.4892H63.9876C66.2529 75.4892 68.4255 76.3891 70.0273 77.9909C71.6291 79.5928 72.529 81.7653 72.529 84.0306V105.882C72.529 107.927 71.7166 109.889 70.2704 111.336C68.8242 112.783 66.8626 113.596 64.817 113.597H21.2861C19.24 113.597 17.2777 112.784 15.8309 111.337C14.3841 109.89 13.5713 107.928 13.5713 105.882V84.0306C13.5713 81.7653 14.4712 79.5928 16.073 77.9909C17.6748 76.3891 19.8474 75.4892 22.1127 75.4892Z" fill="white"/>
<path d="M48.4455 75.6157H37.8207V113.597H48.4455V75.6157Z" fill="#99CCD0"/>
<path d="M43.1317 78.8827C43.1317 78.8827 37.8207 83.4824 37.8207 83.2659V75.6157L43.1317 78.8827Z" fill="#84AEAF"/>
<path d="M43.1317 78.8827C43.1317 78.8827 48.4427 83.4824 48.4427 83.2659V75.6157L43.1317 78.8827Z" fill="#84AEAF"/>
<path d="M37.8207 68.8343H48.4455V75.2024C48.4455 76.1785 48.0577 77.1146 47.3676 77.8048C46.6774 78.4949 45.7413 78.8827 44.7652 78.8827H41.501C40.5249 78.8827 39.5888 78.4949 38.8986 77.8048C38.2085 77.1146 37.8207 76.1785 37.8207 75.2024V68.8343Z" fill="#29607F"/>
<path d="M48.4455 69.2138V76.4845C48.4455 77.8087 46.8064 78.8799 44.7905 78.8799H41.3942C40.7138 78.8799 40.1655 78.52 40.1655 78.0758V68.8343H47.8663C48.1924 68.8343 48.4455 69.003 48.4455 69.2138Z" fill="#29607F"/>
<path d="M48.4455 71.2944V76.4844C48.4455 77.8087 46.8064 78.8799 44.7905 78.8799H41.3942C40.7138 78.8799 40.1655 78.52 40.1655 78.0758V71.2944C40.1655 71.0863 40.4242 70.9148 40.7447 70.9148H47.8663C48.1924 70.9148 48.4455 71.0863 48.4455 71.2944Z" fill="#307197"/>
<path d="M28.9813 75.4892H26.8276V84.5339H28.9813V75.4892Z" fill="#307197"/>
<path d="M52.8427 75.4892L55.5474 87.7306L50.4023 87.084L54.271 92.229L50.4023 113.597H48.4342V75.4892H52.8427Z" fill="#F8FDFF"/>
<path d="M33.4207 75.4892L30.716 87.7306L35.8611 87.084L31.9924 92.229L35.8611 113.597H37.8291V75.4892H33.4207Z" fill="#F8FDFF"/>
<path d="M59.6607 75.4892H57.507V84.5339H59.6607V75.4892Z" fill="#307197"/>
<path d="M59.6663 83.2715H57.5127V87.351H59.6663V83.2715Z" fill="#209CB4"/>
<path d="M27.9045 88.5544C29.2926 88.5544 30.418 87.429 30.418 86.0409C30.418 84.6527 29.2926 83.5273 27.9045 83.5273C26.5163 83.5273 25.3909 84.6527 25.3909 86.0409C25.3909 87.429 26.5163 88.5544 27.9045 88.5544Z" fill="#209CB4"/>
<path d="M54.9598 93.6545C54.6168 94.6722 53.509 98.1107 53.4444 101.445C53.3992 102.721 53.549 103.996 53.8886 105.227C54.0677 105.835 54.3001 106.427 54.583 106.995L53.7874 107.524C53.425 106.757 53.1423 105.955 52.9439 105.131C52.6693 103.929 52.5624 102.694 52.6262 101.462C52.7274 98.1726 53.6046 94.9421 54.0179 93.542" fill="#CEEAEB"/>
<path d="M53.0447 106.475L53.5813 107.808C53.7106 108.129 54.0758 108.285 54.397 108.156L54.7648 108.008C55.086 107.878 55.2416 107.513 55.1122 107.192L54.5757 105.859C54.4463 105.538 54.0811 105.382 53.7599 105.512L53.3922 105.66C53.071 105.789 52.9154 106.154 53.0447 106.475Z" fill="#209CB4"/>
<path d="M27.9044 87.7165C28.8299 87.7165 29.5801 86.9663 29.5801 86.0408C29.5801 85.1154 28.8299 84.3652 27.9044 84.3652C26.979 84.3652 26.2288 85.1154 26.2288 86.0408C26.2288 86.9663 26.979 87.7165 27.9044 87.7165Z" fill="#CEEAEB"/>
<path d="M58.6794 86.0071C59.0049 85.987 59.329 86.0642 59.6104 86.2289C59.8918 86.3937 60.1178 86.6384 60.2595 86.9321L63.31 93.1428C63.3533 93.2323 63.3732 93.3314 63.3678 93.4307C63.3624 93.53 63.3318 93.6264 63.279 93.7106C63.2261 93.7949 63.1528 93.8644 63.0658 93.9126C62.9788 93.9608 62.8809 93.9862 62.7815 93.9862H62.1967C62.079 93.9864 61.9639 93.9511 61.8666 93.8849C61.7693 93.8187 61.6942 93.7247 61.6512 93.6151C60.8696 91.6489 60.0899 89.6808 59.312 87.7109C59.279 87.6248 59.226 87.5477 59.1574 87.486C59.0401 87.3883 58.8938 87.3319 58.7413 87.3257" fill="#209CB4"/>
<path d="M58.2633 86.0071C57.9378 85.9866 57.6136 86.0636 57.3321 86.2284C57.0506 86.3932 56.8247 86.6382 56.6833 86.9321L53.6299 93.1428C53.5873 93.2326 53.5681 93.3317 53.574 93.431C53.5799 93.5302 53.6108 93.6264 53.6638 93.7105C53.7168 93.7946 53.7902 93.864 53.8772 93.9122C53.9642 93.9604 54.0619 93.9859 54.1613 93.9862H54.7433C54.8613 93.9862 54.9766 93.9509 55.0743 93.8847C55.1721 93.8186 55.2477 93.7247 55.2915 93.6151L57.6279 87.7109C57.6729 87.5958 57.7531 87.4978 57.8572 87.4312C57.9612 87.3645 58.0837 87.3325 58.2071 87.3398" fill="#209CB4"/>
<path d="M31.9671 94.0509H21.0443C19.6499 94.0509 18.5195 95.1813 18.5195 96.5757V101.243C18.5195 102.637 19.6499 103.768 21.0443 103.768H31.9671C33.3615 103.768 34.4918 102.637 34.4918 101.243V96.5757C34.4918 95.1813 33.3615 94.0509 31.9671 94.0509Z" fill="#F45C69"/>
<path d="M46.2638 102.545L43.9892 109.5L43.9414 109.644C43.6069 110.664 42.4063 110.642 42.0999 109.607L39.9912 102.533C39.9342 102.337 39.9188 102.131 39.9462 101.929L42.0521 87.0277C42.0681 86.773 42.1752 86.5326 42.3538 86.3504C42.5324 86.1682 42.7706 86.0563 43.0249 86.0352H43.306C43.5612 86.0565 43.8001 86.1692 43.9789 86.3525C44.1576 86.5359 44.2641 86.7777 44.2788 87.0333L46.3031 101.906C46.3392 102.119 46.3257 102.338 46.2638 102.545Z" fill="#2F2F38"/>
<path d="M46.2637 102.545L43.9892 109.5C43.7704 109.488 43.5616 109.404 43.3954 109.261C43.2291 109.118 43.1147 108.925 43.0698 108.71L40.9612 101.636C40.9024 101.441 40.8871 101.234 40.9162 101.032L43.022 86.1308L43.0389 86.038H43.3201C43.5753 86.0593 43.8142 86.172 43.9929 86.3553C44.1716 86.5387 44.2782 86.7805 44.2929 87.0361L46.3172 101.909C46.3483 102.122 46.33 102.34 46.2637 102.545Z" fill="#3E3D4B"/>
<path d="M30.8059 95.7575C30.8059 95.301 30.4365 94.9309 29.9808 94.9309C29.525 94.9309 29.1556 95.301 29.1556 95.7575V101.76C29.1556 102.217 29.525 102.587 29.9808 102.587C30.4365 102.587 30.8059 102.217 30.8059 101.76V95.7575Z" fill="white"/>
<path d="M23.5396 95.3874L20.9653 101.491C20.7878 101.911 20.9844 102.396 21.4043 102.573C21.8242 102.75 22.3085 102.553 22.4859 102.132L25.0602 96.0288C25.2377 95.6082 25.0411 95.1236 24.6212 94.9465C24.2013 94.7694 23.717 94.9668 23.5396 95.3874Z" fill="white"/>
<path d="M25.1702 95.388C24.9928 94.9673 24.5085 94.7699 24.0886 94.9471C23.6687 95.1242 23.4721 95.6087 23.6495 96.0294L26.2239 102.133C26.4013 102.553 26.8855 102.751 27.3055 102.574C27.7254 102.396 27.9219 101.912 27.7445 101.491L25.1702 95.388Z" fill="white"/>
<path d="M26.2738 99.4181H22.5148V100.956H26.2738V99.4181Z" fill="white"/>
<path d="M45.3162 86.3642C44.6612 87.0474 43.8852 87.4326 43.1964 87.4241C41.5094 87.4044 39.3642 85.0315 39.755 81.7617L40.2105 81.3737L43.1317 78.8827L46.7867 82.0035C46.856 82.7925 46.7611 83.5873 46.508 84.3378C46.2549 85.0883 45.8491 85.7782 45.3162 86.3642Z" fill="#2F2F38"/>
<path d="M45.3163 86.3642C44.8497 86.7607 44.2637 86.9893 43.6518 87.0136C41.9649 86.994 39.831 84.6323 40.2105 81.3737L43.1317 78.8827L46.7867 82.0035C46.856 82.7925 46.7611 83.5873 46.508 84.3378C46.2549 85.0883 45.8492 85.7782 45.3163 86.3642Z" fill="#3E3D4B"/>
<path d="M62.1011 93.9918C62.4441 95.0096 63.5518 98.4481 63.6165 101.783C63.6635 103.058 63.5146 104.334 63.1751 105.564C62.9947 106.172 62.7623 106.764 62.4806 107.333L63.2763 107.861C63.6362 107.094 63.9187 106.292 64.1198 105.468C64.3903 104.27 64.4963 103.04 64.4346 101.814C64.3334 98.524 63.459 95.2936 63.0457 93.8934" fill="#CEEAEB"/>
<path d="M62.4883 106.183L61.9517 107.516C61.8224 107.837 61.978 108.202 62.2992 108.332L62.6669 108.48C62.9881 108.609 63.3533 108.454 63.4827 108.132L64.0192 106.8C64.1486 106.478 63.993 106.113 63.6718 105.984L63.304 105.836C62.9828 105.707 62.6176 105.862 62.4883 106.183Z" fill="#209CB4"/>
<path d="M51.7968 39.465H48.8785C48.5563 39.4633 48.2428 39.5696 47.988 39.7668C47.7332 39.964 47.5518 40.2408 47.4727 40.5531C47.42 40.7657 47.4166 40.9876 47.4627 41.2017C47.5089 41.4159 47.6034 41.6166 47.7391 41.7886C47.8747 41.9606 48.0479 42.0993 48.2454 42.1942C48.4429 42.289 48.6594 42.3373 48.8785 42.3356H51.7968C52.1665 42.3193 52.5156 42.1609 52.7714 41.8935C53.0272 41.6261 53.17 41.2704 53.17 40.9003C53.17 40.5303 53.0272 40.1745 52.7714 39.9072C52.5156 39.6398 52.1665 39.4814 51.7968 39.465Z" fill="#09888E"/>
<path d="M51.7968 39.465H48.8785C48.5563 39.4633 48.2428 39.5696 47.988 39.7668C47.7332 39.964 47.5518 40.2408 47.4727 40.5531C47.5504 40.8664 47.7313 41.1445 47.9864 41.3424C48.2414 41.5403 48.5557 41.6465 48.8785 41.644H51.7968C52.1196 41.6465 52.4339 41.5403 52.6889 41.3424C52.9439 41.1445 53.1249 40.8664 53.2026 40.5531C53.123 40.241 52.9415 39.9645 52.6868 39.7674C52.4321 39.5702 52.1189 39.4638 51.7968 39.465Z" fill="#08ABBA"/>
<path d="M50.7903 40.047V40.137C50.7903 40.2332 50.8683 40.3113 50.9646 40.3113H51.5803C51.6766 40.3113 51.7547 40.2332 51.7547 40.137V40.047C51.7547 39.9507 51.6766 39.8727 51.5803 39.8727H50.9646C50.8683 39.8727 50.7903 39.9507 50.7903 40.047Z" fill="#FAFFFF"/>
<path d="M33.5331 39.465H30.6148C30.2926 39.4633 29.9791 39.5696 29.7243 39.7668C29.4695 39.964 29.2881 40.2408 29.209 40.5531C29.1563 40.7657 29.1528 40.9876 29.199 41.2017C29.2452 41.4159 29.3397 41.6166 29.4754 41.7886C29.611 41.9606 29.7842 42.0993 29.9817 42.1942C30.1792 42.289 30.3957 42.3373 30.6148 42.3356H33.5331C33.9028 42.3193 34.2519 42.1609 34.5077 41.8935C34.7635 41.6261 34.9063 41.2704 34.9063 40.9003C34.9063 40.5303 34.7635 40.1745 34.5077 39.9072C34.2519 39.6398 33.9028 39.4814 33.5331 39.465Z" fill="#09888E"/>
<path d="M33.5331 39.465H30.6147C30.2926 39.4633 29.9791 39.5696 29.7243 39.7668C29.4695 39.964 29.2881 40.2408 29.209 40.5531C29.2867 40.8664 29.4676 41.1445 29.7227 41.3424C29.9777 41.5403 30.2919 41.6465 30.6147 41.644H33.5331C33.8559 41.6465 34.1702 41.5403 34.4252 41.3424C34.6802 41.1445 34.8612 40.8664 34.9389 40.5531C34.8593 40.241 34.6778 39.9645 34.4231 39.7674C34.1684 39.5702 33.8552 39.4638 33.5331 39.465Z" fill="#08ABBA"/>
<path d="M32.3017 40.0302V40.1202C32.3017 40.2165 32.3797 40.2945 32.476 40.2945H33.0917C33.188 40.2945 33.266 40.2165 33.266 40.1202V40.0302C33.266 39.9339 33.188 39.8559 33.0917 39.8559H32.476C32.3797 39.8559 32.3017 39.9339 32.3017 40.0302Z" fill="#FAFFFF"/>
<path d="M28.2306 34.3116C28.6391 33.7353 29.1904 33.2751 29.8304 32.9761C30.5643 32.659 31.3778 32.5746 32.1611 32.7343C32.5913 32.8046 33.0636 32.8889 33.2154 33.2347C33.2668 33.3738 33.2793 33.5243 33.2516 33.6699C33.2238 33.8156 33.1569 33.9509 33.058 34.0613C32.4957 34.663 31.3711 33.6227 30.3786 34.1654C29.6026 34.5955 29.2343 35.8523 28.6355 36.0884C28.4871 36.1582 28.3191 36.1741 28.1603 36.1334C28.0385 36.0895 27.93 36.015 27.8454 35.9169C27.7928 35.8581 27.7492 35.7918 27.7161 35.7201C27.7109 35.5307 27.7317 35.3415 27.7779 35.1578C27.8662 34.8465 28.0206 34.5578 28.2306 34.3116Z" fill="white"/>
<path d="M35.7739 49.5556C35.8301 49.519 36.9379 48.7965 39.1477 48.774C40.6182 48.7599 41.9986 49.0551 42.7268 49.5556" stroke="#F45C69" stroke-width="2" stroke-linecap="round" stroke-linejoin="round"/>
<path d="M52.5391 36.6338C51.0733 36.3862 49.5729 36.4321 48.125 36.7687C47.9203 36.7713 47.7226 36.6944 47.5735 36.5541C47.4244 36.4139 47.3356 36.2212 47.3258 36.0167C47.3159 35.8123 47.3858 35.612 47.5207 35.458C47.6557 35.3041 47.8451 35.2085 48.049 35.1915C49.5147 34.9571 51.0056 34.9249 52.48 35.0959C52.5951 35.0891 52.7102 35.1065 52.8181 35.147C52.926 35.1875 53.0242 35.2502 53.1063 35.331C53.1884 35.4118 53.2527 35.509 53.295 35.6162C53.3372 35.7234 53.3565 35.8383 53.3516 35.9534C53.3194 36.145 53.2199 36.3189 53.0709 36.4436C52.922 36.5683 52.7334 36.6358 52.5391 36.6338Z" fill="white"/>
<path d="M64.0382 49.3588C64.3096 49.286 64.5972 49.3012 64.8594 49.4022C65.1217 49.5033 65.3451 49.685 65.4974 49.9212C68.5739 54.6815 69.9246 60.353 69.3239 65.9891L66.1075 67.2711C66.7476 64.5691 66.8243 61.7642 66.3329 59.0312C65.8414 56.2982 64.7923 53.6957 63.251 51.386C63.1327 51.2106 63.0581 51.0094 63.0334 50.7993C63.0086 50.5892 63.0345 50.3762 63.1088 50.1781C63.183 49.9801 63.3036 49.8026 63.4604 49.6606C63.6172 49.5185 63.8057 49.4161 64.0101 49.3617L64.0382 49.3588Z" fill="#307197"/>
<path d="M62.6943 67.7687C62.3476 65.7876 61.5502 63.9128 60.3636 62.289C59.5201 61.1503 58.2268 59.3903 55.9916 58.8336C54.5859 58.4794 52.6178 58.5946 52.3001 59.3959C52.137 59.8177 52.4491 60.38 52.7893 60.7005C53.6581 61.5186 54.6646 60.7258 56.0647 61.1447C58.1931 61.7829 59.2699 64.6394 59.9165 66.3545C60.1156 66.8876 60.2827 67.4321 60.417 67.9852L62.6943 67.7687Z" fill="#307197"/>
<path d="M66.2059 66.363C65.8592 64.3819 65.0618 62.5071 63.8752 60.8833C63.0317 59.7446 61.7384 57.9846 59.5032 57.4279C58.0975 57.0737 56.1294 57.1889 55.8117 57.9902C55.6486 58.412 55.9607 58.9743 56.3009 59.2948C57.1669 60.1129 58.1734 59.3173 59.5735 59.739C61.7047 60.3772 62.7815 63.2337 63.4281 64.9488C63.6277 65.4815 63.7939 66.0261 63.9258 66.5795L66.2059 66.363Z" fill="#307197"/>
<path d="M63.5293 83.5133C61.401 73.1894 60.3889 68.4885 60.133 67.6113C60.1314 67.601 60.1314 67.5906 60.133 67.5804C63.2388 66.3433 66.3456 65.1053 69.4532 63.8663C71.3173 69.0058 72.6612 73.4255 73.6115 76.8331C74.8036 81.1094 75.2478 83.3193 74.0107 84.9865C73.052 86.2883 70.5413 87.9921 68.4102 87.4438C65.3906 87.292 63.6109 83.6904 63.5293 83.5133Z" fill="#29607F"/>
<path d="M63.5575 83.5133C63.1582 80.6539 62.6156 77.6091 61.893 74.3814C61.3532 71.9804 60.7684 69.7087 60.133 67.5719L67.3868 64.676C69.0733 68.8995 70.4646 73.235 71.5506 77.6512C71.9892 79.4309 72.3604 81.1656 72.6752 82.8469C72.605 85.1383 70.9574 87.0333 68.8712 87.3876C66.4983 87.7924 64.0438 86.1083 63.5575 83.5133Z" fill="#307197"/>
<path d="M65.3596 72.5315C68.2618 72.5315 70.6144 70.1788 70.6144 67.2767C70.6144 64.3746 68.2618 62.022 65.3596 62.022C62.4575 62.022 60.1049 64.3746 60.1049 67.2767C60.1049 70.1788 62.4575 72.5315 65.3596 72.5315Z" fill="#29607F"/>
<path d="M65.6099 73.6252C67.8629 73.6252 69.6894 71.7987 69.6894 69.5457C69.6894 67.2926 67.8629 65.4661 65.6099 65.4661C63.3568 65.4661 61.5303 67.2926 61.5303 69.5457C61.5303 71.7987 63.3568 73.6252 65.6099 73.6252Z" fill="#307197"/>
<path d="M63.594 52.9098C64.1042 52.423 64.7094 52.0469 65.3717 51.805C66.0341 51.5631 66.7392 51.4607 67.443 51.504C67.5498 51.9314 67.6567 52.3475 67.7607 52.7833C67.141 52.651 66.4989 52.666 65.886 52.8272C65.2732 52.9883 64.7067 53.2911 64.2322 53.7111L63.594 52.9098Z" fill="#29607F"/>
<path d="M64.6596 55.4935C65.1896 55.0291 65.8097 54.679 66.4812 54.4652C67.1527 54.2514 67.861 54.1784 68.562 54.2508C68.652 54.681 68.7391 55.1111 68.8291 55.5413C68.2147 55.3848 67.5721 55.3745 66.953 55.5112C66.3339 55.648 65.7554 55.9279 65.2641 56.3285L64.6596 55.4935Z" fill="#29607F"/>
<path d="M65.3906 58.381C65.9357 57.9366 66.5666 57.6094 67.2438 57.4198C67.9211 57.2302 68.6301 57.1822 69.3267 57.2788L69.546 58.5778C68.9379 58.3992 68.2963 58.3663 67.6731 58.4815C67.0499 58.5968 66.4625 58.8571 65.9585 59.2413L65.3906 58.381Z" fill="#29607F"/>
<path d="M65.9276 61.2347C66.5243 60.8591 67.1924 60.6112 67.8897 60.5066C68.587 60.4021 69.2984 60.4432 69.979 60.6274L70.038 61.9432C69.4545 61.6903 68.8196 61.5781 68.1847 61.6157C67.5498 61.6533 66.9327 61.8396 66.3831 62.1597L65.9276 61.2347Z" fill="#29607F"/>
<path d="M61.058 62.3762C61.4679 61.6787 62.0362 61.0873 62.7168 60.6499C63.2223 60.3265 63.781 60.0952 64.3672 59.9667L65.0279 61.1054C64.3946 61.1516 63.7811 61.3462 63.237 61.6734C62.6929 62.0007 62.2335 62.4514 61.8958 62.9891L61.058 62.3762Z" fill="#29607F"/>
<path d="M59.3289 60.5009C59.578 59.8414 59.9612 59.2407 60.4543 58.7369C60.9475 58.2331 61.5398 57.8372 62.1939 57.5741L63.0373 58.5891C62.4138 58.7431 61.8357 59.0427 61.3504 59.4634C60.8811 59.8726 60.511 60.3831 60.268 60.9564L59.3289 60.5009Z" fill="#29607F"/>
<path d="M57.1528 60.0342C57.1873 59.3306 57.3664 58.6418 57.6789 58.0105C57.9914 57.3793 58.4306 56.8192 58.969 56.3651L60.0936 57.0708C59.5533 57.4028 59.0982 57.8567 58.7647 58.3962C58.4313 58.9357 58.2287 59.5458 58.1734 60.1775L57.1528 60.0342Z" fill="#29607F"/>
<path d="M57.5464 63.7848C57.9563 63.0872 58.5246 62.4959 59.2052 62.0585C59.7109 61.7356 60.2696 61.5043 60.8556 61.3753C61.0768 61.7502 61.297 62.1297 61.5163 62.514C60.8835 62.5607 60.2705 62.7553 59.7266 63.0819C59.1826 63.4086 58.7229 63.8583 58.3842 64.3949L57.5464 63.7848Z" fill="#29607F"/>
<path d="M55.8173 61.9095C56.0676 61.2507 56.4512 60.6506 56.9442 60.147C57.4372 59.6433 58.0289 59.247 58.6823 58.9827L59.5257 59.9977C58.9028 60.1533 58.325 60.4528 57.8388 60.8721C57.3677 61.2796 56.9973 61.7906 56.7564 62.365L55.8173 61.9095Z" fill="#29607F"/>
<path d="M53.6412 61.4428C53.6754 60.7389 53.8546 60.0497 54.1677 59.4184C54.4807 58.787 54.9207 58.2271 55.4602 57.7737L56.5708 58.4907C56.0338 58.8223 55.5815 59.2744 55.2496 59.8112C54.9177 60.348 54.7155 60.9548 54.659 61.5834L53.6412 61.4428Z" fill="#29607F"/>
<path d="M66.7728 75.5783L68.209 75.1708C70.8264 74.4282 73.5503 75.948 74.2929 78.5654L79.0869 95.4621C79.8295 98.0795 78.3097 100.803 75.6923 101.546L74.2561 101.953C71.6387 102.696 68.9149 101.176 68.1723 98.5589L63.3783 81.6622C62.6356 79.0448 64.1554 76.321 66.7728 75.5783Z" fill="white" stroke="#307197"/>
</svg>
