<svg width="71" height="71" viewBox="0 0 71 71" fill="none" xmlns="http://www.w3.org/2000/svg">
<path d="M0 26.6271L34.1865 48.3842C34.577 48.6726 35.0385 48.8146 35.5 48.8146C35.9615 48.8146 36.423 48.6726 36.8135 48.3842L71 26.6271L36.8312 0.445845C36.0414 -0.144343 34.9586 -0.144343 34.1688 0.445845L0 26.6271Z" fill="#F2BF3E"/>
<path d="M57.6875 0H13.3125C10.8674 0 8.875 1.99244 8.875 4.4375V53.25C8.875 54.4748 9.869 55.4688 11.0938 55.4688H59.9062C61.131 55.4688 62.125 54.4748 62.125 53.25V4.4375C62.125 1.99244 60.137 0 57.6875 0Z" fill="#ECEFF1"/>
<path d="M19.9688 13.3125H51.0312C52.256 13.3125 53.25 12.3185 53.25 11.0938C53.25 9.869 52.256 8.875 51.0312 8.875H19.9688C18.744 8.875 17.75 9.869 17.75 11.0938C17.75 12.3185 18.744 13.3125 19.9688 13.3125Z" fill="#90A4AE"/>
<path d="M51.0312 17.75H19.9688C18.744 17.75 17.75 18.744 17.75 19.9688C17.75 21.1935 18.744 22.1875 19.9688 22.1875H51.0312C52.256 22.1875 53.25 21.1935 53.25 19.9688C53.25 18.744 52.256 17.75 51.0312 17.75Z" fill="#90A4AE"/>
<path d="M37.7188 26.625H19.9688C18.744 26.625 17.75 27.619 17.75 28.8438C17.75 30.0685 18.744 31.0625 19.9688 31.0625H37.7188C38.9435 31.0625 39.9375 30.0685 39.9375 28.8438C39.9375 27.619 38.9435 26.625 37.7188 26.625Z" fill="#90A4AE"/>
<path d="M36.8135 48.3821C36.423 48.6705 35.9615 48.8125 35.5 48.8125C35.0385 48.8125 34.577 48.6705 34.1865 48.3821L0 26.625V66.5625C0 69.012 1.988 71 4.4375 71H66.5625C69.012 71 71 69.012 71 66.5625V26.625L36.8135 48.3821Z" fill="#FFD059"/>
<path d="M66.5625 71H4.4375C1.94806 71 0 69.0519 0 66.5625C0 65.8569 0.33725 65.1913 0.90525 64.7742L34.1865 42.5867C34.577 42.2983 35.0385 42.1562 35.5 42.1562C35.9615 42.1562 36.423 42.2983 36.8135 42.5867L70.0947 64.7742C70.6628 65.1913 71 65.8569 71 66.5625C71 69.0519 69.0519 71 66.5625 71Z" fill="#FFDC82"/>
</svg>
