<svg width="47" height="47" viewBox="0 0 47 47" fill="none" xmlns="http://www.w3.org/2000/svg">
<path d="M17.6558 24.0734C13.8261 26.3176 9.35215 27.3799 4.93414 27.1602C7.83839 29.1448 10.6884 31.2039 13.4868 33.3337C14.3522 33.9927 13.3602 35.3623 12.491 34.7006C8.75267 31.8576 4.91835 29.1384 0.996506 26.5551C0.326727 26.1128 0.748843 24.8525 1.57807 25.029C6.84268 26.1447 12.3355 25.2489 16.9771 22.5243C17.916 21.9711 18.5893 23.5277 17.6558 24.0734Z" fill="#4F5665"/>
<path d="M46.0517 22.2912C38.5427 27.465 29.5086 29.8802 20.4565 30.1444C17.8888 30.2179 15.3252 30.1292 12.7696 29.8808C11.6842 29.7743 11.8552 28.0916 12.9406 28.1982C21.5849 29.0337 30.5288 28.0807 38.5264 24.5683C40.7909 23.5727 42.9605 22.371 44.9991 20.9657C45.8855 20.3514 46.9473 21.6722 46.0517 22.2912Z" fill="#4F5665"/>
</svg>
