<svg width="30" height="27" viewBox="0 0 30 27" fill="none" xmlns="http://www.w3.org/2000/svg">
<path d="M25.9091 25.4296C25.9091 25.7912 25.7654 26.1381 25.5097 26.3938C25.254 26.6496 24.9071 26.7932 24.5455 26.7932H5.45455C5.09289 26.7932 4.74604 26.6496 4.49031 26.3938C4.23458 26.1381 4.09091 25.7912 4.09091 25.4296V13.1569H0L14.0823 0.355033C14.3333 0.126594 14.6606 0 15 0C15.3394 0 15.6667 0.126594 15.9177 0.355033L30 13.1569H25.9091V25.4296ZM23.1818 24.0659V10.6437L15 3.2064L6.81818 10.6437V24.0659H23.1818ZM15 21.3387L10.4195 16.7582C10.1346 16.4733 9.90864 16.1351 9.75444 15.7628C9.60025 15.3906 9.52089 14.9916 9.52089 14.5887C9.52089 14.1858 9.60025 13.7868 9.75444 13.4145C9.90864 13.0423 10.1346 12.704 10.4195 12.4191C10.7045 12.1342 11.0427 11.9082 11.4149 11.754C11.7872 11.5998 12.1862 11.5205 12.5891 11.5205C12.992 11.5205 13.391 11.5998 13.7632 11.754C14.1355 11.9082 14.4737 12.1342 14.7586 12.4191L15 12.6605L15.2414 12.4191C15.5263 12.1342 15.8645 11.9082 16.2368 11.754C16.609 11.5998 17.008 11.5205 17.4109 11.5205C17.8138 11.5205 18.2128 11.5998 18.5851 11.754C18.9573 11.9082 19.2955 12.1342 19.5805 12.4191C19.8654 12.704 20.0914 13.0423 20.2456 13.4145C20.3997 13.7868 20.4791 14.1858 20.4791 14.5887C20.4791 14.9916 20.3997 15.3906 20.2456 15.7628C20.0914 16.1351 19.8654 16.4733 19.5805 16.7582L15 21.3387Z" fill="#FFC021"/>
</svg>
