<svg xmlns="http://www.w3.org/2000/svg" width="256" height="256" viewBox="0 0 100 100"><path d="M35.89 39.18L35.89 39.18Q35.89 40.14 35.36 40.83Q34.83 41.53 34.16 41.91L34.16 41.91Q32.91 41.10 31.38 40.42Q29.84 39.75 27.58 39.75L27.58 39.75Q23.50 39.75 21.08 42.39Q18.66 45.03 18.66 50.02L18.66 50.02Q18.66 55.11 21.15 57.66Q23.65 60.20 27.87 60.20L27.87 60.20Q30.08 60.20 31.69 59.60Q33.30 59 34.54 58.18L34.54 58.18Q35.22 58.62 35.65 59.36Q36.08 60.10 36.08 61.06L36.08 61.06Q36.08 61.88 35.65 62.55Q35.22 63.22 34.21 63.75L34.21 63.75Q33.25 64.33 31.50 64.83Q29.74 65.34 27.15 65.34L27.15 65.34Q23.98 65.34 21.27 64.40Q18.56 63.46 16.54 61.57Q14.53 59.67 13.38 56.79Q12.22 53.91 12.22 50.02L12.22 50.02Q12.22 46.28 13.38 43.42Q14.53 40.57 16.52 38.62Q18.51 36.68 21.18 35.67Q23.84 34.66 26.82 34.66L26.82 34.66Q28.88 34.66 30.56 35.02Q32.24 35.38 33.44 36.01Q34.64 36.63 35.26 37.45Q35.89 38.26 35.89 39.18ZM62.10 35.43L62.10 35.43Q62.34 35.82 62.55 36.46Q62.77 37.11 62.77 37.88L62.77 37.88Q62.77 39.18 62.17 39.85Q61.57 40.52 60.51 40.52L60.51 40.52L53.89 40.52L53.89 64.52Q53.50 64.62 52.69 64.76Q51.87 64.90 51.01 64.90L51.01 64.90Q49.18 64.90 48.42 64.23Q47.65 63.56 47.65 61.98L47.65 61.98L47.65 40.52L39.58 40.52Q39.34 40.09 39.13 39.46Q38.91 38.84 38.91 38.07L38.91 38.07Q38.91 36.73 39.51 36.08Q40.11 35.43 41.17 35.43L41.17 35.43L62.10 35.43ZM76.02 60.20L76.02 60.20Q78.80 60.20 80.10 59.12Q81.39 58.04 81.39 56.41L81.39 56.41Q81.39 54.92 80.38 54.03Q79.38 53.14 77.31 52.52L77.31 52.52L74.24 51.56Q72.42 50.98 70.93 50.26Q69.44 49.54 68.38 48.56Q67.33 47.58 66.75 46.26Q66.18 44.94 66.18 43.11L66.18 43.11Q66.18 39.22 69.10 36.94Q72.03 34.66 77.12 34.66L77.12 34.66Q79.14 34.66 80.84 34.98Q82.54 35.29 83.79 35.84Q85.04 36.39 85.74 37.21Q86.43 38.02 86.43 39.03L86.43 39.03Q86.43 39.99 85.98 40.69Q85.52 41.38 84.85 41.82L84.85 41.82Q83.70 41 81.80 40.40Q79.90 39.80 77.65 39.80L77.65 39.80Q75.15 39.80 73.86 40.69Q72.56 41.58 72.56 43.11L72.56 43.11Q72.56 44.36 73.45 45.03Q74.34 45.70 76.26 46.33L76.26 46.33L78.99 47.19Q83.17 48.44 85.47 50.60Q87.78 52.76 87.78 56.46L87.78 56.46Q87.78 58.42 87.01 60.06Q86.24 61.69 84.78 62.86Q83.31 64.04 81.13 64.69Q78.94 65.34 76.16 65.34L76.16 65.34Q73.95 65.34 72.10 64.95Q70.26 64.57 68.91 63.92Q67.57 63.27 66.82 62.38Q66.08 61.50 66.08 60.44L66.08 60.44Q66.08 59.34 66.73 58.54Q67.38 57.75 68.24 57.37L68.24 57.37Q69.44 58.42 71.41 59.31Q73.38 60.20 76.02 60.20Z" fill="#fff"></path></svg>