<svg width="36" height="29" viewBox="0 0 36 29" fill="none" xmlns="http://www.w3.org/2000/svg">
<path d="M5.16112 17.9265C5.16078 18.5909 4.90419 19.2295 4.44477 19.7095C3.98535 20.1895 3.35851 20.4738 2.69476 20.5032C2.031 20.5326 1.38149 20.3048 0.88143 19.8674C0.381374 19.4299 0.0693179 18.8164 0.0102311 18.1546C-0.0488558 17.4929 0.14958 16.8338 0.564224 16.3147C0.978868 15.7955 1.57777 15.4563 2.23623 15.3677C2.8947 15.279 3.56198 15.4477 4.09916 15.8387C4.63634 16.2297 5.00202 16.8128 5.12007 17.4667C5.14746 17.6184 5.1612 17.7723 5.16112 17.9265Z" fill="#29607F"/>
<path d="M5.12008 17.4667C5.01883 18.0684 4.70765 18.6148 4.24177 19.0088C3.77589 19.4028 3.18546 19.619 2.5753 19.619C1.96513 19.619 1.3747 19.4028 0.908826 19.0088C0.44295 18.6148 0.131767 18.0684 0.0305176 17.4667C0.131767 16.865 0.44295 16.3186 0.908826 15.9246C1.3747 15.5305 1.96513 15.3143 2.5753 15.3143C3.18546 15.3143 3.77589 15.5305 4.24177 15.9246C4.70765 16.3186 5.01883 16.865 5.12008 17.4667Z" fill="#307197"/>
<path d="M36 17.9265C35.9996 18.5909 35.7431 19.2295 35.2836 19.7095C34.8242 20.1895 34.1974 20.4738 33.5336 20.5032C32.8699 20.5326 32.2204 20.3048 31.7203 19.8674C31.2202 19.4299 30.9082 18.8164 30.8491 18.1546C30.79 17.4929 30.9884 16.8338 31.4031 16.3147C31.8177 15.7955 32.4166 15.4563 33.0751 15.3677C33.7336 15.279 34.4008 15.4477 34.938 15.8387C35.4752 16.2297 35.8409 16.8128 35.9589 17.4667C35.9863 17.6184 36.0001 17.7723 36 17.9265Z" fill="#29607F"/>
<path d="M35.9589 17.4667C35.8577 18.0684 35.5465 18.6148 35.0806 19.0088C34.6148 19.4028 34.0243 19.619 33.4142 19.619C32.804 19.619 32.2136 19.4028 31.7477 19.0088C31.2818 18.6148 30.9706 18.0684 30.8694 17.4667C30.9706 16.865 31.2818 16.3186 31.7477 15.9246C32.2136 15.5305 32.804 15.3143 33.4142 15.3143C34.0243 15.3143 34.6148 15.5305 35.0806 15.9246C35.5465 16.3186 35.8577 16.865 35.9589 17.4667Z" fill="#307197"/>
<path d="M18.0217 7.75322V4.60963" stroke="#F45C69" stroke-width="1.40479" stroke-linecap="round" stroke-linejoin="round"/>
<path d="M33.4148 11.7519V24.84C33.4148 26.9819 31.7597 28.7179 29.7175 28.7179H6.27316C4.231 28.7179 2.57593 26.9819 2.57593 24.84V11.7519C2.57593 9.61006 4.231 7.87405 6.27316 7.87405H29.7175C31.7597 7.87405 33.4148 9.61006 33.4148 11.7519Z" fill="#FFDB71"/>
<path d="M33.4147 11.7519V24.84C33.4147 26.9819 31.7057 28.7179 29.5967 28.7179H8.10296C5.9916 28.7179 4.28491 26.9819 4.28491 24.84V11.7519C4.28491 9.61006 5.99394 7.87405 8.10296 7.87405H29.5967C31.7057 7.87405 33.4147 9.61006 33.4147 11.7519Z" fill="#FECF37"/>
<path d="M29.8182 13.8363V21.4267C29.8182 23.0383 28.5749 24.345 27.0418 24.345H9.05647C7.52222 24.345 6.28003 23.0383 6.28003 21.4267V13.8363C6.28003 12.2246 7.52222 10.9179 9.05647 10.9179H27.05C28.5772 10.9132 29.8182 12.2246 29.8182 13.8363Z" fill="#FFDB71"/>
<path d="M29.8183 13.8363V20.5528C29.8183 22.1645 28.575 23.4712 27.0419 23.4712H10.1698C8.6355 23.4712 7.39331 22.1645 7.39331 20.5528V13.8363C7.39331 12.2246 8.6355 10.9179 10.1698 10.9179H27.0442C28.5773 10.9132 29.8183 12.2246 29.8183 13.8363Z" fill="#FFDB71"/>
<path d="M26.452 11.6276H10.639C9.20216 11.6276 8.03735 12.7924 8.03735 14.2293V20.995C8.03735 22.4319 9.20216 23.5967 10.639 23.5967H26.452C27.8888 23.5967 29.0536 22.4319 29.0536 20.995V14.2293C29.0536 12.7924 27.8888 11.6276 26.452 11.6276Z" fill="#B9E3FB"/>
<path d="M26.4518 11.6276H9.5902C8.15333 11.6276 6.98853 12.7924 6.98853 14.2293V20.995C6.98853 22.4319 8.15333 23.5967 9.5902 23.5967H26.4518C27.8886 23.5967 29.0535 22.4319 29.0535 20.995V14.2293C29.0535 12.7924 27.8886 11.6276 26.4518 11.6276Z" fill="#B9E3FB"/>
<path d="M26.452 11.6276H10.639C9.20216 11.6276 8.03735 12.7924 8.03735 14.2293V20.2162C8.03735 21.653 9.20216 22.8178 10.639 22.8178H26.452C27.8888 22.8178 29.0536 21.653 29.0536 20.2162V14.2293C29.0536 12.7924 27.8888 11.6276 26.452 11.6276Z" fill="#D4EFFA"/>
<path d="M19.6262 19.5686C19.6004 19.6132 19.089 20.4836 18.0697 20.507C17.7348 20.5151 17.4041 20.4321 17.1128 20.2668C16.8215 20.1015 16.5806 19.8602 16.4158 19.5686" stroke="#F45C69" stroke-width="1.40479" stroke-linecap="round" stroke-linejoin="round"/>
<path d="M20.607 2.58508C20.6078 3.1719 20.4093 3.74158 20.0439 4.20075C19.6785 4.65992 19.1679 4.98132 18.5959 5.11226C18.0239 5.2432 17.4243 5.17592 16.8956 4.92144C16.3668 4.66696 15.9402 4.24039 15.6857 3.71165C15.4311 3.18291 15.3638 2.58339 15.4947 2.01136C15.6255 1.43932 15.9469 0.928733 16.406 0.563287C16.8652 0.197842 17.4348 -0.000773508 18.0216 2.26397e-06C18.6084 0.000778036 19.1776 0.200899 19.6358 0.567558C19.9388 0.809305 20.1834 1.11621 20.3516 1.46549C20.5197 1.81477 20.607 2.19744 20.607 2.58508Z" fill="#29607F"/>
<path d="M20.6068 2.58506C20.6078 2.96699 20.524 3.34438 20.3615 3.69C20.199 4.03562 19.9618 4.34086 19.667 4.5837C19.3722 4.82653 19.0272 5.0009 18.6568 5.09423C18.2865 5.18756 17.9001 5.19752 17.5254 5.12339C17.0692 4.76405 16.7476 4.26137 16.6125 3.69662C16.4775 3.13187 16.5368 2.53807 16.781 2.01122C17.0251 1.48437 17.4398 1.05527 17.9581 0.793288C18.4763 0.53131 19.0677 0.451772 19.6368 0.567533C19.9396 0.809398 20.184 1.11636 20.3519 1.46563C20.5199 1.8149 20.607 2.19751 20.6068 2.58506Z" fill="#307197"/>
<path d="M12.7504 15.9394V17.157C12.7511 17.2914 12.7068 17.4222 12.6245 17.5285C12.5422 17.6348 12.4267 17.7105 12.2964 17.7435C12.2077 17.7655 12.1152 17.7669 12.0258 17.7477C11.9365 17.7284 11.8527 17.689 11.781 17.6324C11.7092 17.5758 11.6513 17.5035 11.6118 17.4211C11.5722 17.3387 11.552 17.2484 11.5528 17.157V15.9394C11.5596 15.7852 11.6257 15.6396 11.7372 15.5328C11.8488 15.4261 11.9972 15.3666 12.1516 15.3666C12.3059 15.3666 12.4544 15.4261 12.5659 15.5328C12.6775 15.6396 12.7435 15.7852 12.7504 15.9394Z" fill="#09888E"/>
<path d="M12.7501 15.9394V17.157C12.7509 17.2914 12.7065 17.4222 12.6243 17.5285C12.542 17.6348 12.4265 17.7105 12.2962 17.7435C12.1655 17.7111 12.0495 17.6356 11.9669 17.5292C11.8843 17.4228 11.84 17.2917 11.8411 17.157V15.9394C11.84 15.8048 11.8843 15.6737 11.9669 15.5673C12.0495 15.4609 12.1655 15.3854 12.2962 15.353C12.4264 15.3861 12.5418 15.4619 12.624 15.5681C12.7063 15.6744 12.7506 15.8051 12.7501 15.9394Z" fill="#08ABBA"/>
<path d="M24.2208 15.9394V17.157C24.2215 17.2914 24.1772 17.4222 24.0949 17.5285C24.0127 17.6348 23.8972 17.7105 23.7669 17.7435C23.6782 17.7655 23.5856 17.7669 23.4963 17.7477C23.4069 17.7284 23.3232 17.689 23.2514 17.6324C23.1797 17.5758 23.1218 17.5035 23.0822 17.4211C23.0427 17.3387 23.0225 17.2484 23.0232 17.157V15.9394C23.03 15.7852 23.0961 15.6396 23.2077 15.5328C23.3192 15.4261 23.4676 15.3666 23.622 15.3666C23.7764 15.3666 23.9248 15.4261 24.0364 15.5328C24.1479 15.6396 24.214 15.7852 24.2208 15.9394Z" fill="#09888E"/>
<path d="M24.2208 15.9394V17.157C24.2386 17.2263 24.2402 17.2987 24.2257 17.3688C24.2112 17.4388 24.1808 17.5046 24.1369 17.5611C24.0931 17.6176 24.0369 17.6633 23.9727 17.6948C23.9084 17.7262 23.8378 17.7426 23.7663 17.7426C23.6948 17.7426 23.6242 17.7262 23.56 17.6948C23.4957 17.6633 23.4395 17.6176 23.3957 17.5611C23.3518 17.5046 23.3215 17.4388 23.3069 17.3688C23.2924 17.2987 23.294 17.2263 23.3118 17.157V15.9394C23.303 15.8746 23.3083 15.8087 23.3271 15.7461C23.346 15.6834 23.378 15.6256 23.421 15.5763C23.4641 15.5271 23.5172 15.4876 23.5767 15.4606C23.6363 15.4336 23.7009 15.4196 23.7663 15.4196C23.8317 15.4196 23.8964 15.4336 23.9559 15.4606C24.0155 15.4876 24.0685 15.5271 24.1116 15.5763C24.1546 15.6256 24.1867 15.6834 24.2055 15.7461C24.2243 15.8087 24.2296 15.8746 24.2208 15.9394Z" fill="#08ABBA"/>
<path d="M12.3869 15.7834H12.3493C12.3092 15.7834 12.2766 15.816 12.2766 15.8561V16.113C12.2766 16.1532 12.3092 16.1857 12.3493 16.1857H12.3869C12.427 16.1857 12.4596 16.1532 12.4596 16.113V15.8561C12.4596 15.816 12.427 15.7834 12.3869 15.7834Z" fill="#FAFFFF"/>
<path d="M23.7858 15.7834H23.7483C23.7081 15.7834 23.6755 15.816 23.6755 15.8561V16.113C23.6755 16.1532 23.7081 16.1857 23.7483 16.1857H23.7858C23.826 16.1857 23.8585 16.1532 23.8585 16.113V15.8561C23.8585 15.816 23.826 15.7834 23.7858 15.7834Z" fill="#FAFFFF"/>
<path d="M26.6623 17.971L25.0573 18.8976C24.8985 18.9893 24.844 19.1921 24.9355 19.3506C25.027 19.5091 25.2299 19.5632 25.3886 19.4716L26.9936 18.5449C27.1524 18.4533 27.2069 18.2505 27.1154 18.092C27.0239 17.9335 26.821 17.8793 26.6623 17.971Z" fill="white"/>
<path d="M27.276 19.1894L25.671 20.1161C25.5123 20.2078 25.4577 20.4106 25.5492 20.569C25.6407 20.7275 25.8436 20.7817 26.0024 20.69L27.6074 19.7634C27.7662 19.6717 27.8207 19.4689 27.7292 19.3104C27.6377 19.1519 27.4348 19.0978 27.276 19.1894Z" fill="white"/>
<path d="M9.54037 18.54L11.1454 19.4667C11.3042 19.5583 11.507 19.5042 11.5985 19.3457C11.69 19.1872 11.6355 18.9844 11.4767 18.8927L9.87174 17.9661C9.71296 17.8744 9.51008 17.9286 9.41857 18.0871C9.32707 18.2456 9.3816 18.4483 9.54037 18.54Z" fill="white"/>
<path d="M8.92489 19.7596L10.5299 20.6862C10.6887 20.7779 10.8916 20.7237 10.9831 20.5652C11.0746 20.4067 11.02 20.2039 10.8613 20.1123L9.25626 19.1856C9.09749 19.0939 8.8946 19.1481 8.8031 19.3066C8.71159 19.4651 8.76612 19.6679 8.92489 19.7596Z" fill="white"/>
</svg>
