<svg width="29" height="29" viewBox="0 0 29 29" fill="none" xmlns="http://www.w3.org/2000/svg">
<path d="M14.5 29C10.6269 29 6.98566 27.4917 4.24691 24.7531C1.50828 22.0143 0 18.3731 0 14.5C0 10.6269 1.50828 6.98566 4.24691 4.24691C6.98566 1.50828 10.6269 0 14.5 0C18.3731 0 22.0143 1.50828 24.7531 4.24691C27.4917 6.98566 29 10.6269 29 14.5C29 18.3731 27.4917 22.0143 24.7531 24.7531C22.0143 27.4917 18.3731 29 14.5 29Z" fill="#FFD159"/>
<path d="M14.4369 20.16C13.4983 20.16 12.6983 20.0107 12.0369 19.712C11.3863 19.4133 10.8956 19.04 10.5649 18.592C10.2449 18.1333 10.0743 17.664 10.0529 17.184C10.0529 17.088 10.0849 17.0133 10.1489 16.96C10.2236 16.896 10.3089 16.864 10.4049 16.864H11.8449C12.0796 16.864 12.2343 16.9707 12.3089 17.184C12.5436 17.952 13.2583 18.336 14.4529 18.336C15.1036 18.336 15.6156 18.1867 15.9889 17.888C16.3623 17.5787 16.5489 17.1413 16.5489 16.576C16.5489 15.5093 15.8823 14.976 14.5489 14.976H12.9009C12.7836 14.976 12.6876 14.9387 12.6129 14.864C12.5383 14.7893 12.5009 14.6987 12.5009 14.592V13.92C12.5009 13.7493 12.5756 13.5893 12.7249 13.44L15.5889 10.64H11.0129C10.9063 10.64 10.8156 10.6027 10.7409 10.528C10.6663 10.4533 10.6289 10.3627 10.6289 10.256V9.2C10.6289 9.08267 10.6609 8.98667 10.7249 8.912C10.7996 8.83733 10.8956 8.8 11.0129 8.8H17.8769C17.9943 8.8 18.0903 8.83733 18.1649 8.912C18.2396 8.98667 18.2769 9.08267 18.2769 9.2V10.16C18.2769 10.32 18.2076 10.4693 18.0689 10.608L15.3009 13.456L15.4929 13.472C16.5169 13.5573 17.3276 13.8667 17.9249 14.4C18.5329 14.9333 18.8369 15.696 18.8369 16.688C18.8369 17.392 18.6449 18.0053 18.2609 18.528C17.8876 19.0507 17.3649 19.456 16.6929 19.744C16.0316 20.0213 15.2796 20.16 14.4369 20.16Z" fill="#0B132A"/>
</svg>
