<svg width="29" height="29" viewBox="0 0 29 29" fill="none" xmlns="http://www.w3.org/2000/svg">
<path d="M14.5 29C10.6269 29 6.98566 27.4917 4.24691 24.7531C1.50828 22.0143 0 18.3731 0 14.5C0 10.6269 1.50828 6.98566 4.24691 4.24691C6.98566 1.50828 10.6269 0 14.5 0C18.3731 0 22.0143 1.50828 24.7531 4.24691C27.4917 6.98566 29 10.6269 29 14.5C29 18.3731 27.4917 22.0143 24.7531 24.7531C22.0143 27.4917 18.3731 29 14.5 29Z" fill="#FFD159"/>
<path d="M14.7289 20C14.6222 20 14.5315 19.9627 14.4569 19.888C14.3822 19.8133 14.3449 19.7227 14.3449 19.616V11.328L11.9129 13.2C11.8489 13.2533 11.7742 13.28 11.6889 13.28C11.5609 13.28 11.4542 13.2213 11.3689 13.104L10.6969 12.24C10.6435 12.1547 10.6169 12.0747 10.6169 12C10.6169 11.872 10.6755 11.7653 10.7929 11.68L14.3769 8.912C14.4729 8.83733 14.6062 8.8 14.7769 8.8H16.1849C16.3022 8.8 16.3929 8.83733 16.4569 8.912C16.5315 8.976 16.5689 9.06667 16.5689 9.184V19.616C16.5689 19.7227 16.5315 19.8133 16.4569 19.888C16.3929 19.9627 16.3022 20 16.1849 20H14.7289Z" fill="#0B132A"/>
</svg>
