<svg width="29" height="29" viewBox="0 0 29 29" fill="none" xmlns="http://www.w3.org/2000/svg">
<path d="M14.5 29C10.6269 29 6.98566 27.4917 4.24691 24.7531C1.50828 22.0143 0 18.3731 0 14.5C0 10.6269 1.50828 6.98566 4.24691 4.24691C6.98566 1.50828 10.6269 0 14.5 0C18.3731 0 22.0143 1.50828 24.7531 4.24691C27.4917 6.98566 29 10.6269 29 14.5C29 18.3731 27.4917 22.0143 24.7531 24.7531C22.0143 27.4917 18.3731 29 14.5 29Z" fill="#FFD159"/>
<path d="M10.1509 20C10.0442 20 9.95354 19.9627 9.87888 19.888C9.80421 19.8133 9.76688 19.7227 9.76688 19.616V18.8C9.76688 18.512 9.90021 18.2613 10.1669 18.048L12.6949 15.536C13.7935 14.672 14.5562 14 14.9829 13.52C15.4202 13.0293 15.6389 12.5493 15.6389 12.08C15.6389 11.5787 15.5002 11.184 15.2229 10.896C14.9562 10.608 14.5509 10.464 14.0069 10.464C13.4735 10.464 13.0522 10.624 12.7429 10.944C12.4335 11.2533 12.2415 11.6587 12.1669 12.16C12.1349 12.288 12.0762 12.384 11.9909 12.448C11.9055 12.5013 11.8095 12.528 11.7029 12.528H10.2789C10.1829 12.528 10.1029 12.496 10.0389 12.432C9.97488 12.368 9.94288 12.2933 9.94288 12.208C9.96421 11.5787 10.1349 10.992 10.4549 10.448C10.7749 9.89333 11.2389 9.45067 11.8469 9.12C12.4549 8.77867 13.1695 8.608 13.9909 8.608C14.8442 8.608 15.5642 8.75733 16.1509 9.056C16.7482 9.344 17.1962 9.744 17.4949 10.256C17.7935 10.768 17.9429 11.3493 17.9429 12C17.9429 12.7147 17.7402 13.36 17.3349 13.936C16.9402 14.512 16.3322 15.1307 15.5109 15.792L13.2389 18.096H17.7989C17.9162 18.096 18.0069 18.1333 18.0709 18.208C18.1455 18.272 18.1829 18.3627 18.1829 18.48V19.616C18.1829 19.7227 18.1455 19.8133 18.0709 19.888C18.0069 19.9627 17.9162 20 17.7989 20H10.1509Z" fill="#0B132A"/>
</svg>
