<svg width="29" height="29" viewBox="0 0 29 29" fill="none" xmlns="http://www.w3.org/2000/svg">
<path d="M14.5 29C10.6269 29 6.98566 27.4917 4.24691 24.7531C1.50828 22.0143 0 18.3731 0 14.5C0 10.6269 1.50828 6.98566 4.24691 4.24691C6.98566 1.50828 10.6269 0 14.5 0C18.3731 0 22.0143 1.50828 24.7531 4.24691C27.4917 6.98566 29 10.6269 29 14.5C29 18.3731 27.4917 22.0143 24.7531 24.7531C22.0143 27.4917 18.3731 29 14.5 29Z" fill="#FFD159"/>
<path d="M15.6013 21C15.4946 21 15.4039 20.9627 15.3293 20.888C15.2546 20.8133 15.2173 20.7227 15.2173 20.616V18.568H10.1453C10.0386 18.568 9.94792 18.5307 9.87325 18.456C9.79858 18.3813 9.76125 18.2907 9.76125 18.184V17.096C9.76125 16.9253 9.81992 16.7653 9.93725 16.616L14.6573 10.072C14.7106 9.98667 14.7906 9.92267 14.8973 9.88C15.0039 9.82667 15.1213 9.8 15.2493 9.8H16.9933C17.1106 9.8 17.2013 9.83733 17.2653 9.912C17.3399 9.976 17.3773 10.0667 17.3773 10.184V16.68H18.8013C18.9186 16.68 19.0146 16.7173 19.0893 16.792C19.1639 16.856 19.2013 16.9467 19.2013 17.064V18.184C19.2013 18.2907 19.1639 18.3813 19.0893 18.456C19.0146 18.5307 18.9239 18.568 18.8173 18.568H17.3773V20.616C17.3773 20.7227 17.3399 20.8133 17.2653 20.888C17.2013 20.9627 17.1106 21 16.9933 21H15.6013ZM15.2653 16.744V12.12L11.9853 16.744H15.2653Z" fill="#0B132A"/>
</svg>
