<svg width="28" height="28" viewBox="0 0 28 28" fill="none" xmlns="http://www.w3.org/2000/svg">
<path d="M23.8 28H4.2C3.08609 28 2.0178 27.5575 1.23015 26.7698C0.442499 25.9822 0 24.9139 0 23.8V1.4C0 1.0287 0.1475 0.672601 0.41005 0.41005C0.672601 0.1475 1.0287 0 1.4 0H21C21.3713 0 21.7274 0.1475 21.99 0.41005C22.2525 0.672601 22.4 1.0287 22.4 1.4V18.2H28V23.8C28 24.9139 27.5575 25.9822 26.7698 26.7698C25.9822 27.5575 24.9139 28 23.8 28ZM22.4 21V23.8C22.4 24.1713 22.5475 24.5274 22.81 24.7899C23.0726 25.0525 23.4287 25.2 23.8 25.2C24.1713 25.2 24.5274 25.0525 24.7899 24.7899C25.0525 24.5274 25.2 24.1713 25.2 23.8V21H22.4ZM19.6 25.2V2.8H2.8V23.8C2.8 24.1713 2.9475 24.5274 3.21005 24.7899C3.4726 25.0525 3.8287 25.2 4.2 25.2H19.6ZM5.6 7H16.8V9.8H5.6V7ZM5.6 12.6H16.8V15.4H5.6V12.6ZM5.6 18.2H12.6V21H5.6V18.2Z" fill="#FFC021"/>
</svg>
