<svg width="110" height="130" viewBox="0 0 110 130" fill="none" xmlns="http://www.w3.org/2000/svg">
<g clip-path="url(#clip0_133_2978)">
<path d="M107.755 23.632H60.944C59.6455 23.632 58.5928 24.6847 58.5928 25.9832V78.4945C58.5928 79.7931 59.6455 80.8457 60.944 80.8457H107.755C109.053 80.8457 110.106 79.7931 110.106 78.4945V25.9832C110.106 24.6847 109.053 23.632 107.755 23.632Z" fill="#EBF6FC"/>
<path d="M100.349 44.7799H65.7168C64.6299 44.7799 63.7488 45.661 63.7488 46.7479V46.7506C63.7488 47.8375 64.6299 48.7186 65.7168 48.7186H100.349C101.436 48.7186 102.317 47.8375 102.317 46.7506V46.7479C102.317 45.661 101.436 44.7799 100.349 44.7799Z" fill="#B9E3FB"/>
<path d="M88.6138 57.2737H64.1189C63.032 57.2737 62.1509 58.1548 62.1509 59.2417V59.2443C62.1509 60.3312 63.032 61.2123 64.1189 61.2123H88.6138C89.7007 61.2123 90.5818 60.3312 90.5818 59.2443V59.2417C90.5818 58.1548 89.7007 57.2737 88.6138 57.2737Z" fill="#B9E3FB"/>
<path d="M95.0965 32.2835H65.7168C64.6299 32.2835 63.7488 33.1647 63.7488 34.2516V34.2542C63.7488 35.3411 64.6299 36.2222 65.7168 36.2222H95.0965C96.1835 36.2222 97.0646 35.3411 97.0646 34.2542V34.2516C97.0646 33.1647 96.1835 32.2835 95.0965 32.2835Z" fill="#B9E3FB"/>
<path d="M11.4173 64.8512C11.4166 66.3277 10.8464 67.747 9.82543 68.8136C8.80449 69.8802 7.41149 70.512 5.93645 70.5773C4.46142 70.6427 3.01802 70.1366 1.90676 69.1644C0.795509 68.1922 0.102041 66.8289 -0.0292658 65.3583C-0.160572 63.8876 0.280403 62.423 1.20185 61.2694C2.1233 60.1157 3.45421 59.3619 4.91749 59.1649C6.38076 58.9679 7.86365 59.3428 9.0574 60.2117C10.2512 61.0806 11.0638 62.3764 11.3261 63.8294C11.387 64.1666 11.4175 64.5086 11.4173 64.8512Z" fill="#29607F"/>
<path d="M11.3131 63.8294C11.0881 65.1666 10.3965 66.3807 9.36124 67.2564C8.32594 68.132 7.01386 68.6125 5.65791 68.6125C4.30196 68.6125 2.98988 68.132 1.95458 67.2564C0.91928 66.3807 0.227748 65.1666 0.00274658 63.8294C0.227748 62.4923 0.91928 61.2781 1.95458 60.4025C2.98988 59.5268 4.30196 59.0464 5.65791 59.0464C7.01386 59.0464 8.32594 59.5268 9.36124 60.4025C10.3965 61.2781 11.0881 62.4923 11.3131 63.8294Z" fill="#307197"/>
<path d="M79.9388 64.8512C79.9381 66.3277 79.3679 67.747 78.3469 68.8136C77.326 69.8802 75.933 70.512 74.4579 70.5773C72.9829 70.6427 71.5395 70.1366 70.4282 69.1644C69.317 68.1922 68.6235 66.8289 68.4922 65.3583C68.3609 63.8876 68.8019 62.423 69.7233 61.2694C70.6448 60.1157 71.9757 59.3619 73.439 59.1649C74.9022 58.9679 76.3851 59.3428 77.5789 60.2117C78.7726 61.0806 79.5853 62.3764 79.8476 63.8294C79.9085 64.1666 79.939 64.5086 79.9388 64.8512Z" fill="#29607F"/>
<path d="M79.8476 63.8294C79.6226 65.1666 78.931 66.3807 77.8957 67.2564C76.8604 68.132 75.5483 68.6125 74.1924 68.6125C72.8364 68.6125 71.5244 68.132 70.4891 67.2564C69.4538 66.3807 68.7622 65.1666 68.5372 63.8294C68.7622 62.4923 69.4538 61.2781 70.4891 60.4025C71.5244 59.5268 72.8364 59.0464 74.1924 59.0464C75.5483 59.0464 76.8604 59.5268 77.8957 60.4025C78.931 61.2781 79.6226 62.4923 79.8476 63.8294Z" fill="#307197"/>
<path d="M39.9838 42.2436V35.2578" stroke="#F45C69" stroke-width="1.30333" stroke-linecap="round" stroke-linejoin="round"/>
<path d="M74.1911 51.1297V80.2149C74.1911 84.9747 70.5131 88.8326 65.9749 88.8326H13.8755C9.33725 88.8326 5.65924 84.9747 5.65924 80.2149V51.1297C5.65924 46.37 9.33725 42.5121 13.8755 42.5121H65.9749C70.5131 42.5121 74.1911 46.37 74.1911 51.1297Z" fill="#FFDB71"/>
<path d="M74.1911 51.1297V80.2149C74.1911 84.9747 70.3932 88.8326 65.7064 88.8326H17.934C13.242 88.8326 9.44931 84.9747 9.44931 80.2149V51.1297C9.44931 46.37 13.2472 42.5121 17.934 42.5121H65.7064C70.3932 42.5121 74.1911 46.37 74.1911 51.1297Z" fill="#FECF37"/>
<path d="M66.2042 55.7618V72.6295C66.2042 76.2111 63.4438 79.1149 60.0343 79.1149H20.048C16.6385 79.1149 13.878 76.2111 13.878 72.6295V55.7618C13.878 52.1802 16.6307 49.266 20.048 49.266H60.0343C63.4438 49.266 66.2042 52.1802 66.2042 55.7618Z" fill="#FFDB71"/>
<path d="M66.2043 55.7618V70.6876C66.2043 74.2691 63.4438 77.173 60.0343 77.173H22.5348C19.1279 77.173 16.3648 74.2691 16.3648 70.6876V55.7618C16.3648 52.1803 19.1279 49.2764 22.5348 49.2764H60.0343C63.4438 49.266 66.2043 52.1803 66.2043 55.7618Z" fill="#FFDB71"/>
<path d="M58.7179 50.8534H23.5775C20.3844 50.8534 17.7959 53.4419 17.7959 56.635V71.6703C17.7959 74.8633 20.3844 77.4519 23.5775 77.4519H58.7179C61.911 77.4519 64.4995 74.8633 64.4995 71.6703V56.635C64.4995 53.4419 61.911 50.8534 58.7179 50.8534Z" fill="#B9E3FB"/>
<path d="M58.7179 50.8534H21.2471C18.054 50.8534 15.4655 53.4419 15.4655 56.635V71.6703C15.4655 74.8633 18.054 77.4519 21.2471 77.4519H58.7179C61.911 77.4519 64.4995 74.8633 64.4995 71.6703V56.635C64.4995 53.4419 61.911 50.8534 58.7179 50.8534Z" fill="#B9E3FB"/>
<path d="M58.7179 50.8534H23.5775C20.3844 50.8534 17.7959 53.4419 17.7959 56.635V69.9394C17.7959 73.1325 20.3844 75.721 23.5775 75.721H58.7179C61.911 75.721 64.4995 73.1325 64.4995 69.9394V56.635C64.4995 53.4419 61.911 50.8534 58.7179 50.8534Z" fill="#D4EFFA"/>
<path d="M43.5497 68.5006C43.4924 68.5996 42.3559 70.5338 40.0907 70.5859C39.3469 70.6042 38.6122 70.4199 37.9652 70.0525C37.3182 69.6852 36.7833 69.1487 36.4179 68.5006" stroke="#F45C69" stroke-width="1.30333" stroke-linecap="round" stroke-linejoin="round"/>
<path d="M45.7289 30.7586C45.7308 32.0627 45.2895 33.3287 44.4775 34.3491C43.6655 35.3695 42.5309 36.0837 41.2597 36.3747C39.9886 36.6657 38.6562 36.5162 37.4812 35.9506C36.3061 35.3851 35.3581 34.4372 34.7924 33.2622C34.2268 32.0872 34.0772 30.7549 34.368 29.4837C34.6589 28.2125 35.373 27.0778 36.3933 26.2657C37.4136 25.4536 38.6796 25.0122 39.9836 25.0139C41.2877 25.0156 42.5524 25.4604 43.5706 26.2752C44.244 26.8124 44.7877 27.4944 45.1614 28.2706C45.535 29.0468 45.729 29.8972 45.7289 30.7586Z" fill="#29607F"/>
<path d="M45.7289 30.7586C45.7312 31.6074 45.545 32.446 45.1838 33.2141C44.8227 33.9822 44.2955 34.6605 43.6404 35.2001C42.9853 35.7398 42.2186 36.1273 41.3956 36.3347C40.5726 36.5421 39.7138 36.5642 38.8812 36.3995C37.8675 35.6009 37.1528 34.4838 36.8526 33.2288C36.5524 31.9738 36.6843 30.6542 37.2269 29.4834C37.7695 28.3126 38.6911 27.359 39.8427 26.7769C40.9943 26.1947 42.3087 26.0179 43.5732 26.2752C44.2461 26.8127 44.7893 27.4948 45.1625 28.271C45.5357 29.0472 45.7293 29.8974 45.7289 30.7586Z" fill="#307197"/>
<path d="M28.2694 60.4355V63.1413C28.271 63.44 28.1725 63.7306 27.9897 63.9668C27.8069 64.203 27.5502 64.3712 27.2607 64.4446C27.0635 64.4935 26.8578 64.4967 26.6593 64.4539C26.4608 64.4111 26.2746 64.3234 26.1152 64.1977C25.9557 64.0719 25.8271 63.9113 25.7392 63.7282C25.6513 63.5451 25.6064 63.3444 25.608 63.1413V60.4355C25.6232 60.0928 25.77 59.7691 26.0179 59.532C26.2658 59.2948 26.5957 59.1624 26.9387 59.1624C27.2818 59.1624 27.6117 59.2948 27.8596 59.532C28.1074 59.7691 28.2543 60.0928 28.2694 60.4355Z" fill="#09888E"/>
<path d="M28.2695 60.4355V63.1413C28.2711 63.44 28.1726 63.7306 27.9897 63.9668C27.8069 64.203 27.5503 64.3712 27.2607 64.4446C26.9702 64.3726 26.7124 64.2048 26.5289 63.9683C26.3455 63.7319 26.247 63.4405 26.2493 63.1413V60.4355C26.247 60.1363 26.3455 59.8449 26.5289 59.6084C26.7124 59.372 26.9702 59.2042 27.2607 59.1322C27.55 59.206 27.8064 59.3743 27.9892 59.6104C28.172 59.8465 28.2706 60.1369 28.2695 60.4355Z" fill="#08ABBA"/>
<path d="M20.439 95.0026H59.2601C61.3604 95.0026 63.3746 95.8369 64.8597 97.322C66.3448 98.8071 67.1792 100.821 67.1792 102.922V123.181C67.1792 125.077 66.4259 126.896 65.0851 128.237C63.7443 129.579 61.9256 130.333 60.0291 130.333H19.6701C17.773 130.333 15.9537 129.58 14.6123 128.238C13.2709 126.897 12.5174 125.078 12.5174 123.181V102.922C12.5174 101.881 12.7223 100.851 13.1204 99.8905C13.5185 98.9296 14.1021 98.0565 14.8377 97.3211C15.5734 96.5857 16.4466 96.0024 17.4077 95.6046C18.3688 95.2068 19.3989 95.0022 20.439 95.0026Z" fill="#EBF6FC"/>
<path d="M44.8504 95.1199H34.9998V130.333H44.8504V95.1199Z" fill="#99CCD0"/>
<path d="M53.7626 60.4355V63.1413C53.7642 63.44 53.6657 63.7306 53.4829 63.9668C53.3001 64.203 53.0434 64.3712 52.7539 64.4446C52.5567 64.4935 52.351 64.4967 52.1525 64.4539C51.954 64.4111 51.7678 64.3234 51.6084 64.1977C51.4489 64.0719 51.3203 63.9113 51.2324 63.7282C51.1445 63.5451 51.0996 63.3444 51.1012 63.1413V60.4355C51.1164 60.0928 51.2632 59.7691 51.5111 59.532C51.759 59.2948 52.0889 59.1624 52.4319 59.1624C52.775 59.1624 53.1049 59.2948 53.3527 59.532C53.6006 59.7691 53.7475 60.0928 53.7626 60.4355Z" fill="#09888E"/>
<path d="M53.7626 60.4355V63.1413C53.7642 63.44 53.6657 63.7306 53.4829 63.9668C53.3001 64.203 53.0434 64.3712 52.7539 64.4446C52.4634 64.3726 52.2056 64.2048 52.0221 63.9683C51.8386 63.7319 51.7401 63.4405 51.7425 63.1413V60.4355C51.7401 60.1363 51.8386 59.8449 52.0221 59.6084C52.2056 59.372 52.4634 59.2042 52.7539 59.1322C53.0432 59.206 53.2996 59.3743 53.4824 59.6104C53.6651 59.8465 53.7638 60.1369 53.7626 60.4355Z" fill="#08ABBA"/>
<path d="M39.9238 98.1488C39.9238 98.1488 34.9998 102.413 34.9998 102.213V95.1199L39.9238 98.1488Z" fill="#84AEAF"/>
<path d="M39.9239 98.1488C39.9239 98.1488 44.8505 102.413 44.8505 102.213V95.1199L39.9239 98.1488Z" fill="#84AEAF"/>
<path d="M27.4614 60.0889H27.378C27.2887 60.0889 27.2164 60.1612 27.2164 60.2505V60.8213C27.2164 60.9106 27.2887 60.983 27.378 60.983H27.4614C27.5507 60.983 27.623 60.9106 27.623 60.8213V60.2505C27.623 60.1612 27.5507 60.0889 27.4614 60.0889Z" fill="#FAFFFF"/>
<path d="M52.793 60.0889H52.7096C52.6203 60.0889 52.548 60.1612 52.548 60.2505V60.8213C52.548 60.9106 52.6203 60.983 52.7096 60.983H52.793C52.8823 60.983 52.9546 60.9106 52.9546 60.8213V60.2505C52.9546 60.1612 52.8823 60.0889 52.793 60.0889Z" fill="#FAFFFF"/>
<path d="M34.9998 88.8326H44.8504V94.7367C44.8504 95.6416 44.4909 96.5095 43.8511 97.1494C43.2112 97.7893 42.3433 98.1488 41.4383 98.1488H38.412C37.507 98.1488 36.6391 97.7893 35.9992 97.1494C35.3593 96.5095 34.9998 95.6416 34.9998 94.7367V88.8326Z" fill="#29607F"/>
<path d="M44.8505 89.1845V95.9253C44.8505 97.1531 43.3308 98.1462 41.4618 98.1462H38.3338C37.703 98.1462 37.1947 97.8125 37.1947 97.4007V88.8326H44.3135C44.608 88.8326 44.8505 88.989 44.8505 89.1845Z" fill="#29607F"/>
<path d="M44.8505 91.1134V95.9253C44.8505 97.1531 43.3308 98.1462 41.4618 98.1462H38.3338C37.703 98.1462 37.1947 97.8125 37.1947 97.4007V91.1134C37.1947 90.9205 37.4345 90.7615 37.7316 90.7615H44.3135C44.608 90.7615 44.8505 90.9205 44.8505 91.1134Z" fill="#307197"/>
<path d="M26.8045 95.0026H24.8078V103.388H26.8045V95.0026Z" fill="#307197"/>
<path d="M48.9299 95.0026L51.4375 106.352L46.6647 105.752L50.2567 110.523L46.6673 130.333H44.8427V95.0026H48.9299Z" fill="#F8FDFF"/>
<path d="M30.923 95.0026L28.4128 106.352L33.1856 105.752L29.5962 110.523L33.1856 130.333H35.0103V95.0026H30.923Z" fill="#F8FDFF"/>
<path d="M55.2484 95.0026H53.2517V103.388H55.2484V95.0026Z" fill="#307197"/>
<path d="M55.2537 102.218H53.257V106H55.2537V102.218Z" fill="#209CB4"/>
<path d="M25.8062 107.116C27.0932 107.116 28.1365 106.072 28.1365 104.785C28.1365 103.498 27.0932 102.455 25.8062 102.455C24.5191 102.455 23.4758 103.498 23.4758 104.785C23.4758 106.072 24.5191 107.116 25.8062 107.116Z" fill="#209CB4"/>
<path d="M50.8901 111.844C50.5721 112.788 49.5477 115.976 49.4877 119.067C49.4442 120.25 49.5822 121.432 49.897 122.573C50.0631 123.138 50.2785 123.686 50.5408 124.213L49.8031 124.703C49.4683 123.992 49.2063 123.249 49.0211 122.485C48.7692 121.369 48.6701 120.225 48.7266 119.083C48.823 116.033 49.6337 113.038 50.0299 111.74" fill="#CEEAEB"/>
<path d="M49.1163 123.733L49.6137 124.968C49.7336 125.266 50.0723 125.41 50.3701 125.29L50.711 125.153C51.0088 125.033 51.153 124.695 51.0331 124.397L50.5357 123.161C50.4158 122.863 50.0772 122.719 49.7794 122.839L49.4384 122.976C49.1406 123.096 48.9964 123.435 49.1163 123.733Z" fill="#209CB4"/>
<path d="M25.8061 106.339C26.6641 106.339 27.3597 105.643 27.3597 104.785C27.3597 103.927 26.6641 103.232 25.8061 103.232C24.9481 103.232 24.2526 103.927 24.2526 104.785C24.2526 105.643 24.9481 106.339 25.8061 106.339Z" fill="#CEEAEB"/>
<path d="M54.3387 104.754C54.6405 104.735 54.9412 104.807 55.2021 104.959C55.4631 105.112 55.6725 105.339 55.8037 105.612L58.6319 111.37C58.6721 111.453 58.6905 111.545 58.6855 111.637C58.6804 111.729 58.6521 111.818 58.6031 111.896C58.5541 111.974 58.4861 112.039 58.4055 112.084C58.3248 112.128 58.2341 112.152 58.1419 112.152H57.6023C57.4929 112.152 57.386 112.119 57.2954 112.058C57.2048 111.996 57.1346 111.909 57.094 111.808C56.3711 109.985 55.6482 108.16 54.9252 106.334C54.8953 106.254 54.8461 106.182 54.7819 106.125C54.6733 106.034 54.5376 105.982 54.3961 105.977" fill="#209CB4"/>
<path d="M53.9529 104.754C53.6512 104.735 53.3507 104.807 53.0898 104.96C52.8289 105.112 52.6194 105.339 52.488 105.612L49.6598 111.37C49.6196 111.453 49.6012 111.545 49.6062 111.637C49.6113 111.729 49.6396 111.818 49.6886 111.896C49.7375 111.974 49.8055 112.039 49.8862 112.084C49.9669 112.128 50.0576 112.152 50.1498 112.152H50.6894C50.8011 112.155 50.911 112.123 51.0043 112.062C51.0975 112 51.1696 111.912 51.2107 111.808C51.9354 109.985 52.6583 108.16 53.3795 106.334C53.4196 106.229 53.4915 106.14 53.585 106.078C53.6784 106.016 53.7889 105.985 53.9008 105.99" fill="#209CB4"/>
<path d="M29.5728 112.212H19.4459C18.1531 112.212 17.1051 113.26 17.1051 114.553V118.88C17.1051 120.172 18.1531 121.22 19.4459 121.22H29.5728C30.8656 121.22 31.9136 120.172 31.9136 118.88V114.553C31.9136 113.26 30.8656 112.212 29.5728 112.212Z" fill="#F45C69"/>
<path d="M42.8277 120.086L40.7189 126.535L40.6746 126.668C40.3644 127.615 39.2513 127.594 38.9672 126.634L37.0122 120.076C36.9593 119.894 36.9451 119.703 36.9705 119.516L38.9229 105.7C38.9397 105.465 39.0405 105.243 39.207 105.076C39.3735 104.908 39.5946 104.806 39.83 104.788H40.0907C40.3273 104.808 40.5488 104.912 40.7145 105.082C40.8802 105.252 40.979 105.476 40.9926 105.713L42.8694 119.503C42.8999 119.698 42.8857 119.898 42.8277 120.086Z" fill="#2F2F38"/>
<path d="M42.8277 120.086L40.7189 126.535C40.516 126.524 40.3225 126.446 40.1683 126.314C40.0142 126.181 39.9081 126.002 39.8665 125.803L37.9115 119.245C37.857 119.063 37.8428 118.872 37.8698 118.684L39.8222 104.869L39.83 104.788H40.0907C40.3273 104.808 40.5488 104.912 40.7145 105.082C40.8802 105.252 40.979 105.476 40.9926 105.713L42.8694 119.503C42.9 119.698 42.8857 119.898 42.8277 120.086Z" fill="#3E3D4B"/>
<path d="M28.4962 113.794C28.4962 113.371 28.1537 113.028 27.7312 113.028C27.3087 113.028 26.9661 113.371 26.9661 113.794V119.359C26.9661 119.782 27.3087 120.126 27.7312 120.126C28.1537 120.126 28.4962 119.782 28.4962 119.359V113.794Z" fill="white"/>
<path d="M21.7616 113.447L19.3748 119.106C19.2103 119.496 19.3926 119.945 19.7819 120.109C20.1712 120.273 20.6202 120.09 20.7847 119.7L23.1714 114.042C23.3359 113.652 23.1537 113.203 22.7644 113.038C22.375 112.874 21.9261 113.057 21.7616 113.447Z" fill="white"/>
<path d="M23.2725 113.453C23.108 113.063 22.659 112.88 22.2697 113.044C21.8804 113.208 21.6982 113.657 21.8627 114.047L24.2494 119.706C24.4139 120.096 24.8629 120.279 25.2522 120.115C25.6415 119.951 25.8237 119.501 25.6593 119.111L23.2725 113.453Z" fill="white"/>
<path d="M24.2943 117.188H20.8092V118.614H24.2943V117.188Z" fill="white"/>
<path d="M41.9492 105.085C41.3419 105.719 40.6224 106.076 39.9838 106.068C38.4198 106.05 36.4309 103.85 36.7932 100.818L37.2155 100.458L39.9238 98.1488L43.3125 101.042C43.3767 101.774 43.2888 102.511 43.0541 103.206C42.8195 103.902 42.4433 104.542 41.9492 105.085Z" fill="#2F2F38"/>
<path d="M41.9492 105.085C41.5166 105.453 40.9733 105.665 40.4061 105.687C38.8421 105.669 36.8636 103.479 37.2155 100.458L39.9239 98.1488L43.3125 101.042C43.3767 101.774 43.2888 102.511 43.0541 103.206C42.8195 103.902 42.4433 104.542 41.9492 105.085Z" fill="#3E3D4B"/>
<path d="M57.5136 112.157C57.8317 113.101 58.8561 116.289 58.916 119.38C58.9596 120.563 58.8216 121.745 58.5068 122.886C58.3407 123.45 58.1253 123.999 57.8629 124.526L58.598 125.016C58.9329 124.305 59.1949 123.561 59.38 122.797C59.6307 121.686 59.7298 120.546 59.6746 119.409C59.5781 116.359 58.7675 113.364 58.3712 112.066" fill="#CEEAEB"/>
<path d="M57.8709 123.462L57.3734 124.697C57.2535 124.995 57.3978 125.334 57.6956 125.454L58.0365 125.591C58.3343 125.711 58.6729 125.567 58.7928 125.269L59.2903 124.033C59.4102 123.735 59.266 123.397 58.9682 123.277L58.6272 123.14C58.3294 123.02 57.9908 123.164 57.8709 123.462Z" fill="#209CB4"/>
<path d="M59.1836 64.9501L55.6168 67.0094C55.264 67.2131 55.1428 67.6637 55.3462 68.0159C55.5495 68.3681 56.0004 68.4885 56.3532 68.2848L59.92 66.2255C60.2728 66.0218 60.394 65.5712 60.1906 65.219C59.9873 64.8668 59.5364 64.7464 59.1836 64.9501Z" fill="white"/>
<path d="M60.5503 67.6579L56.9835 69.7172C56.6307 69.9209 56.5095 70.3715 56.7129 70.7238C56.9162 71.076 57.3671 71.1963 57.7199 70.9926L61.2867 68.9334C61.6395 68.7297 61.7607 68.279 61.5573 67.9268C61.354 67.5746 60.9031 67.4542 60.5503 67.6579Z" fill="white"/>
<path d="M21.135 66.2146L24.7018 68.2739C25.0546 68.4776 25.5055 68.3572 25.7088 68.005C25.9121 67.6528 25.791 67.2021 25.4381 66.9984L21.8714 64.9392C21.5186 64.7355 21.0677 64.8558 20.8643 65.2081C20.661 65.5603 20.7822 66.0109 21.135 66.2146Z" fill="white"/>
<path d="M19.7703 68.9248L23.337 70.9841C23.6899 71.1878 24.1407 71.0674 24.3441 70.7152C24.5474 70.363 24.4262 69.9123 24.0734 69.7086L20.5067 67.6493C20.1538 67.4456 19.703 67.566 19.4996 67.9182C19.2963 68.2704 19.4175 68.7211 19.7703 68.9248Z" fill="white"/>
<path d="M96.9137 66.1032C97.3488 65.0105 96.9306 63.8177 95.9796 63.4391C95.0286 63.0605 93.905 63.6394 93.4699 64.7321C93.0349 65.8248 93.4531 67.0176 94.404 67.3963C95.355 67.7749 96.4786 67.196 96.9137 66.1032Z" stroke="#209CB4" stroke-width="1.30333" stroke-linecap="round" stroke-linejoin="round"/>
<path d="M102.355 72.3776C102.79 71.2848 102.372 70.092 101.421 69.7134C100.47 69.3348 99.346 69.9137 98.9109 71.0064C98.4759 72.0992 98.8941 73.292 99.845 73.6706C100.796 74.0492 101.92 73.4703 102.355 72.3776Z" stroke="#209CB4" stroke-width="1.30333" stroke-linecap="round" stroke-linejoin="round"/>
<path d="M101.381 64.687L94.1947 72.58" stroke="#209CB4" stroke-width="1.30333" stroke-linecap="round" stroke-linejoin="round"/>
<path d="M67.1479 102.108L80.2099 130.333H61.1265L67.1479 102.108Z" fill="#EBF6FC"/>
<path d="M100.13 99.804C100.176 100.06 100.139 100.324 100.025 100.559C99.9112 100.793 99.7262 100.985 99.4966 101.107C97.6983 102.075 95.7783 102.796 93.788 103.253C90.6918 103.959 87.4832 104.021 84.3623 103.432C84.0495 102.411 83.7358 101.389 83.4213 100.367C85.8701 101.162 88.4563 101.444 91.0189 101.195C93.5814 100.947 96.0653 100.173 98.3158 98.9229C98.4867 98.8266 98.6782 98.7727 98.8742 98.7656C99.0703 98.7585 99.2652 98.7985 99.4426 98.8822C99.62 98.9659 99.7748 99.091 99.8939 99.2468C100.013 99.4026 100.093 99.5848 100.127 99.7779L100.13 99.804Z" fill="#307197"/>
<path d="M81.873 101.219C83.7376 101.225 85.5785 100.801 87.2531 99.9813C88.4287 99.4 90.2456 98.5007 91.1162 96.5509C91.6688 95.3127 91.8826 93.5011 91.1996 93.0892C90.8425 92.8729 90.2768 93.0658 89.9276 93.3238C89.0413 93.9833 89.6017 95.0312 88.9918 96.2407C88.0638 98.081 85.2825 98.5997 83.6116 98.9125C83.0947 99.009 82.5724 99.0734 82.0476 99.1054C81.9868 99.8092 81.9286 100.514 81.873 101.219Z" fill="#307197"/>
<path d="M84.7898 101.431C86.6096 101.837 88.4985 101.82 90.3107 101.381C91.5854 101.068 93.5534 100.581 94.8255 98.8656C95.6309 97.776 96.2278 96.0504 95.6518 95.503C95.3494 95.2137 94.7551 95.2815 94.3484 95.4587C93.3397 95.9097 93.6629 97.054 92.8079 98.1045C91.5046 99.7024 88.6763 99.6085 86.9768 99.5512C86.4527 99.5346 85.9303 99.4841 85.4128 99.4L84.7898 101.431Z" fill="#307197"/>
<path d="M73.6098 115.976C76.6257 106.68 77.963 102.421 78.1585 101.603C78.1585 101.603 78.1585 101.584 78.1585 101.574C81.2291 101.996 84.3006 102.421 87.373 102.849C86.5206 107.846 85.5796 112.021 84.782 115.204C83.7863 119.198 83.1294 121.184 81.3673 121.966C79.9962 122.573 77.1966 122.797 75.7264 121.379C73.3804 119.875 73.5968 116.156 73.6098 115.976Z" fill="#29607F"/>
<path d="M73.6333 115.997C74.6212 113.507 75.5857 110.796 76.4771 107.874C77.1392 105.69 77.7023 103.586 78.1793 101.579L85.3502 102.57C84.7733 106.746 83.9084 110.878 82.7618 114.936C82.2978 116.571 81.8078 118.139 81.2917 119.641C80.1838 121.465 77.989 122.229 76.1461 121.559C74.0425 120.782 72.8382 118.301 73.6333 115.997Z" fill="#307197"/>
<path d="M82.5246 108.599C85.2153 108.599 87.3965 106.418 87.3965 103.727C87.3965 101.036 85.2153 98.8552 82.5246 98.8552C79.8339 98.8552 77.6527 101.036 77.6527 103.727C77.6527 106.418 79.8339 108.599 82.5246 108.599Z" fill="#29607F"/>
<path d="M81.6879 109.454C83.7768 109.454 85.4702 107.761 85.4702 105.672C85.4702 103.583 83.7768 101.889 81.6879 101.889C79.599 101.889 77.9056 103.583 77.9056 105.672C77.9056 107.761 79.599 109.454 81.6879 109.454Z" fill="#307197"/>
<path d="M96.8795 99.1263C97.291 99.6342 97.5928 100.222 97.766 100.852C97.9392 101.482 97.9799 102.142 97.8857 102.789L96.6814 102.987C96.8491 102.423 96.8823 101.828 96.7781 101.25C96.674 100.671 96.4355 100.125 96.0818 99.6554L96.8795 99.1263Z" fill="#29607F"/>
<path d="M94.4136 99.9161C94.8597 100.52 95.1571 101.22 95.2816 101.96C95.3745 102.508 95.3692 103.069 95.266 103.615L94.0539 103.764C94.2445 103.208 94.3023 102.615 94.2227 102.033C94.143 101.451 93.9281 100.895 93.5951 100.411C93.8662 100.245 94.1399 100.08 94.4136 99.9161Z" fill="#29607F"/>
<path d="M91.687 100.375C92.0584 100.913 92.3143 101.521 92.4386 102.163C92.5629 102.805 92.5528 103.465 92.4091 104.102L91.1917 104.207C91.4017 103.658 91.4804 103.067 91.4216 102.483C91.3628 101.898 91.168 101.335 90.8529 100.839L91.687 100.375Z" fill="#29607F"/>
<path d="M89.01 100.654C89.3555 101.32 89.5394 102.059 89.5469 102.81C89.5508 103.366 89.4564 103.92 89.268 104.444L88.0481 104.4C88.3246 103.88 88.4755 103.303 88.4886 102.714C88.5017 102.126 88.3767 101.542 88.1237 101.011L89.01 100.654Z" fill="#29607F"/>
<path d="M90.024 98.4329C90.475 99.033 90.7793 99.7301 90.9129 100.469C91.0098 101.017 91.0098 101.578 90.9129 102.127L89.7034 102.286C89.8884 101.727 89.94 101.134 89.854 100.552C89.768 99.9702 89.5468 99.4168 89.2081 98.936L90.024 98.4329Z" fill="#29607F"/>
<path d="M92.2449 97.6196C92.7207 98.0675 93.0987 98.6091 93.3548 99.2102C93.611 99.8114 93.7399 100.459 93.7333 101.113L92.5655 101.472C92.6563 100.891 92.6092 100.297 92.4281 99.7371C92.247 99.1775 91.9369 98.6682 91.5228 98.2504L92.2449 97.6196Z" fill="#29607F"/>
<path d="M93.4179 95.9253C94.0953 96.2471 94.6873 96.724 95.1461 97.3173C95.4868 97.7579 95.7463 98.2558 95.9125 98.7874L94.9141 99.4886C94.8206 98.9083 94.5922 98.3581 94.2472 97.8823C93.9022 97.4064 93.4503 97.0183 92.9278 96.749L93.4179 95.9253Z" fill="#29607F"/>
<path d="M86.3356 97.1661C86.8339 97.5888 87.2393 98.1103 87.5259 98.6976C87.8126 99.2849 87.9745 99.9252 88.0012 100.578L86.8517 100.995C86.915 100.4 86.8336 99.7981 86.6145 99.241C86.4047 98.7043 86.0747 98.2228 85.65 97.8334C85.8768 97.6092 86.1062 97.3876 86.3356 97.1661Z" fill="#29607F"/>
<path d="M88.3296 95.8914C88.9734 96.282 89.517 96.8175 89.9171 97.4554C90.212 97.9277 90.4212 98.4483 90.5349 98.9934L89.474 99.5929C89.4346 98.9968 89.2561 98.4183 88.9526 97.9038C88.6557 97.4081 88.2491 96.9872 87.764 96.6734L88.3296 95.8914Z" fill="#29607F"/>
<path d="M89.096 93.9807C89.7336 94.1246 90.3343 94.3993 90.8602 94.7874C91.3861 95.1755 91.8257 95.6686 92.151 96.2355L91.3273 97.1348C91.11 96.5888 90.7679 96.1012 90.3284 95.711C89.8889 95.3209 89.3642 95.0389 88.7963 94.8878C88.9084 94.5855 89.0074 94.2831 89.096 93.9807Z" fill="#29607F"/>
<path d="M81.3273 110.937L79.983 110.607C77.2844 109.946 74.5606 111.598 73.8992 114.296L71.387 124.547C70.7257 127.246 72.3772 129.97 75.0758 130.631L76.4202 130.961C79.1188 131.622 81.8426 129.97 82.5039 127.272L85.0161 117.021C85.6775 114.322 84.026 111.598 81.3273 110.937Z" fill="#EBF6FC"/>
</g>
<defs>
<clipPath id="clip0_133_2978">
<rect width="110" height="130" fill="white"/>
</clipPath>
</defs>
</svg>
