<svg width="102" height="130" viewBox="0 0 102 130" fill="none" xmlns="http://www.w3.org/2000/svg">
<g clip-path="url(#clip0_133_3406)">
<path d="M98.4326 50.3269C95.5237 56.4632 91.098 61.7564 85.574 65.7062C84.3149 66.6107 83.2019 67.3015 82.3391 67.7916C82.0824 67.9388 81.7917 68.0163 81.4958 68.0163C81.1999 68.0163 80.9092 67.9388 80.6526 67.7916C74.5274 64.2923 69.4911 59.1648 66.1022 52.9779C60.6933 43.023 61.332 33.4122 61.9758 29.0774C62.0365 28.6793 62.2369 28.3159 62.5412 28.0523C62.8455 27.7886 63.2337 27.6419 63.6363 27.6385H63.6519C66.454 27.6007 69.2275 27.0686 71.8446 26.0667C73.8453 25.2971 75.7324 24.2598 77.4542 22.983L77.548 22.9178C78.4511 22.3537 79.315 21.7293 80.1338 21.0488C80.398 20.8306 80.7222 20.698 81.0636 20.6687C81.4049 20.6394 81.7471 20.7147 82.0445 20.8846C84.6664 22.3801 87.4546 23.5629 90.352 24.4088C93.54 25.3414 96.8352 25.8583 100.156 25.9467C100.552 25.9582 100.932 26.1086 101.229 26.3716C101.526 26.6346 101.721 26.9935 101.78 27.3856C102.947 35.1955 101.782 43.1761 98.4326 50.3269Z" fill="#EB3951"/>
<path d="M98.4326 50.3269C95.5237 56.4632 91.098 61.7564 85.5739 65.7062C84.9275 66.1259 84.3488 66.4726 83.8561 66.7489C83.6307 66.8763 83.3761 66.9433 83.1172 66.9433C82.8582 66.9433 82.6036 66.8763 82.3782 66.7489C76.2049 63.2478 71.1286 58.0966 67.7183 51.8726C62.6692 42.5773 62.8907 33.5843 63.4668 28.9053C63.5092 28.5611 63.6704 28.2426 63.9227 28.0046C64.1749 27.7667 64.5023 27.6243 64.8483 27.602C67.2446 27.4464 69.6034 26.9288 71.8446 26.0666C73.8485 25.2964 75.7382 24.2573 77.462 22.9777L77.5428 22.923C78.481 22.3361 79.3773 21.6846 80.2251 20.9732C80.4578 20.7753 80.7459 20.654 81.0501 20.6261C81.3543 20.5981 81.6597 20.6647 81.9246 20.8168C84.5812 22.3444 87.4102 23.5502 90.352 24.4088C93.5897 25.3548 96.9372 25.8736 100.309 25.9519C100.66 25.9587 100.996 26.0886 101.26 26.3188C101.525 26.549 101.699 26.8649 101.754 27.211C102.964 35.0751 101.808 43.1215 98.4326 50.3269Z" fill="#EE596C"/>
<path d="M81.5701 67.5961C81.0175 67.2754 80.2329 66.7984 79.3284 66.1676C77.1153 64.6271 72.1366 60.7484 67.5802 51.9691C63.0237 43.1898 62.7761 33.5035 63.3287 29.0018C63.3726 28.6578 63.5347 28.3397 63.7871 28.102C64.0396 27.8643 64.3668 27.7216 64.7128 27.6984C67.1114 27.547 69.4731 27.032 71.7169 26.1709C73.7198 25.4016 75.6087 24.3633 77.3317 23.0846C77.3574 23.0646 77.3844 23.0463 77.4125 23.0299C79.0234 22.0237 79.2528 21.4789 80.0948 21.0775C80.4445 20.9139 80.8144 20.7974 81.1948 20.7308" fill="#EB3951"/>
<path d="M90.0913 46.8053L81.4111 54.3933L72.0558 46.6593C71.8707 46.5029 68.6671 43.7294 69.311 39.663C69.3683 39.2981 69.9965 35.6879 73.1532 34.3689C75.8719 33.2324 79.3232 34.2698 81.4111 37.0355C83.473 34.6739 86.4654 33.6025 88.7749 34.4132C90.7769 35.1144 92.3565 37.2597 92.7371 39.9028C92.9059 41.1827 92.7523 42.4844 92.2902 43.6899C91.8282 44.8953 91.0723 45.9662 90.0913 46.8053Z" fill="white"/>
<path d="M11.7088 64.8512C11.7081 66.3277 11.1379 67.747 10.1169 68.8136C9.09598 69.8802 7.70298 70.512 6.22795 70.5773C4.75291 70.6427 3.30951 70.1366 2.19826 69.1644C1.08701 68.1922 0.393537 66.8289 0.26223 65.3583C0.130924 63.8876 0.571899 62.423 1.49335 61.2694C2.41479 60.1157 3.7457 59.3619 5.20898 59.1649C6.67226 58.9679 8.15514 59.3428 9.3489 60.2117C10.5427 61.0806 11.3553 62.3764 11.6176 63.8294C11.6785 64.1666 11.709 64.5086 11.7088 64.8512Z" fill="#29607F"/>
<path d="M11.6306 63.8294C11.4056 65.1666 10.7141 66.3807 9.67881 67.2564C8.64351 68.132 7.33142 68.6125 5.97548 68.6125C4.61953 68.6125 3.30744 68.132 2.27214 67.2564C1.23685 66.3807 0.545314 65.1666 0.320312 63.8294C0.545314 62.4923 1.23685 61.2781 2.27214 60.4025C3.30744 59.5268 4.61953 59.0464 5.97548 59.0464C7.33142 59.0464 8.64351 59.5268 9.67881 60.4025C10.7141 61.2781 11.4056 62.4923 11.6306 63.8294Z" fill="#307197"/>
<path d="M80.2407 64.8512C80.24 66.3277 79.6697 67.747 78.6488 68.8136C77.6279 69.8802 76.2349 70.512 74.7598 70.5773C73.2848 70.6427 71.8414 70.1366 70.7301 69.1644C69.6189 68.1922 68.9254 66.8289 68.7941 65.3583C68.6628 63.8876 69.1038 62.423 70.0252 61.2694C70.9467 60.1157 72.2776 59.3619 73.7409 59.1649C75.2041 58.9679 76.687 59.3428 77.8808 60.2117C79.0745 61.0806 79.8872 62.3764 80.1495 63.8294C80.2104 64.1666 80.2409 64.5086 80.2407 64.8512Z" fill="#29607F"/>
<path d="M80.1495 63.8294C79.9245 65.1666 79.2329 66.3807 78.1976 67.2564C77.1623 68.132 75.8503 68.6125 74.4943 68.6125C73.1384 68.6125 71.8263 68.132 70.791 67.2564C69.7557 66.3807 69.0642 65.1666 68.8391 63.8294C69.0642 62.4923 69.7557 61.2781 70.791 60.4025C71.8263 59.5268 73.1384 59.0464 74.4943 59.0464C75.8503 59.0464 77.1623 59.5268 78.1976 60.4025C79.2329 61.2781 79.9245 62.4923 80.1495 63.8294Z" fill="#307197"/>
<path d="M40.2857 42.2436V35.2578" stroke="#F45C69" stroke-width="1.30333" stroke-linecap="round" stroke-linejoin="round"/>
<path d="M74.4956 51.1297V80.2149C74.4956 84.9747 70.8176 88.8326 66.2794 88.8326H14.18C9.64176 88.8326 5.96114 84.9747 5.96114 80.2149V51.1297C5.96114 46.37 9.64176 42.5121 14.18 42.5121H66.2794C70.8176 42.5121 74.4956 46.37 74.4956 51.1297Z" fill="#FFDB71"/>
<path d="M74.4956 51.1297V80.2149C74.4956 84.9747 70.6977 88.8326 66.0109 88.8326H18.2437C13.5517 88.8326 9.76166 84.9747 9.76166 80.2149V51.1297C9.76166 46.37 13.5596 42.5121 18.2437 42.5121H66.0109C70.6977 42.5121 74.4956 46.37 74.4956 51.1297Z" fill="#FECF37"/>
<path d="M66.5088 55.7618V72.6296C66.5088 76.2111 63.7457 79.1149 60.3388 79.1149H20.35C16.943 79.1149 14.18 76.2111 14.18 72.6296V55.7618C14.18 52.1803 16.943 49.2764 20.35 49.2764H60.3388C63.7457 49.266 66.5088 52.1803 66.5088 55.7618Z" fill="#FFDB71"/>
<path d="M66.5088 55.7618V70.6876C66.5088 74.2691 63.7457 77.173 60.3388 77.173H22.8393C19.4324 77.173 16.6693 74.2691 16.6693 70.6876V55.7618C16.6693 52.1803 19.4324 49.2764 22.8393 49.2764H60.3388C63.7457 49.266 66.5088 52.1803 66.5088 55.7618Z" fill="#FFDB71"/>
<path d="M59.0225 50.8534H23.882C20.6889 50.8534 18.1004 53.4419 18.1004 56.635V71.6703C18.1004 74.8633 20.6889 77.4519 23.882 77.4519H59.0225C62.2155 77.4519 64.8041 74.8633 64.8041 71.6703V56.635C64.8041 53.4419 62.2155 50.8534 59.0225 50.8534Z" fill="#B9E3FB"/>
<path d="M59.0225 50.8534H21.5516C18.3585 50.8534 15.77 53.4419 15.77 56.635V71.6703C15.77 74.8633 18.3585 77.4519 21.5516 77.4519H59.0225C62.2155 77.4519 64.804 74.8633 64.804 71.6703V56.635C64.804 53.4419 62.2155 50.8534 59.0225 50.8534Z" fill="#B9E3FB"/>
<path d="M59.0225 50.8534H23.882C20.6889 50.8534 18.1004 53.4419 18.1004 56.635V69.9394C18.1004 73.1325 20.6889 75.721 23.882 75.721H59.0225C62.2155 75.721 64.8041 73.1325 64.8041 69.9394V56.635C64.8041 53.4419 62.2155 50.8534 59.0225 50.8534Z" fill="#D4EFFA"/>
<path d="M43.8517 67.2911C43.7969 67.4475 42.6604 70.4999 40.3952 70.5937C38.886 70.6563 37.4705 69.3816 36.7198 67.2911H43.8517Z" stroke="#F45C69" stroke-width="1.30333" stroke-linecap="round" stroke-linejoin="round"/>
<path d="M46.0386 30.7586C46.0405 32.0627 45.5992 33.3287 44.7872 34.3491C43.9752 35.3695 42.8406 36.0837 41.5695 36.3747C40.2983 36.6657 38.966 36.5162 37.7909 35.9506C36.6159 35.3851 35.6678 34.4372 35.1022 33.2622C34.5365 32.0872 34.3869 30.7549 34.6777 29.4837C34.9686 28.2125 35.6827 27.0778 36.703 26.2657C37.7233 25.4536 38.9893 25.0122 40.2933 25.0139C41.5974 25.0156 42.8622 25.4604 43.8803 26.2752C44.5537 26.8124 45.0974 27.4944 45.4711 28.2706C45.8447 29.0468 46.0387 29.8972 46.0386 30.7586Z" fill="#29607F"/>
<path d="M46.0387 30.7586C46.0409 31.6074 45.8547 32.446 45.4936 33.2141C45.1324 33.9822 44.6053 34.6605 43.9502 35.2001C43.2951 35.7398 42.5284 36.1273 41.7053 36.3347C40.8823 36.5421 40.0235 36.5642 39.1909 36.3995C38.1773 35.6009 37.4626 34.4838 37.1624 33.2288C36.8622 31.9738 36.994 30.6542 37.5366 29.4834C38.0792 28.3126 39.0009 27.359 40.1525 26.7769C41.3041 26.1947 42.6184 26.0179 43.8829 26.2752C44.5559 26.8127 45.0991 27.4948 45.4723 28.271C45.8455 29.0472 46.0391 29.8974 46.0387 30.7586Z" fill="#307197"/>
<path d="M28.574 60.4355V63.1413C28.5756 63.44 28.4771 63.7306 28.2942 63.9668C28.1114 64.203 27.8548 64.3712 27.5652 64.4446C27.3681 64.4935 27.1624 64.4967 26.9638 64.4539C26.7653 64.4111 26.5792 64.3234 26.4197 64.1977C26.2602 64.0719 26.1316 63.9113 26.0437 63.7282C25.9558 63.5451 25.911 63.3444 25.9126 63.1413V60.4355C25.9277 60.0928 26.0746 59.7691 26.3225 59.532C26.5704 59.2948 26.9002 59.1624 27.2433 59.1624C27.5863 59.1624 27.9162 59.2948 28.1641 59.532C28.412 59.7691 28.5588 60.0928 28.574 60.4355Z" fill="#09888E"/>
<path d="M28.574 60.4355V63.1413C28.5756 63.44 28.4771 63.7306 28.2943 63.9668C28.1114 64.203 27.8548 64.3712 27.5652 64.4446C27.2747 64.3726 27.0169 64.2048 26.8335 63.9683C26.65 63.7319 26.5515 63.4405 26.5538 63.1413V60.4355C26.5515 60.1363 26.65 59.8449 26.8335 59.6084C27.0169 59.372 27.2747 59.2042 27.5652 59.1322C27.8545 59.206 28.1109 59.3743 28.2937 59.6104C28.4765 59.8465 28.5751 60.1369 28.574 60.4355Z" fill="#08ABBA"/>
<path d="M20.754 95.0026H59.5647C61.6649 95.0026 63.6792 95.8369 65.1643 97.322C66.6494 98.8071 67.4837 100.821 67.4837 102.922V123.181C67.4837 125.077 66.7305 126.896 65.3897 128.237C64.0488 129.579 62.2302 130.333 60.3336 130.333H19.972C18.075 130.333 16.2557 129.58 14.9143 128.238C13.5729 126.897 12.8193 125.078 12.8193 123.181V102.922C12.8193 101.88 13.0247 100.849 13.4236 99.8875C13.8225 98.9257 14.4073 98.052 15.1443 97.3165C15.8813 96.5809 16.7561 95.9979 17.7187 95.6009C18.6813 95.2038 19.7127 95.0005 20.754 95.0026Z" fill="#EBF6FC"/>
<path d="M45.155 95.1199H35.3044V130.333H45.155V95.1199Z" fill="#99CCD0"/>
<path d="M54.0646 60.4355V63.1413C54.0662 63.44 53.9677 63.7306 53.7848 63.9668C53.602 64.203 53.3454 64.3712 53.0558 64.4446C52.8587 64.4935 52.653 64.4967 52.4544 64.4539C52.2559 64.4111 52.0698 64.3234 51.9103 64.1977C51.7508 64.0719 51.6222 63.9113 51.5343 63.7282C51.4464 63.5451 51.4016 63.3444 51.4032 63.1413V60.4355C51.4183 60.0928 51.5652 59.7691 51.8131 59.532C52.061 59.2948 52.3908 59.1624 52.7339 59.1624C53.0769 59.1624 53.4068 59.2948 53.6547 59.532C53.9026 59.7691 54.0494 60.0928 54.0646 60.4355Z" fill="#09888E"/>
<path d="M54.0646 60.4355V63.1413C54.104 63.2952 54.1077 63.4562 54.0754 63.6118C54.0431 63.7675 53.9756 63.9137 53.8782 64.0392C53.7807 64.1648 53.6558 64.2664 53.5131 64.3363C53.3703 64.4062 53.2135 64.4426 53.0545 64.4426C52.8956 64.4426 52.7387 64.4062 52.596 64.3363C52.4532 64.2664 52.3283 64.1648 52.2309 64.0392C52.1334 63.9137 52.0659 63.7675 52.0336 63.6118C52.0013 63.4562 52.005 63.2952 52.0444 63.1413V60.4355C52.025 60.2915 52.0366 60.145 52.0785 60.0058C52.1204 59.8666 52.1915 59.738 52.2872 59.6286C52.3829 59.5192 52.5008 59.4315 52.6332 59.3714C52.7655 59.3114 52.9092 59.2803 53.0545 59.2803C53.1998 59.2803 53.3435 59.3114 53.4758 59.3714C53.6082 59.4315 53.7261 59.5192 53.8218 59.6286C53.9174 59.738 53.9886 59.8666 54.0305 60.0058C54.0724 60.145 54.084 60.2915 54.0646 60.4355Z" fill="#08ABBA"/>
<path d="M40.2284 98.1488C40.2284 98.1488 35.3044 102.413 35.3044 102.213V95.1199L40.2284 98.1488Z" fill="#84AEAF"/>
<path d="M40.2284 98.1488C40.2284 98.1488 45.1524 102.413 45.1524 102.213V95.1199L40.2284 98.1488Z" fill="#84AEAF"/>
<path d="M27.7659 60.0889H27.6825C27.5932 60.0889 27.5209 60.1612 27.5209 60.2505V60.8213C27.5209 60.9106 27.5932 60.983 27.6825 60.983H27.7659C27.8552 60.983 27.9275 60.9106 27.9275 60.8213V60.2505C27.9275 60.1612 27.8552 60.0889 27.7659 60.0889Z" fill="#FAFFFF"/>
<path d="M53.0949 60.0889H53.0115C52.9222 60.0889 52.8499 60.1612 52.8499 60.2505V60.8213C52.8499 60.9106 52.9222 60.983 53.0115 60.983H53.0949C53.1842 60.983 53.2565 60.9106 53.2565 60.8213V60.2505C53.2565 60.1612 53.1842 60.0889 53.0949 60.0889Z" fill="#FAFFFF"/>
<path d="M35.3044 88.8326H45.1524V94.7367C45.1524 95.6416 44.7929 96.5095 44.153 97.1494C43.5131 97.7893 42.6452 98.1488 41.7403 98.1488H38.7165C37.8116 98.1488 36.9437 97.7893 36.3038 97.1494C35.6639 96.5095 35.3044 95.6416 35.3044 94.7367V88.8326Z" fill="#29607F"/>
<path d="M45.155 89.1845V95.9253C45.155 97.1531 43.6353 98.1462 41.7663 98.1462H38.6175C37.9867 98.1462 37.4784 97.8125 37.4784 97.4007V88.8326H44.618C44.9126 88.8326 45.155 88.989 45.155 89.1845Z" fill="#29607F"/>
<path d="M45.155 91.1134V95.9253C45.155 97.1531 43.6353 98.1462 41.7663 98.1462H38.6175C37.9867 98.1462 37.4784 97.8125 37.4784 97.4007V91.1134C37.4784 90.9205 37.7182 90.7615 38.0153 90.7615H44.618C44.9126 90.7615 45.155 90.9205 45.155 91.1134Z" fill="#307197"/>
<path d="M27.109 95.0026H25.1123V103.388H27.109V95.0026Z" fill="#307197"/>
<path d="M49.2318 95.0026L51.7394 106.352L46.9692 105.752L50.556 110.523L46.9692 130.333H45.1446V95.0026H49.2318Z" fill="#F8FDFF"/>
<path d="M31.225 95.0026L28.7174 106.352L33.4876 105.752L29.9008 110.523L33.4876 130.333H35.3122V95.0026H31.225Z" fill="#F8FDFF"/>
<path d="M55.553 95.0026H53.5563V103.388H55.553V95.0026Z" fill="#307197"/>
<path d="M55.5582 102.218H53.5615V106H55.5582V102.218Z" fill="#209CB4"/>
<path d="M26.1107 107.116C27.3977 107.116 28.441 106.072 28.441 104.785C28.441 103.498 27.3977 102.455 26.1107 102.455C24.8237 102.455 23.7803 103.498 23.7803 104.785C23.7803 106.072 24.8237 107.116 26.1107 107.116Z" fill="#209CB4"/>
<path d="M51.1946 111.844C50.8766 112.788 49.8496 115.976 49.7896 119.067C49.7503 120.251 49.8918 121.433 50.2093 122.573C50.3759 123.137 50.5904 123.686 50.8505 124.213L50.1155 124.703C49.7795 123.992 49.5174 123.249 49.3335 122.485C49.0789 121.37 48.9798 120.225 49.0389 119.083C49.1328 116.033 49.946 113.038 50.3292 111.74" fill="#CEEAEB"/>
<path d="M49.4182 123.733L49.9156 124.969C50.0355 125.267 50.3741 125.411 50.6719 125.291L51.0129 125.154C51.3107 125.034 51.4549 124.695 51.335 124.397L50.8376 123.162C50.7177 122.864 50.379 122.72 50.0812 122.84L49.7403 122.977C49.4425 123.097 49.2983 123.435 49.4182 123.733Z" fill="#209CB4"/>
<path d="M26.1107 106.339C26.9687 106.339 27.6642 105.643 27.6642 104.785C27.6642 103.927 26.9687 103.232 26.1107 103.232C25.2527 103.232 24.5571 103.927 24.5571 104.785C24.5571 105.643 25.2527 106.339 26.1107 106.339Z" fill="#CEEAEB"/>
<path d="M54.6406 104.754C54.9424 104.735 55.2429 104.807 55.5038 104.96C55.7647 105.112 55.9742 105.339 56.1056 105.612L58.9338 111.37C58.974 111.453 58.9924 111.545 58.9874 111.637C58.9823 111.729 58.954 111.818 58.905 111.896C58.8561 111.974 58.788 112.039 58.7074 112.084C58.6267 112.128 58.536 112.152 58.4438 112.152H57.9016C57.7925 112.152 57.6858 112.119 57.5956 112.058C57.5054 111.996 57.4358 111.909 57.3959 111.808C56.6712 109.985 55.9483 108.16 55.2271 106.334C55.1965 106.254 55.1474 106.182 55.0838 106.125C54.975 106.035 54.8394 105.982 54.698 105.977" fill="#209CB4"/>
<path d="M54.2575 104.754C53.9557 104.735 53.6551 104.807 53.3941 104.959C53.1331 105.112 52.9237 105.339 52.7925 105.612L49.9617 111.37C49.9222 111.453 49.9044 111.545 49.9098 111.637C49.9153 111.729 49.944 111.818 49.9931 111.896C50.0423 111.974 50.1103 112.039 50.1909 112.083C50.2716 112.128 50.3622 112.152 50.4544 112.152H50.9913C51.1009 112.156 51.2091 112.127 51.3021 112.069C51.395 112.011 51.4684 111.926 51.5127 111.826L53.6788 106.352C53.7205 106.245 53.7949 106.154 53.8914 106.093C53.9878 106.031 54.1014 106.001 54.2158 106.008" fill="#209CB4"/>
<path d="M29.8773 112.212H19.7504C18.4576 112.212 17.4096 113.26 17.4096 114.553V118.88C17.4096 120.172 18.4576 121.22 19.7504 121.22H29.8773C31.1701 121.22 32.2181 120.172 32.2181 118.88V114.553C32.2181 113.26 31.1701 112.212 29.8773 112.212Z" fill="#F45C69"/>
<path d="M43.1322 120.086L41.0234 126.535L40.9791 126.668C40.6689 127.615 39.5559 127.594 39.2717 126.634L37.3167 120.076C37.2638 119.894 37.2496 119.703 37.275 119.516L39.2274 105.7C39.2423 105.464 39.3415 105.241 39.5071 105.072C39.6727 104.903 39.8936 104.8 40.1293 104.78H40.39C40.6266 104.8 40.8481 104.904 41.0138 105.074C41.1795 105.244 41.2783 105.468 41.2919 105.706L43.1687 119.495C43.2022 119.692 43.1897 119.895 43.1322 120.086Z" fill="#2F2F38"/>
<path d="M43.1322 120.087L41.0234 126.535C40.8205 126.524 40.627 126.446 40.4729 126.314C40.3187 126.181 40.2126 126.002 40.171 125.803L38.2186 119.245C38.1642 119.063 38.1499 118.872 38.1769 118.684L40.1293 104.869L40.145 104.783H40.4056C40.6422 104.802 40.8638 104.907 41.0295 105.077C41.1952 105.247 41.2939 105.471 41.3075 105.708L43.1843 119.497C43.2123 119.695 43.1945 119.897 43.1322 120.087Z" fill="#3E3D4B"/>
<path d="M28.8008 113.794C28.8008 113.371 28.4582 113.028 28.0357 113.028C27.6132 113.028 27.2706 113.371 27.2706 113.794V119.359C27.2706 119.782 27.6132 120.126 28.0357 120.126C28.4582 120.126 28.8008 119.782 28.8008 119.359V113.794Z" fill="white"/>
<path d="M22.0648 113.449L19.678 119.108C19.5135 119.498 19.6958 119.947 20.0851 120.111C20.4744 120.276 20.9234 120.093 21.0879 119.703L23.4746 114.044C23.6391 113.654 23.4569 113.205 23.0676 113.041C22.6782 112.876 22.2293 113.059 22.0648 113.449Z" fill="white"/>
<path d="M23.5771 113.453C23.4126 113.063 22.9636 112.88 22.5743 113.044C22.185 113.208 22.0028 113.658 22.1673 114.048L24.554 119.706C24.7185 120.096 25.1675 120.279 25.5568 120.115C25.9461 119.951 26.1283 119.502 25.9639 119.112L23.5771 113.453Z" fill="white"/>
<path d="M24.5988 117.188H21.1137V118.614H24.5988V117.188Z" fill="white"/>
<path d="M42.2538 105.085C41.6464 105.719 40.927 106.076 40.2883 106.068C38.7243 106.05 36.7354 103.85 37.0978 100.818L37.52 100.458L40.2284 98.1488L43.617 101.042C43.6813 101.774 43.5933 102.511 43.3587 103.206C43.124 103.902 42.7478 104.542 42.2538 105.085Z" fill="#2F2F38"/>
<path d="M42.2538 105.085C41.8212 105.453 41.2778 105.665 40.7106 105.687C39.1466 105.669 37.1682 103.479 37.5201 100.458L40.2284 98.1488L43.6171 101.042C43.6813 101.774 43.5933 102.511 43.3587 103.206C43.124 103.902 42.7478 104.542 42.2538 105.085Z" fill="#3E3D4B"/>
<path d="M57.8156 112.157C58.1336 113.101 59.1606 116.289 59.2205 119.38C59.2641 120.563 59.1261 121.745 58.8113 122.886C58.644 123.45 58.4286 123.999 58.1675 124.526L58.9051 125.016C59.2388 124.304 59.5008 123.561 59.6871 122.797C59.938 121.686 60.0362 120.546 59.9791 119.409C59.8852 116.359 59.0746 113.364 58.6914 112.066" fill="#CEEAEB"/>
<path d="M58.1755 123.46L57.678 124.696C57.5581 124.993 57.7023 125.332 58.0001 125.452L58.3411 125.589C58.6389 125.709 58.9775 125.565 59.0974 125.267L59.5949 124.031C59.7148 123.734 59.5705 123.395 59.2727 123.275L58.9318 123.138C58.634 123.018 58.2954 123.162 58.1755 123.46Z" fill="#209CB4"/>
<path d="M59.4891 64.9488L55.9223 67.0081C55.5695 67.2118 55.4483 67.6624 55.6517 68.0146C55.855 68.3668 56.3059 68.4872 56.6587 68.2835L60.2255 66.2242C60.5783 66.0205 60.6995 65.5699 60.4961 65.2177C60.2928 64.8655 59.8419 64.7451 59.4891 64.9488Z" fill="white"/>
<path d="M61.1589 67.9305L57.5757 69.9898C57.2213 70.1935 57.0988 70.6455 57.3021 70.9993C57.5055 71.3531 57.9577 71.4748 58.3121 71.2711L61.8952 69.2118C62.2497 69.0081 62.3722 68.5562 62.1688 68.2023C61.9655 67.8485 61.5133 67.7268 61.1589 67.9305Z" fill="white"/>
<path d="M21.4386 66.2133L25.0054 68.2726C25.3582 68.4763 25.8091 68.3559 26.0124 68.0037C26.2158 67.6515 26.0946 67.2008 25.7417 66.9971L22.175 64.9379C21.8222 64.7341 21.3713 64.8545 21.1679 65.2067C20.9646 65.5589 21.0858 66.0096 21.4386 66.2133Z" fill="white"/>
<path d="M20.0713 68.9235L23.638 70.9827C23.9908 71.1865 24.4417 71.0661 24.6451 70.7139C24.8484 70.3617 24.7272 69.911 24.3744 69.7073L20.8076 67.648C20.4548 67.4443 20.0039 67.5647 19.8006 67.9169C19.5972 68.2691 19.7184 68.7198 20.0713 68.9235Z" fill="white"/>
<path d="M78.6428 80.4808C78.3824 80.4831 78.1294 80.5678 77.92 80.7228C77.7107 80.8778 77.5558 81.0952 77.4777 81.3436C75.8928 86.3548 76.0768 91.7582 77.999 96.65L81.1869 97.0045C79.9529 94.7468 79.1971 92.2592 78.9666 89.6967C78.7361 87.1342 79.0358 84.5516 79.8471 82.11C79.9095 81.924 79.9264 81.7259 79.8966 81.532C79.8669 81.3382 79.7912 81.1543 79.6759 80.9956C79.5606 80.837 79.409 80.7082 79.2339 80.62C79.0587 80.5318 78.865 80.4868 78.6689 80.4886L78.6428 80.4808Z" fill="#307197"/>
<path d="M81.2756 99.1446C80.3284 97.5381 79.7622 95.7359 79.6203 93.8765C79.5291 92.5732 79.3831 90.5478 80.6265 88.8091C81.4085 87.7065 82.8683 86.6065 83.5695 86.9845C83.937 87.1852 84.0569 87.7665 84.01 88.2018C83.8901 89.3018 82.7066 89.3461 81.9663 90.4852C80.8481 92.216 81.81 94.8774 82.386 96.4805C82.5656 96.9769 82.7754 97.4618 83.0142 97.9325L81.2756 99.1446Z" fill="#307197"/>
<path d="M82.5137 93.2431C81.8968 93.0282 81.2421 92.9433 80.5908 92.9935C79.9394 93.0437 79.3055 93.2281 78.7288 93.535L78.9478 94.7367C79.4219 94.3889 79.9708 94.1568 80.5506 94.0591C81.1304 93.9613 81.725 94.0005 82.2869 94.1736L82.5137 93.2431Z" fill="#29607F"/>
<path d="M82.605 90.8788C81.9461 90.5201 81.2121 90.321 80.4623 90.2975C79.9057 90.2809 79.3506 90.363 78.8227 90.54C78.8227 90.9466 78.8357 91.3532 78.8409 91.7599C79.3666 91.4954 79.9468 91.3576 80.5353 91.3576C81.1237 91.3576 81.704 91.4954 82.2296 91.7599C82.3521 91.4653 82.4772 91.1734 82.605 90.8788Z" fill="#29607F"/>
<path d="M83.8614 89.2418C83.4137 88.7654 82.8722 88.3867 82.2711 88.1297C81.67 87.8726 81.0222 87.7428 80.3684 87.7482L80.0087 88.9134C80.5895 88.8234 81.1832 88.8709 81.7423 89.052C82.3014 89.2331 82.8102 89.5427 83.228 89.9561L83.8614 89.2418Z" fill="#29607F"/>
<path d="M84.878 101.895C83.9285 100.29 83.362 98.4883 83.2227 96.6291C83.1289 95.3258 82.9829 93.2978 84.2263 91.5592C85.0083 90.4565 86.4681 89.3565 87.1692 89.7345C87.5394 89.9326 87.6567 90.5165 87.6098 90.9492C87.4899 92.0492 86.3064 92.0935 85.5687 93.2326C84.4505 94.9635 85.4097 97.6275 85.9858 99.228C86.1645 99.7251 86.3752 100.21 86.6166 100.68L84.878 101.895Z" fill="#307197"/>
<path d="M86.124 95.9957C85.5069 95.7796 84.8518 95.6937 84.1999 95.7435C83.548 95.7933 82.9135 95.9777 82.3365 96.285C82.4095 96.6864 82.4851 97.0853 82.558 97.4867C83.04 97.1327 83.5994 96.8986 84.1898 96.8037C84.7598 96.714 85.3428 96.755 85.8946 96.9236C85.9702 96.6135 86.0458 96.3033 86.124 95.9957Z" fill="#29607F"/>
<path d="M86.2126 93.6314C85.553 93.2753 84.8192 93.0789 84.0699 93.058C83.5135 93.044 82.9588 93.126 82.4303 93.3004C82.4303 93.7096 82.4433 94.1163 82.4486 94.5229C82.974 94.2576 83.5543 94.1194 84.1429 94.1194C84.7315 94.1194 85.3118 94.2576 85.8372 94.5229L86.2126 93.6314Z" fill="#29607F"/>
<path d="M87.469 91.9918C87.0216 91.5157 86.4806 91.1372 85.8799 90.8802C85.2793 90.6232 84.632 90.4931 83.9787 90.4982C83.8562 90.8866 83.7363 91.2802 83.6164 91.666C84.1971 91.5752 84.7911 91.6222 85.3503 91.8034C85.9095 91.9845 86.4183 92.2946 86.8356 92.7086L87.469 91.9918Z" fill="#29607F"/>
<path d="M87.5003 110.888C86.8617 101.136 86.6114 96.6813 86.6244 95.8367V95.808L77.3812 94.7654C76.9798 99.8197 76.8599 104.1 76.8599 107.382C76.8599 111.498 76.9954 113.583 78.5099 114.774C79.6881 115.702 82.3495 116.599 84.1194 115.593C86.7626 114.725 87.469 111.065 87.5003 110.888Z" fill="#29607F"/>
<path d="M87.4846 110.89C87.1406 108.237 86.8721 105.372 86.7287 102.319C86.6218 100.039 86.5932 97.8621 86.6244 95.8028L79.43 95.0026C78.9644 99.1926 78.7902 103.41 78.9087 107.624C78.953 109.324 79.0469 110.966 79.1694 112.548C79.7976 114.579 81.7343 115.869 83.6867 115.676C85.8972 115.441 87.6749 113.333 87.4846 110.89Z" fill="#307197"/>
<path d="M81.8699 101.694C84.5605 101.694 86.7418 99.5126 86.7418 96.822C86.7418 94.1313 84.5605 91.9501 81.8699 91.9501C79.1792 91.9501 76.998 94.1313 76.998 96.822C76.998 99.5126 79.1792 101.694 81.8699 101.694Z" fill="#29607F"/>
<path d="M82.2035 102.695C84.2924 102.695 85.9858 101.001 85.9858 98.9125C85.9858 96.8236 84.2924 95.1302 82.2035 95.1302C80.1146 95.1302 78.4213 96.8236 78.4213 98.9125C78.4213 101.001 80.1146 102.695 82.2035 102.695Z" fill="#307197"/>
<path d="M79.9253 83.5463C79.3495 83.2374 78.7162 83.0506 78.0649 82.9977C77.4137 82.9448 76.7585 83.0268 76.1404 83.2387L76.1717 84.4586C76.6948 84.189 77.2738 84.0458 77.8623 84.0403C78.4508 84.0349 79.0323 84.1674 79.5604 84.4273C79.6646 84.1354 79.7897 83.8408 79.9253 83.5463Z" fill="#29607F"/>
<path d="M79.5968 86.1164C79.0088 85.8308 78.368 85.6701 77.7147 85.6446C77.0615 85.619 76.4101 85.7291 75.8015 85.9678C75.8276 86.3745 75.8563 86.7785 75.8823 87.1852C76.3946 86.8942 76.9679 86.7271 77.5563 86.6972C78.1447 86.6673 78.7319 86.7755 79.271 87.0131C79.3727 86.7134 79.4847 86.4162 79.5968 86.1164Z" fill="#29607F"/>
<path d="M79.6646 88.8873C78.9778 88.5852 78.2294 88.4495 77.4802 88.4911C76.925 88.5221 76.3797 88.6509 75.8693 88.8717C75.9084 89.2783 75.9501 89.6824 75.9918 90.0864C76.4925 89.7783 77.0583 89.5917 77.644 89.5414C78.2297 89.4912 78.819 89.5787 79.3648 89.7971C79.4509 89.4843 79.5525 89.1819 79.6646 88.8873Z" fill="#29607F"/>
<path d="M79.8758 91.5617C79.2497 91.3737 78.5915 91.3169 77.9425 91.395C77.2935 91.473 76.6676 91.6842 76.1039 92.0153C76.1951 92.4141 76.2864 92.8103 76.3646 93.2066C76.8233 92.8393 77.3616 92.5844 77.9364 92.4622C78.5112 92.34 79.1066 92.3539 79.675 92.5027C79.748 92.1873 79.8106 91.8745 79.8758 91.5617Z" fill="#29607F"/>
<path d="M79.0729 102.181C79.2516 100.325 79.0009 98.4517 78.3404 96.7073C77.8686 95.4822 77.1414 93.5793 75.2802 92.5366C74.0994 91.8719 72.3164 91.494 71.842 92.1326C71.5814 92.4689 71.7351 93.0501 71.9593 93.4203C72.5328 94.3665 73.6276 93.9025 74.7771 94.622C76.5236 95.7168 76.7817 98.532 76.9381 100.229C76.9854 100.754 77.0011 101.282 76.985 101.809L79.0729 102.181Z" fill="#307197"/>
<path d="M75.4497 97.3694C75.9172 96.9126 76.4742 96.5575 77.0857 96.3265C77.6971 96.0954 78.3498 95.9935 79.0026 96.027C79.1069 96.4206 79.2085 96.809 79.3128 97.2078C78.7361 97.0945 78.141 97.1175 77.5748 97.275C77.0087 97.4325 76.4872 97.7201 76.0518 98.1149L75.4497 97.3694Z" fill="#29607F"/>
<path d="M74.3679 95.2658C74.7527 94.7379 75.2427 94.2955 75.8072 93.9666C76.3716 93.6378 76.9981 93.4295 77.6471 93.3551L78.1476 94.4682C77.5603 94.4521 76.9774 94.5733 76.4452 94.8222C75.913 95.0711 75.4463 95.4408 75.0822 95.9018L74.3679 95.2658Z" fill="#29607F"/>
<path d="M72.5354 94.3144C72.7711 93.6022 73.1701 92.955 73.7006 92.4246C74.0963 92.0326 74.5577 91.7132 75.0639 91.481L75.885 92.3855C75.3101 92.5534 74.7837 92.8564 74.3497 93.2691C73.9328 93.6681 73.612 94.1566 73.4113 94.6976L72.5354 94.3144Z" fill="#29607F"/>
<path d="M81.2506 130.255L82.6347 130.269C85.4132 130.297 87.6881 128.067 87.7159 125.288L87.8788 109.005C87.9065 106.226 85.6767 103.951 82.8982 103.923L81.5141 103.909C78.7356 103.882 76.4607 106.112 76.4329 108.89L76.27 125.174C76.2423 127.952 78.4721 130.227 81.2506 130.255Z" fill="#EBF6FC"/>
</g>
<defs>
<clipPath id="clip0_133_3406">
<rect width="102" height="130" fill="white"/>
</clipPath>
</defs>
</svg>
