<svg width="81" height="130" viewBox="0 0 81 130" fill="none" xmlns="http://www.w3.org/2000/svg">
<g clip-path="url(#clip0_133_2455)">
<path d="M11.832 64.8512C11.8312 66.3277 11.261 67.747 10.24 68.8136C9.2191 69.8802 7.8261 70.512 6.35106 70.5773C4.87603 70.6427 3.43263 70.1366 2.32138 69.1644C1.21012 68.1922 0.516652 66.8289 0.385346 65.3583C0.25404 63.8876 0.695016 62.423 1.61646 61.2694C2.53791 60.1157 3.86882 59.3619 5.3321 59.1649C6.79537 58.9679 8.27826 59.3428 9.47201 60.2117C10.6658 61.0806 11.4784 62.3764 11.7407 63.8294C11.8016 64.1666 11.8321 64.5086 11.832 64.8512V64.8512Z" fill="#29607F"/>
<path d="M11.7407 63.8294C11.5157 65.1666 10.8242 66.3807 9.78885 67.2564C8.75356 68.132 7.44147 68.6125 6.08552 68.6125C4.72957 68.6125 3.41749 68.132 2.38219 67.2564C1.34689 66.3807 0.655361 65.1666 0.430359 63.8294C0.655361 62.4923 1.34689 61.2781 2.38219 60.4025C3.41749 59.5268 4.72957 59.0464 6.08552 59.0464C7.44147 59.0464 8.75356 59.5268 9.78885 60.4025C10.8242 61.2781 11.5157 62.4923 11.7407 63.8294Z" fill="#307197"/>
<path d="M80.3638 64.8512C80.3631 66.3277 79.7928 67.747 78.7719 68.8136C77.751 69.8802 76.358 70.512 74.8829 70.5773C73.4079 70.6427 71.9645 70.1366 70.8532 69.1644C69.742 68.1922 69.0485 66.8289 68.9172 65.3583C68.7859 63.8876 69.2269 62.423 70.1483 61.2694C71.0698 60.1157 72.4007 59.3619 73.864 59.1649C75.3272 58.9679 76.8101 59.3428 78.0039 60.2117C79.1976 61.0806 80.0103 62.3764 80.2726 63.8294C80.3335 64.1666 80.364 64.5086 80.3638 64.8512V64.8512Z" fill="#29607F"/>
<path d="M80.2725 63.8294C80.0475 65.1666 79.356 66.3807 78.3207 67.2564C77.2854 68.132 75.9733 68.6125 74.6174 68.6125C73.2614 68.6125 71.9494 68.132 70.9141 67.2564C69.8788 66.3807 69.1872 65.1666 68.9622 63.8294C69.1872 62.4923 69.8788 61.2781 70.9141 60.4025C71.9494 59.5268 73.2614 59.0464 74.6174 59.0464C75.9733 59.0464 77.2854 59.5268 78.3207 60.4025C79.356 61.2781 80.0475 62.4923 80.2725 63.8294V63.8294Z" fill="#307197"/>
<path d="M40.4114 42.2436V35.2578" stroke="#F45C69" stroke-width="1.30333" stroke-linecap="round" stroke-linejoin="round"/>
<path d="M74.6187 51.1297V80.2149C74.6187 84.9747 70.9407 88.8326 66.4025 88.8326H14.3031C9.76486 88.8326 6.08685 84.9747 6.08685 80.2149V51.1297C6.08685 46.37 9.76486 42.5121 14.3031 42.5121H66.4025C70.9407 42.5121 74.6187 46.37 74.6187 51.1297Z" fill="#FFDB71"/>
<path d="M74.6187 51.1297V80.2149C74.6187 84.9747 70.8208 88.8326 66.134 88.8326H18.3695C13.6775 88.8326 9.88477 84.9747 9.88477 80.2149V51.1297C9.88477 46.37 13.6827 42.5121 18.3695 42.5121H66.134C70.8208 42.5121 74.6187 46.37 74.6187 51.1297Z" fill="#FECF37"/>
<path d="M66.6266 55.7618V72.6296C66.6266 76.2111 63.8636 79.1149 60.4567 79.1149H20.4886C17.0791 79.1149 14.3187 76.2111 14.3187 72.6296V55.7618C14.3187 52.1803 17.0791 49.2764 20.4886 49.2764H60.4749C63.8688 49.266 66.6266 52.1803 66.6266 55.7618Z" fill="#FFDB71"/>
<path d="M66.6267 55.7618V70.6876C66.6267 74.2691 63.8636 77.173 60.4567 77.173H22.9624C19.5529 77.173 16.7924 74.2691 16.7924 70.6876V55.7618C16.7924 52.1803 19.5529 49.2764 22.9624 49.2764H60.4619C63.8688 49.266 66.6267 52.1803 66.6267 55.7618Z" fill="#FFDB71"/>
<path d="M59.1455 50.8534H24.005C20.812 50.8534 18.2234 53.4419 18.2234 56.635V71.6703C18.2234 74.8633 20.812 77.4519 24.005 77.4519H59.1455C62.3386 77.4519 64.9271 74.8633 64.9271 71.6703V56.635C64.9271 53.4419 62.3386 50.8534 59.1455 50.8534Z" fill="#B9E3FB"/>
<path d="M59.1455 50.8534H21.6747C18.4816 50.8534 15.8931 53.4419 15.8931 56.635V71.6703C15.8931 74.8633 18.4816 77.4519 21.6747 77.4519H59.1455C62.3386 77.4519 64.9271 74.8633 64.9271 71.6703V56.635C64.9271 53.4419 62.3386 50.8534 59.1455 50.8534Z" fill="#B9E3FB"/>
<path d="M59.1455 50.8534H24.005C20.812 50.8534 18.2234 53.4419 18.2234 56.635V69.9394C18.2234 73.1325 20.812 75.721 24.005 75.721H59.1455C62.3386 75.721 64.9271 73.1325 64.9271 69.9394V56.635C64.9271 53.4419 62.3386 50.8534 59.1455 50.8534Z" fill="#D4EFFA"/>
<path d="M48.7658 69.5485C48.7111 69.6475 47.572 71.5817 45.3094 71.6338C44.5652 71.6523 43.83 71.468 43.1826 71.1007C42.5351 70.7333 41.9998 70.1968 41.634 69.5485" stroke="#F45C69" stroke-width="1.30333" stroke-linecap="round" stroke-linejoin="round"/>
<path d="M46.1565 30.7586C46.1584 32.0627 45.7171 33.3287 44.9051 34.3491C44.0931 35.3695 42.9585 36.0837 41.6873 36.3747C40.4162 36.6657 39.0838 36.5162 37.9088 35.9506C36.7337 35.3851 35.7857 34.4372 35.2201 33.2622C34.6544 32.0872 34.5048 30.7549 34.7956 29.4837C35.0865 28.2125 35.8006 27.0778 36.8209 26.2657C37.8412 25.4536 39.1072 25.0122 40.4112 25.0139C41.7153 25.0156 42.98 25.4604 43.9982 26.2752C44.6716 26.8124 45.2153 27.4944 45.589 28.2706C45.9626 29.0468 46.1566 29.8972 46.1565 30.7586V30.7586Z" fill="#29607F"/>
<path d="M46.1565 30.7586C46.1588 31.6074 45.9726 32.446 45.6115 33.2141C45.2503 33.9822 44.7232 34.6605 44.0681 35.2001C43.413 35.7398 42.6462 36.1273 41.8232 36.3347C41.0002 36.5421 40.1414 36.5642 39.3088 36.3995C38.2952 35.6009 37.5805 34.4838 37.2803 33.2288C36.9801 31.9738 37.1119 30.6542 37.6545 29.4834C38.1971 28.3126 39.1187 27.359 40.2704 26.7769C41.422 26.1947 42.7363 26.0179 44.0008 26.2752C44.6738 26.8127 45.217 27.4948 45.5902 28.271C45.9634 29.0472 46.1569 29.8974 46.1565 30.7586V30.7586Z" fill="#307197"/>
<path d="M20.8666 95.0026H59.6877C61.788 95.0026 63.8022 95.8369 65.2873 97.322C66.7724 98.8071 67.6067 100.821 67.6067 102.922V123.181C67.6067 125.077 66.8535 126.896 65.5127 128.237C64.1719 129.579 62.3532 130.333 60.4567 130.333H20.0976C18.2006 130.333 16.3813 129.58 15.0399 128.238C13.6985 126.897 12.9449 125.078 12.9449 123.181V102.922C12.9449 101.881 13.1499 100.851 13.548 99.8905C13.9461 98.9296 14.5297 98.0565 15.2653 97.3211C16.0009 96.5857 16.8742 96.0024 17.8353 95.6046C18.7964 95.2068 19.8264 95.0022 20.8666 95.0026V95.0026Z" fill="#EBF6FC"/>
<path d="M45.2781 95.1199H35.4275V130.333H45.2781V95.1199Z" fill="#99CCD0"/>
<path d="M40.3515 98.1488C40.3515 98.1488 35.4275 102.413 35.4275 102.213V95.1199L40.3515 98.1488Z" fill="#84AEAF"/>
<path d="M40.3514 98.1488C40.3514 98.1488 45.278 102.413 45.278 102.213V95.1199L40.3514 98.1488Z" fill="#84AEAF"/>
<path d="M30.8267 62.7998V65.5055C30.8283 65.8042 30.7298 66.0949 30.547 66.3311C30.3642 66.5673 30.1075 66.7355 29.818 66.8089C29.6208 66.8577 29.4151 66.8609 29.2166 66.8181C29.0181 66.7753 28.8319 66.6877 28.6725 66.5619C28.513 66.4361 28.3844 66.2756 28.2965 66.0925C28.2086 65.9094 28.1637 65.7086 28.1653 65.5055V62.7998C28.1805 62.4571 28.3273 62.1334 28.5752 61.8962C28.8231 61.6591 29.153 61.5267 29.496 61.5267C29.8391 61.5267 30.1689 61.6591 30.4168 61.8962C30.6647 62.1334 30.8116 62.4571 30.8267 62.7998Z" fill="#09888E"/>
<path d="M30.8267 62.7998V65.5055C30.8283 65.8042 30.7298 66.0949 30.547 66.3311C30.3642 66.5673 30.1075 66.7355 29.8179 66.8088C29.5274 66.7368 29.2697 66.569 29.0862 66.3326C28.9027 66.0961 28.8042 65.8048 28.8066 65.5055V62.7998C28.8042 62.5005 28.9027 62.2092 29.0862 61.9727C29.2697 61.7363 29.5274 61.5685 29.8179 61.4965C30.1073 61.5702 30.3637 61.7385 30.5464 61.9747C30.7292 62.2108 30.8279 62.5012 30.8267 62.7998V62.7998Z" fill="#08ABBA"/>
<path d="M30.0186 62.4531H29.9352C29.846 62.4531 29.7736 62.5255 29.7736 62.6147V63.1856C29.7736 63.2748 29.846 63.3472 29.9352 63.3472H30.0186C30.1079 63.3472 30.1803 63.2748 30.1803 63.1856V62.6147C30.1803 62.5255 30.1079 62.4531 30.0186 62.4531Z" fill="#FAFFFF"/>
<path d="M56.3381 62.7998V65.5055C56.3397 65.8042 56.2412 66.0949 56.0584 66.3311C55.8756 66.5673 55.6189 66.7355 55.3294 66.8089C55.1322 66.8577 54.9265 66.8609 54.728 66.8181C54.5295 66.7753 54.3433 66.6877 54.1839 66.5619C54.0244 66.4361 53.8958 66.2756 53.8079 66.0925C53.72 65.9094 53.6751 65.7086 53.6767 65.5055V62.7998C53.6919 62.4571 53.8387 62.1334 54.0866 61.8962C54.3345 61.6591 54.6644 61.5267 55.0074 61.5267C55.3505 61.5267 55.6804 61.6591 55.9282 61.8962C56.1761 62.1334 56.323 62.4571 56.3381 62.7998V62.7998Z" fill="#09888E"/>
<path d="M56.3381 62.7998V65.5055C56.3776 65.6595 56.3813 65.8205 56.349 65.9761C56.3166 66.1317 56.2492 66.2779 56.1517 66.4035C56.0543 66.529 55.9294 66.6307 55.7866 66.7006C55.6439 66.7705 55.487 66.8068 55.3281 66.8068C55.1691 66.8068 55.0123 66.7705 54.8695 66.7006C54.7268 66.6307 54.6019 66.529 54.5044 66.4035C54.4069 66.2779 54.3395 66.1317 54.3072 65.9761C54.2749 65.8205 54.2786 65.6595 54.318 65.5055V62.7998C54.2986 62.6558 54.3102 62.5092 54.3521 62.3701C54.394 62.2309 54.4651 62.1023 54.5608 61.9929C54.6564 61.8835 54.7744 61.7958 54.9067 61.7357C55.0391 61.6756 55.1827 61.6445 55.3281 61.6445C55.4734 61.6445 55.6171 61.6756 55.7494 61.7357C55.8817 61.7958 55.9997 61.8835 56.0954 61.9929C56.191 62.1023 56.2622 62.2309 56.304 62.3701C56.3459 62.5092 56.3576 62.6558 56.3381 62.7998V62.7998Z" fill="#08ABBA"/>
<path d="M55.3684 62.4531H55.285C55.1958 62.4531 55.1234 62.5255 55.1234 62.6147V63.1856C55.1234 63.2748 55.1958 63.3472 55.285 63.3472H55.3684C55.4577 63.3472 55.5301 63.2748 55.5301 63.1856V62.6147C55.5301 62.5255 55.4577 62.4531 55.3684 62.4531Z" fill="#FAFFFF"/>
<path d="M35.4275 88.8326H45.2781V94.7367C45.2781 95.185 45.1897 95.6289 45.0181 96.043C44.8465 96.4572 44.5949 96.8335 44.2778 97.1503C43.9607 97.4672 43.5842 97.7185 43.1699 97.8898C42.7556 98.0611 42.3117 98.1491 41.8634 98.1488H38.8396C37.9347 98.1488 37.0668 97.7893 36.4269 97.1494C35.787 96.5095 35.4275 95.6416 35.4275 94.7367V88.8326Z" fill="#29607F"/>
<path d="M45.278 89.1845V95.9253C45.278 97.1531 43.7584 98.1462 41.8894 98.1462H38.7353C38.1045 98.1462 37.5962 97.8125 37.5962 97.4007V88.8326H44.7306C45.0356 88.8326 45.278 88.989 45.278 89.1845Z" fill="#29607F"/>
<path d="M45.278 91.1134V95.9253C45.278 97.1531 43.7584 98.1462 41.8894 98.1462H38.7353C38.1045 98.1462 37.5962 97.8125 37.5962 97.4007V91.1134C37.5962 90.9205 37.836 90.7615 38.1332 90.7615H44.7306C45.0356 90.7615 45.278 90.9205 45.278 91.1134Z" fill="#307197"/>
<path d="M27.2321 95.0026H25.2354V103.388H27.2321V95.0026Z" fill="#307197"/>
<path d="M49.3549 95.0026L51.8651 106.352L47.0923 105.752L50.6817 110.523L47.0923 130.333H45.2676V95.0026H49.3549Z" fill="#F8FDFF"/>
<path d="M31.3507 95.0026L28.83 106.352L33.6028 105.752L30.0239 110.523L33.6133 130.333H35.4379V95.0026H31.3507Z" fill="#F8FDFF"/>
<path d="M55.676 95.0026H53.6793V103.388H55.676V95.0026Z" fill="#307197"/>
<path d="M55.6813 102.218H53.6846V106H55.6813V102.218Z" fill="#209CB4"/>
<path d="M26.2337 107.116C27.5208 107.116 28.5641 106.072 28.5641 104.785C28.5641 103.498 27.5208 102.455 26.2337 102.455C24.9467 102.455 23.9034 103.498 23.9034 104.785C23.9034 106.072 24.9467 107.116 26.2337 107.116Z" fill="#209CB4"/>
<path d="M51.3177 111.844C50.9997 112.788 49.9727 115.976 49.9127 119.067C49.8709 120.25 50.0098 121.432 50.3246 122.573C50.4907 123.138 50.7061 123.686 50.9684 124.213L50.2308 124.703C49.8959 123.992 49.6339 123.249 49.4488 122.485C49.1995 121.369 49.103 120.225 49.162 119.083C49.2585 116.033 50.0691 113.038 50.4523 111.74" fill="#CEEAEB"/>
<path d="M49.5431 123.733L50.0406 124.969C50.1605 125.267 50.4991 125.411 50.7969 125.291L51.1379 125.154C51.4357 125.034 51.5799 124.695 51.46 124.397L50.9625 123.162C50.8426 122.864 50.504 122.72 50.2062 122.84L49.8653 122.977C49.5675 123.097 49.4232 123.435 49.5431 123.733Z" fill="#209CB4"/>
<path d="M26.2337 106.339C27.0918 106.339 27.7873 105.643 27.7873 104.785C27.7873 103.927 27.0918 103.232 26.2337 103.232C25.3757 103.232 24.6802 103.927 24.6802 104.785C24.6802 105.643 25.3757 106.339 26.2337 106.339Z" fill="#CEEAEB"/>
<path d="M54.7664 104.754C55.0682 104.735 55.3688 104.807 55.6297 104.959C55.8907 105.112 56.1002 105.339 56.2313 105.612L59.0674 111.37C59.1075 111.453 59.1259 111.545 59.1209 111.637C59.1159 111.729 59.0875 111.818 59.0386 111.896C58.9896 111.974 58.9216 112.039 58.8409 112.084C58.7602 112.128 58.6695 112.152 58.5773 112.152H58.0247C57.9153 112.152 57.8084 112.119 57.7178 112.058C57.6272 111.996 57.557 111.909 57.5164 111.808C56.7952 109.985 56.0723 108.16 55.3476 106.334C55.3177 106.254 55.2685 106.182 55.2043 106.125C55.0957 106.034 54.96 105.982 54.8185 105.977" fill="#209CB4"/>
<path d="M54.3754 104.754C54.0736 104.735 53.7732 104.807 53.5123 104.96C53.2514 105.112 53.0418 105.339 52.9104 105.612L50.0822 111.37C50.042 111.453 50.0236 111.545 50.0286 111.637C50.0337 111.729 50.062 111.818 50.111 111.896C50.16 111.974 50.228 112.039 50.3086 112.084C50.3893 112.128 50.48 112.152 50.5722 112.152H51.1118C51.2213 112.152 51.3284 112.12 51.419 112.058C51.5097 111.997 51.5798 111.909 51.6201 111.808L53.7889 106.334C53.8297 106.227 53.9036 106.136 53.9997 106.074C54.0958 106.012 54.2091 105.983 54.3232 105.99" fill="#209CB4"/>
<path d="M30.0004 112.212H19.8735C18.5807 112.212 17.5327 113.26 17.5327 114.553V118.88C17.5327 120.172 18.5807 121.22 19.8735 121.22H30.0004C31.2932 121.22 32.3412 120.172 32.3412 118.88V114.553C32.3412 113.26 31.2932 112.212 30.0004 112.212Z" fill="#F45C69"/>
<path d="M43.2553 120.086L41.1465 126.535L41.1022 126.668C40.792 127.615 39.679 127.594 39.3948 126.634L37.432 120.076C37.3791 119.894 37.3649 119.703 37.3903 119.516L39.3427 105.7C39.3575 105.464 39.4568 105.241 39.6224 105.072C39.788 104.903 40.0088 104.8 40.2446 104.78H40.5183C40.7549 104.8 40.9764 104.904 41.1421 105.074C41.3078 105.244 41.4066 105.468 41.4202 105.706L43.297 119.495C43.3288 119.693 43.3145 119.895 43.2553 120.086Z" fill="#2F2F38"/>
<path d="M43.2553 120.087L41.1465 126.535C40.9436 126.524 40.7501 126.446 40.5959 126.314C40.4418 126.181 40.3357 126.002 40.2941 125.803L38.3391 119.245C38.2846 119.063 38.2704 118.872 38.2974 118.684L40.2498 104.869L40.2655 104.783H40.5261C40.7627 104.802 40.9842 104.907 41.1499 105.077C41.3157 105.247 41.4144 105.471 41.428 105.708L43.3048 119.497C43.3337 119.695 43.3167 119.897 43.2553 120.087Z" fill="#3E3D4B"/>
<path d="M28.9238 113.794C28.9238 113.371 28.5813 113.028 28.1588 113.028C27.7363 113.028 27.3937 113.371 27.3937 113.794V119.359C27.3937 119.782 27.7363 120.126 28.1588 120.126C28.5813 120.126 28.9238 119.782 28.9238 119.359V113.794Z" fill="white"/>
<path d="M22.1887 113.449L19.8019 119.107C19.6374 119.497 19.8197 119.947 20.209 120.111C20.5983 120.275 21.0473 120.092 21.2118 119.702L23.5985 114.043C23.763 113.653 23.5808 113.204 23.1914 113.04C22.8021 112.876 22.3532 113.059 22.1887 113.449Z" fill="white"/>
<path d="M23.6985 113.453C23.534 113.063 23.085 112.88 22.6957 113.045C22.3064 113.209 22.1241 113.658 22.2886 114.048L24.6754 119.707C24.8399 120.096 25.2888 120.28 25.6781 120.115C26.0675 119.951 26.2497 119.502 26.0852 119.112L23.6985 113.453Z" fill="white"/>
<path d="M24.7219 117.188H21.2368V118.614H24.7219V117.188Z" fill="white"/>
<path d="M42.3847 105.085C41.7773 105.719 41.0579 106.076 40.4192 106.068C38.8552 106.05 36.8663 103.85 37.2287 100.818L37.6509 100.458L40.3593 98.1488L43.7479 101.042C43.8122 101.774 43.7242 102.511 43.4896 103.206C43.2549 103.902 42.8787 104.542 42.3847 105.085V105.085Z" fill="#2F2F38"/>
<path d="M42.3847 105.085C41.9521 105.453 41.4088 105.665 40.8415 105.687C39.2775 105.669 37.2991 103.479 37.651 100.458L40.3593 98.1488L43.748 101.042C43.8122 101.774 43.7242 102.511 43.4896 103.206C43.255 103.902 42.8788 104.542 42.3847 105.085V105.085Z" fill="#3E3D4B"/>
<path d="M57.9413 112.157C58.2593 113.101 59.2837 116.289 59.3437 119.38C59.3872 120.563 59.2492 121.745 58.9344 122.886C58.7683 123.45 58.5529 123.999 58.2906 124.526L59.0283 125.016C59.3631 124.305 59.6251 123.561 59.8103 122.797C60.061 121.686 60.1601 120.546 60.1048 119.409C60.0084 116.359 59.1977 113.364 58.8145 112.066" fill="#CEEAEB"/>
<path d="M58.2993 123.462L57.8019 124.698C57.682 124.996 57.8262 125.334 58.124 125.454L58.4649 125.592C58.7628 125.712 59.1014 125.567 59.2213 125.269L59.7187 124.034C59.8386 123.736 59.6944 123.397 59.3966 123.278L59.0557 123.14C58.7579 123.02 58.4192 123.165 58.2993 123.462Z" fill="#209CB4"/>
<path d="M61.13 65.534L57.5633 67.5932C57.2105 67.7969 57.0893 68.2476 57.2926 68.5998C57.496 68.952 57.9468 69.0724 58.2997 68.8687L61.8664 66.8094C62.2193 66.6057 62.3404 66.155 62.1371 65.8028C61.9337 65.4506 61.4829 65.3302 61.13 65.534Z" fill="white"/>
<path d="M62.4919 68.2431L58.9251 70.3024C58.5723 70.5061 58.4511 70.9567 58.6544 71.3089C58.8578 71.6611 59.3087 71.7815 59.6615 71.5778L63.2282 69.5185C63.5811 69.3148 63.7023 68.8642 63.4989 68.512C63.2956 68.1598 62.8447 68.0394 62.4919 68.2431Z" fill="white"/>
<path d="M21.5636 66.2146L25.1303 68.2739C25.4831 68.4776 25.934 68.3572 26.1374 68.005C26.3407 67.6528 26.2195 67.2021 25.8667 66.9984L22.2999 64.9392C21.9471 64.7355 21.4962 64.8558 21.2929 65.2081C21.0895 65.5603 21.2107 66.0109 21.5636 66.2146Z" fill="white"/>
<path d="M20.1962 68.9248L23.7629 70.9841C24.1158 71.1878 24.5666 71.0674 24.77 70.7152C24.9733 70.363 24.8522 69.9123 24.4993 69.7086L20.9326 67.6493C20.5797 67.4456 20.1289 67.566 19.9255 67.9182C19.7222 68.2704 19.8434 68.7211 20.1962 68.9248Z" fill="white"/>
<path d="M9.51197 95.1199H23.2778V124.278H2.0152V102.619C2.01486 101.635 2.20851 100.659 2.58511 99.7496C2.9617 98.8397 3.51386 98.013 4.21003 97.3166C4.9062 96.6201 5.73276 96.0677 6.64248 95.6908C7.5522 95.3139 8.52726 95.1199 9.51197 95.1199V95.1199Z" fill="#EBF6FC"/>
<path d="M75.4059 99.3505L70.7139 125.983C70.2838 128.43 67.9509 130.414 65.5006 130.414H49.0369C46.5892 130.414 44.9549 128.43 45.3876 125.983L50.0796 99.3505C50.5097 96.9028 52.8452 94.9191 55.2929 94.9191H71.754C74.2043 94.9191 75.836 96.9028 75.4059 99.3505Z" fill="#EE596C"/>
<path d="M72.8826 99.3505L68.1906 125.983C67.7605 128.43 65.4276 130.414 62.9773 130.414H49.0316C46.584 130.414 44.9496 128.43 45.3823 125.983L50.0743 99.3505C50.5044 96.9028 52.84 94.9191 55.2876 94.9191H69.2333C71.6888 94.9191 73.3206 96.9028 72.8826 99.3505Z" fill="#EB3951"/>
<path d="M61.8491 114.195C63.1668 112.989 63.4152 111.116 62.4041 110.011C61.393 108.907 59.5052 108.99 58.1876 110.197C56.87 111.403 56.6215 113.276 57.6326 114.381C58.6437 115.485 60.5315 115.402 61.8491 114.195Z" fill="white"/>
<path d="M71.1731 99.5876C71.5596 99.2338 71.6325 98.6844 71.336 98.3605C71.0395 98.0367 70.4858 98.0611 70.0993 98.4149C69.7128 98.7688 69.6399 99.3182 69.9365 99.6421C70.233 99.9659 70.7867 99.9415 71.1731 99.5876Z" fill="black"/>
<path d="M68.3227 99.3602C68.5595 99.1434 68.6041 98.8067 68.4223 98.6081C68.2405 98.4096 67.9011 98.4244 67.6644 98.6412C67.4276 98.858 67.383 99.1947 67.5648 99.3932C67.7467 99.5918 68.086 99.577 68.3227 99.3602Z" fill="white"/>
<path d="M71.6132 119.886C71.6549 118.022 71.2679 116.173 70.4819 114.482C69.9267 113.294 69.0639 111.458 67.1298 110.549C65.9046 109.973 64.0956 109.722 63.6707 110.398C63.4465 110.749 63.629 111.32 63.8818 111.672C64.5231 112.574 65.5814 112.032 66.7779 112.665C68.6025 113.63 69.0613 116.424 69.3402 118.1C69.4261 118.618 69.4801 119.14 69.5018 119.664L71.6132 119.886Z" fill="#307197"/>
<path d="M73.6777 118.22C74.0498 116.393 73.9963 114.505 73.5213 112.702C73.1825 111.435 72.6585 109.475 70.9147 108.239C69.8094 107.457 68.076 106.889 67.526 107.475C67.2445 107.786 67.3227 108.377 67.5077 108.779C67.9796 109.78 69.1161 109.436 70.1822 110.27C71.8061 111.542 71.767 114.373 71.7462 116.072C71.7392 116.6 71.6991 117.127 71.6263 117.649L73.6777 118.22Z" fill="#307197"/>
<path d="M72.2519 103.956C72.5048 103.896 72.7705 103.917 73.0108 104.017C73.2511 104.116 73.4535 104.29 73.5891 104.512C76.3433 108.989 77.4744 114.277 76.7927 119.49L73.7872 120.608C74.4377 118.118 74.5681 115.521 74.1703 112.978C73.7725 110.436 72.855 108.003 71.4751 105.831C71.3695 105.665 71.3051 105.477 71.287 105.282C71.269 105.087 71.2979 104.89 71.3714 104.708C71.4448 104.526 71.5607 104.364 71.7093 104.236C71.858 104.108 72.035 104.018 72.2258 103.972L72.2519 103.956Z" fill="#307197"/>
<path d="M71.7618 107.238C72.2456 106.799 72.8148 106.465 73.4337 106.256C74.0527 106.047 74.7081 105.968 75.359 106.024C75.4476 106.422 75.5388 106.819 75.6196 107.215C75.037 107.079 74.4303 107.083 73.8497 107.228C73.2896 107.37 72.769 107.637 72.3274 108.01L71.7618 107.238Z" fill="#29607F"/>
<path d="M72.6924 109.657C73.1938 109.237 73.777 108.925 74.4052 108.741C75.0333 108.558 75.6928 108.507 76.3417 108.591L76.5607 109.793C75.9837 109.634 75.3775 109.612 74.7908 109.73C74.2255 109.847 73.6947 110.092 73.2398 110.447L72.6924 109.657Z" fill="#29607F"/>
<path d="M73.3076 112.347C73.8234 111.946 74.4166 111.656 75.05 111.495C75.6834 111.334 76.3433 111.305 76.9882 111.411C77.0455 111.816 77.1055 112.217 77.1628 112.621C76.5929 112.439 75.9879 112.397 75.3981 112.496C74.8339 112.596 74.2994 112.821 73.8341 113.155L73.3076 112.347Z" fill="#29607F"/>
<path d="M73.7429 115.009C74.3033 114.672 74.9276 114.456 75.576 114.374C76.2245 114.292 76.8829 114.346 77.5095 114.532C77.5095 114.938 77.5277 115.345 77.5356 115.752C77.0005 115.506 76.4154 115.389 75.827 115.41C75.2386 115.43 74.6632 115.589 74.1469 115.872C74.0166 115.585 73.881 115.295 73.7429 115.009Z" fill="#29607F"/>
<path d="M70.9068 132.815C69.8407 123.1 69.3116 118.671 69.1526 117.842C69.1513 117.832 69.1513 117.821 69.1526 117.811C72.1242 116.942 75.0992 116.073 78.0778 115.204C79.3498 120.11 80.2074 124.304 80.7887 127.534C81.5186 131.585 81.7349 133.665 80.4498 135.093C79.4515 136.209 76.9856 137.562 75.0671 136.871C72.2988 136.464 70.9694 132.984 70.9068 132.815Z" fill="#29607F"/>
<path d="M70.9329 132.815C70.813 130.138 70.5784 127.27 70.19 124.242C69.8981 121.976 69.5488 119.828 69.1473 117.8L76.0941 115.762C77.2829 119.807 78.1905 123.929 78.8102 128.099C79.0709 129.781 79.2534 131.415 79.402 132.995C79.1413 135.103 77.4548 136.709 75.492 136.855C73.2763 137.022 71.1571 135.252 70.9329 132.815Z" fill="#307197"/>
<path d="M74.0061 122.857C76.6968 122.857 78.878 120.676 78.878 117.986C78.878 115.295 76.6968 113.114 74.0061 113.114C71.3155 113.114 69.1343 115.295 69.1343 117.986C69.1343 120.676 71.3155 122.857 74.0061 122.857Z" fill="#29607F"/>
<path d="M74.04 123.884C76.1289 123.884 77.8223 122.191 77.8223 120.102C77.8223 118.013 76.1289 116.32 74.04 116.32C71.9511 116.32 70.2578 118.013 70.2578 120.102C70.2578 122.191 71.9511 123.884 74.04 123.884Z" fill="#307197"/>
<path d="M70.581 113.048C71.0933 112.643 71.6842 112.348 72.3164 112.182C72.9486 112.016 73.6084 111.984 74.2538 112.087C74.3137 112.488 74.3763 112.892 74.4362 113.293C73.8752 113.119 73.2811 113.079 72.7017 113.176C72.1223 113.273 71.5737 113.504 71.0997 113.851L70.581 113.048Z" fill="#29607F"/>
<path d="M69.7234 110.843C70.2252 110.289 70.8502 109.86 71.5481 109.592C72.0687 109.394 72.6204 109.291 73.1772 109.287C73.3023 109.673 73.4379 110.069 73.5578 110.447C72.9752 110.369 72.3825 110.428 71.8268 110.62C71.2711 110.811 70.7678 111.129 70.3568 111.55L69.7234 110.843Z" fill="#29607F"/>
<path d="M68.0004 109.704C68.3089 109.02 68.7741 108.418 69.3584 107.947C69.7926 107.599 70.285 107.329 70.813 107.152L71.535 108.138C70.9567 108.242 70.4109 108.481 69.9419 108.835C69.4728 109.189 69.0935 109.648 68.8345 110.176L68.0004 109.704Z" fill="#29607F"/>
<path d="M67.6485 115.342C68.082 114.853 68.6118 114.459 69.2048 114.184C69.7978 113.909 70.4411 113.759 71.0945 113.745L71.4881 114.902C70.9051 114.829 70.3131 114.894 69.7598 115.092C69.2066 115.29 68.7075 115.615 68.3028 116.041L67.6485 115.342Z" fill="#29607F"/>
<path d="M66.4155 113.322C66.8139 112.684 67.3568 112.148 68.0004 111.758C68.4777 111.472 69.0019 111.272 69.5487 111.169L70.13 112.243C69.541 112.27 68.9665 112.435 68.453 112.724C67.9395 113.014 67.5014 113.421 67.1741 113.911L66.4155 113.322Z" fill="#29607F"/>
<path d="M64.5205 112.506C64.6779 111.872 64.9648 111.278 65.3632 110.76C65.7615 110.242 66.2627 109.813 66.8352 109.498L67.7189 110.34C67.1687 110.546 66.6744 110.878 66.2756 111.31C65.8768 111.741 65.5846 112.26 65.4224 112.824L64.5205 112.506Z" fill="#29607F"/>
<path d="M75.8756 125.053L74.5145 125.304C71.7823 125.809 69.9767 128.433 70.4816 131.166L73.4407 147.178C73.9456 149.91 76.5698 151.716 79.302 151.211L80.6631 150.96C83.3953 150.455 85.2009 147.831 84.696 145.098L81.7369 129.086C81.232 126.353 78.6078 124.548 75.8756 125.053Z" fill="#EBF6FC"/>
<path d="M45.7734 102.085C45.6506 101.855 45.4585 101.67 45.2246 101.556C44.9906 101.442 44.7266 101.404 44.47 101.449C39.2948 102.35 34.586 105.001 31.1317 108.959C31.5158 109.954 31.8998 110.952 32.2839 111.951C33.719 109.814 35.5793 107.995 37.7486 106.609C39.918 105.223 42.3498 104.298 44.8923 103.894C45.0859 103.863 45.2694 103.787 45.4275 103.671C45.5856 103.555 45.7138 103.403 45.8015 103.228C45.8892 103.052 45.9338 102.859 45.9316 102.663C45.9294 102.467 45.8805 102.274 45.789 102.101L45.7734 102.085Z" fill="#307197"/>
<path d="M34.1006 114.589C35.6681 113.578 37.446 112.94 39.2983 112.723C40.6017 112.577 42.6166 112.352 44.4022 113.523C45.5361 114.266 46.6961 115.676 46.3442 116.39C46.1591 116.766 45.5778 116.912 45.1477 116.878C44.0425 116.805 43.9512 115.619 42.7835 114.93C41.0083 113.888 38.386 114.951 36.8116 115.593C36.3231 115.791 35.8477 116.02 35.3883 116.278L34.1006 114.589Z" fill="#307197"/>
<path d="M32.8495 111.305C34.4158 110.294 36.193 109.655 38.0446 109.438C39.3479 109.292 41.3655 109.068 43.151 110.239C44.2849 110.981 45.4423 112.392 45.0904 113.106C44.9079 113.481 44.3266 113.627 43.8939 113.596C42.7913 113.52 42.6975 112.334 41.5323 111.646C39.7545 110.603 37.1348 111.667 35.5604 112.308C35.0714 112.507 34.5952 112.736 34.1346 112.994L32.8495 111.305Z" fill="#307197"/>
<path d="M22.8581 123.942C31.2203 118.887 35.0599 116.617 35.8159 116.239L35.8445 116.226C34.7306 113.333 33.6167 110.438 32.5028 107.543C27.8316 109.514 23.979 111.38 21.0621 112.882C17.4128 114.764 15.6168 115.853 15.2571 117.748C14.9756 119.221 15.3978 122 17.113 123.105C19.1123 125.055 22.6861 123.996 22.8581 123.942Z" fill="#29607F"/>
<path d="M22.8347 123.921C25.0321 122.391 27.4511 120.835 30.0969 119.302C32.0701 118.158 33.9912 117.133 35.8315 116.21C34.9626 113.951 34.0937 111.699 33.2249 109.454C29.295 110.967 25.4749 112.75 21.792 114.792C20.3062 115.616 18.8908 116.45 17.5458 117.295C16.0313 118.786 15.7784 121.101 16.8498 122.743C18.0775 124.617 20.7676 125.224 22.8347 123.921Z" fill="#307197"/>
<path d="M32.753 117.344C35.4437 117.344 37.6249 115.163 37.6249 112.472C37.6249 109.782 35.4437 107.601 32.753 107.601C30.0624 107.601 27.8812 109.782 27.8812 112.472C27.8812 115.163 30.0624 117.344 32.753 117.344Z" fill="#29607F"/>
<path d="M31.0509 117.511C33.1398 117.511 34.8332 115.818 34.8332 113.729C34.8332 111.64 33.1398 109.947 31.0509 109.947C28.962 109.947 27.2686 111.64 27.2686 113.729C27.2686 115.818 28.962 117.511 31.0509 117.511Z" fill="#307197"/>
<path d="M43.6411 104.624C43.6481 103.873 43.4803 103.132 43.1511 102.458C42.9053 101.959 42.5735 101.507 42.1709 101.123L41.0996 101.712C41.5797 102.051 41.9733 102.499 42.2486 103.018C42.5239 103.537 42.6732 104.114 42.6845 104.702L43.6411 104.624Z" fill="#29607F"/>
<path d="M41.2117 105.526C41.195 104.873 41.0429 104.23 40.7652 103.639C40.4875 103.047 40.0901 102.52 39.5981 102.09L38.5555 102.721C39.0488 103.041 39.4604 103.472 39.7573 103.979C40.0542 104.486 40.2282 105.056 40.2655 105.643L41.2117 105.526Z" fill="#29607F"/>
<path d="M38.7849 106.847C38.7463 106.193 38.5723 105.554 38.2739 104.971C37.9756 104.388 37.5592 103.873 37.0514 103.459L36.0296 104.128C36.5349 104.431 36.962 104.848 37.2763 105.346C37.5905 105.844 37.7832 106.409 37.8386 106.996L38.7849 106.847Z" fill="#29607F"/>
<path d="M36.504 108.281C36.3832 107.64 36.1312 107.032 35.7638 106.494C35.3964 105.955 34.9216 105.499 34.3692 105.153L33.436 105.935C33.9725 106.172 34.4462 106.531 34.8192 106.983C35.1922 107.436 35.454 107.97 35.5839 108.542L36.504 108.281Z" fill="#29607F"/>
<path d="M38.7953 112.313C38.9855 111.688 39.0443 111.03 38.9681 110.381C38.8918 109.732 38.6821 109.106 38.3521 108.542L37.1609 108.802C37.5279 109.261 37.7821 109.801 37.903 110.376C38.0239 110.951 38.0081 111.547 37.8569 112.115L38.7953 112.313Z" fill="#29607F"/>
<path d="M41.1621 112.308C41.4941 111.635 41.6637 110.893 41.6574 110.142C41.6493 109.585 41.5425 109.035 41.342 108.515L40.1247 108.583C40.4115 109.098 40.5734 109.673 40.5974 110.261C40.6214 110.85 40.5068 111.436 40.2628 111.972L41.1621 112.308Z" fill="#29607F"/>
<path d="M42.8487 113.494C43.3082 113.029 43.6664 112.473 43.9006 111.863C44.1348 111.252 44.2399 110.6 44.2093 109.947L43.0285 109.634C43.1416 110.211 43.1177 110.806 42.9588 111.372C42.7999 111.938 42.5104 112.458 42.1136 112.892L42.8487 113.494Z" fill="#29607F"/>
<path d="M40.0387 115.587C40.2288 114.963 40.2876 114.305 40.2114 113.657C40.1351 113.008 39.9254 112.382 39.5955 111.818L38.4043 112.079C38.7713 112.538 39.0255 113.077 39.1464 113.653C39.2673 114.228 39.2515 114.824 39.1003 115.392L40.0387 115.587Z" fill="#29607F"/>
<path d="M42.4133 115.582C42.7041 114.998 42.8708 114.359 42.9031 113.707C42.9354 113.055 42.8326 112.403 42.601 111.792L41.3811 111.86C41.6679 112.375 41.8298 112.949 41.8538 113.538C41.8778 114.126 41.7632 114.712 41.5193 115.249L42.4133 115.582Z" fill="#29607F"/>
<path d="M44.1024 116.779C44.561 116.313 44.9179 115.757 45.1503 115.147C45.3828 114.536 45.4857 113.884 45.4527 113.231L44.2745 112.918C44.3873 113.505 44.3597 114.111 44.1937 114.686C44.034 115.241 43.7475 115.751 43.3569 116.177L44.1024 116.779Z" fill="#29607F"/>
<path d="M2.52057 127.223L3.14767 128.457C4.40648 130.934 7.43491 131.922 9.91186 130.663L24.4286 123.285C26.9056 122.027 27.8931 118.998 26.6343 116.521L26.0072 115.287C24.7484 112.81 21.7199 111.823 19.243 113.082L4.72623 120.459C2.24927 121.718 1.26177 124.746 2.52057 127.223Z" fill="#EBF6FC"/>
</g>
<defs>
<clipPath id="clip0_133_2455">
<rect width="81" height="130" fill="white"/>
</clipPath>
</defs>
</svg>
