<svg width="110" height="38" viewBox="0 0 110 38" fill="none" xmlns="http://www.w3.org/2000/svg">
<path d="M0 10C0 4.47715 4.47715 0 10 0H100C105.523 0 110 4.47715 110 10V28C110 33.5228 105.523 38 100 38H10C4.47715 38 0 33.5228 0 28V10Z" fill="white" fill-opacity="0.1"/>
<path d="M23 20.5H25.5L26.5 16.5H23V14.5C23 13.47 23 12.5 25 12.5H26.5V9.14C26.174 9.097 24.943 9 23.643 9C20.928 9 19 10.657 19 13.7V16.5H16V20.5H19V29H23V20.5Z" fill="white"/>
<path d="M39.093 23H38.014V14.329H43.695V15.291H39.093V18.086H43.604V19.048H39.093V23ZM50.0235 23H49.0485V22.285C48.5198 22.8657 47.8265 23.156 46.9685 23.156C46.3878 23.156 45.8765 22.9697 45.4345 22.597C44.9925 22.2243 44.7715 21.7173 44.7715 21.076C44.7715 20.4173 44.9881 19.9103 45.4215 19.555C45.8635 19.191 46.3791 19.009 46.9685 19.009C47.8611 19.009 48.5545 19.295 49.0485 19.867V18.736C49.0485 18.32 48.9011 17.995 48.6065 17.761C48.3118 17.527 47.9305 17.41 47.4625 17.41C46.7258 17.41 46.0845 17.7003 45.5385 18.281L45.0835 17.605C45.7508 16.9117 46.5871 16.565 47.5925 16.565C48.3118 16.565 48.8968 16.7383 49.3475 17.085C49.7981 17.4317 50.0235 17.9647 50.0235 18.684V23ZM47.3195 22.454C48.0995 22.454 48.6758 22.194 49.0485 21.674V20.491C48.6758 19.971 48.0995 19.711 47.3195 19.711C46.8688 19.711 46.4961 19.841 46.2015 20.101C45.9155 20.3523 45.7725 20.6817 45.7725 21.089C45.7725 21.4877 45.9155 21.817 46.2015 22.077C46.4961 22.3283 46.8688 22.454 47.3195 22.454ZM54.7469 23.156C53.8196 23.156 53.0656 22.844 52.4849 22.22C51.9043 21.5873 51.6139 20.7987 51.6139 19.854C51.6139 18.9093 51.9043 18.125 52.4849 17.501C53.0656 16.877 53.8196 16.565 54.7469 16.565C55.7176 16.565 56.4846 16.929 57.0479 17.657L56.3979 18.255C55.9993 17.709 55.4663 17.436 54.7989 17.436C54.1403 17.436 53.6116 17.6613 53.2129 18.112C52.8229 18.5627 52.6279 19.1433 52.6279 19.854C52.6279 20.5647 52.8229 21.1497 53.2129 21.609C53.6116 22.0597 54.1403 22.285 54.7989 22.285C55.4576 22.285 55.9906 22.012 56.3979 21.466L57.0479 22.064C56.4846 22.792 55.7176 23.156 54.7469 23.156ZM61.2485 23.156C60.3125 23.156 59.5455 22.8527 58.9475 22.246C58.3495 21.6307 58.0505 20.8333 58.0505 19.854C58.0505 18.9353 58.3451 18.1597 58.9345 17.527C59.5238 16.8857 60.2605 16.565 61.1445 16.565C62.0718 16.565 62.8041 16.8857 63.3415 17.527C63.8875 18.1597 64.1605 18.9613 64.1605 19.932V20.179H59.0775C59.1208 20.7943 59.3461 21.31 59.7535 21.726C60.1608 22.142 60.6895 22.35 61.3395 22.35C62.1195 22.35 62.7651 22.0857 63.2765 21.557L63.7445 22.194C63.1031 22.8353 62.2711 23.156 61.2485 23.156ZM63.1985 19.464C63.1898 18.9267 63.0078 18.4457 62.6525 18.021C62.2971 17.5877 61.7901 17.371 61.1315 17.371C60.5075 17.371 60.0135 17.5833 59.6495 18.008C59.2941 18.4327 59.1035 18.918 59.0775 19.464H63.1985ZM66.7146 21.297C66.888 21.5743 67.148 21.8083 67.4946 21.999C67.85 22.1897 68.214 22.285 68.5866 22.285C69.2106 22.285 69.7046 22.0597 70.0686 21.609C70.4326 21.1583 70.6146 20.5777 70.6146 19.867C70.6146 19.1563 70.4326 18.5757 70.0686 18.125C69.7046 17.6657 69.2106 17.436 68.5866 17.436C68.214 17.436 67.85 17.5357 67.4946 17.735C67.148 17.9257 66.888 18.164 66.7146 18.45V21.297ZM66.7146 23H65.7396V14.329H66.7146V17.67C67.2606 16.9333 67.967 16.565 68.8336 16.565C69.657 16.565 70.3286 16.8683 70.8486 17.475C71.3686 18.073 71.6286 18.8703 71.6286 19.867C71.6286 20.8723 71.3686 21.674 70.8486 22.272C70.3373 22.8613 69.6656 23.156 68.8336 23.156C67.9583 23.156 67.252 22.792 66.7146 22.064V23ZM78.2092 22.207C77.6459 22.8397 76.8962 23.156 75.9602 23.156C75.0242 23.156 74.2702 22.8397 73.6982 22.207C73.1349 21.5743 72.8532 20.79 72.8532 19.854C72.8532 18.918 73.1349 18.138 73.6982 17.514C74.2702 16.8813 75.0242 16.565 75.9602 16.565C76.8962 16.565 77.6459 16.8813 78.2092 17.514C78.7812 18.138 79.0672 18.918 79.0672 19.854C79.0672 20.79 78.7812 21.5743 78.2092 22.207ZM74.4262 21.583C74.8075 22.051 75.3189 22.285 75.9602 22.285C76.6015 22.285 77.1085 22.051 77.4812 21.583C77.8539 21.1063 78.0402 20.53 78.0402 19.854C78.0402 19.178 77.8539 18.606 77.4812 18.138C77.1085 17.67 76.6015 17.436 75.9602 17.436C75.3189 17.436 74.8075 17.6743 74.4262 18.151C74.0535 18.619 73.8672 19.1867 73.8672 19.854C73.8672 20.53 74.0535 21.1063 74.4262 21.583ZM85.6486 22.207C85.0853 22.8397 84.3356 23.156 83.3996 23.156C82.4636 23.156 81.7096 22.8397 81.1376 22.207C80.5743 21.5743 80.2926 20.79 80.2926 19.854C80.2926 18.918 80.5743 18.138 81.1376 17.514C81.7096 16.8813 82.4636 16.565 83.3996 16.565C84.3356 16.565 85.0853 16.8813 85.6486 17.514C86.2206 18.138 86.5066 18.918 86.5066 19.854C86.5066 20.79 86.2206 21.5743 85.6486 22.207ZM81.8656 21.583C82.247 22.051 82.7583 22.285 83.3996 22.285C84.041 22.285 84.548 22.051 84.9206 21.583C85.2933 21.1063 85.4796 20.53 85.4796 19.854C85.4796 19.178 85.2933 18.606 84.9206 18.138C84.548 17.67 84.041 17.436 83.3996 17.436C82.7583 17.436 82.247 17.6743 81.8656 18.151C81.493 18.619 81.3066 19.1867 81.3066 19.854C81.3066 20.53 81.493 21.1063 81.8656 21.583ZM93.6211 23H92.3731L90.1111 20.179L89.0711 21.206V23H88.0961V14.329H89.0711V20.062L92.3731 16.721H93.6081L90.8261 19.568L93.6211 23Z" fill="white"/>
</svg>
