<svg width="112" height="38" viewBox="0 0 112 38" fill="none" xmlns="http://www.w3.org/2000/svg">
<path d="M0 10C0 4.47715 4.47715 0 10 0H102C107.523 0 112 4.47715 112 10V28C112 33.5228 107.523 38 102 38H10C4.47715 38 0 33.5228 0 28V10Z" fill="white" fill-opacity="0.1"/>
<path d="M44.093 23H43.014V14.329H44.093V23ZM51.2984 23H50.3234V18.892C50.3234 18.3633 50.202 17.9907 49.9594 17.774C49.7167 17.5487 49.37 17.436 48.9194 17.436C48.5554 17.436 48.2 17.5313 47.8534 17.722C47.5154 17.9127 47.251 18.1423 47.0604 18.411V23H46.0854V16.721H47.0604V17.631C47.303 17.345 47.628 17.098 48.0354 16.89C48.4427 16.6733 48.863 16.565 49.2964 16.565C50.631 16.565 51.2984 17.241 51.2984 18.593V23ZM55.2345 23.156C54.1685 23.156 53.3235 22.8267 52.6995 22.168L53.2065 21.466C53.4232 21.7173 53.7178 21.9297 54.0905 22.103C54.4718 22.2763 54.8662 22.363 55.2735 22.363C55.7415 22.363 56.1055 22.2633 56.3655 22.064C56.6255 21.8647 56.7555 21.6047 56.7555 21.284C56.7555 21.0067 56.6212 20.79 56.3525 20.634C56.0838 20.4693 55.7588 20.348 55.3775 20.27C55.0048 20.1833 54.6278 20.088 54.2465 19.984C53.8652 19.8713 53.5402 19.685 53.2715 19.425C53.0028 19.1563 52.8685 18.8053 52.8685 18.372C52.8685 17.8607 53.0765 17.4317 53.4925 17.085C53.9172 16.7383 54.4892 16.565 55.2085 16.565C56.1532 16.565 56.9288 16.8683 57.5355 17.475L57.0805 18.151C56.6385 17.6223 56.0145 17.358 55.2085 17.358C54.7838 17.358 54.4458 17.4533 54.1945 17.644C53.9432 17.826 53.8175 18.06 53.8175 18.346C53.8175 18.5973 53.9518 18.7967 54.2205 18.944C54.4892 19.0827 54.8098 19.1953 55.1825 19.282C55.5638 19.36 55.9452 19.4553 56.3265 19.568C56.7078 19.6807 57.0328 19.88 57.3015 20.166C57.5702 20.4433 57.7045 20.8073 57.7045 21.258C57.7045 21.8127 57.4878 22.2677 57.0545 22.623C56.6212 22.9783 56.0145 23.156 55.2345 23.156ZM60.8745 23.156C60.4151 23.156 60.0685 23.0303 59.8345 22.779C59.6005 22.5277 59.4835 22.1637 59.4835 21.687V17.579H58.4435V16.721H59.4835V15.005H60.4585V16.721H61.7325V17.579H60.4585V21.479C60.4585 21.7217 60.5105 21.9167 60.6145 22.064C60.7271 22.2113 60.8875 22.285 61.0955 22.285C61.3815 22.285 61.6025 22.1983 61.7585 22.025L62.0445 22.753C61.7585 23.0217 61.3685 23.156 60.8745 23.156ZM68.0108 23H67.0358V22.285C66.5071 22.8657 65.8138 23.156 64.9558 23.156C64.3751 23.156 63.8638 22.9697 63.4218 22.597C62.9798 22.2243 62.7588 21.7173 62.7588 21.076C62.7588 20.4173 62.9754 19.9103 63.4088 19.555C63.8508 19.191 64.3664 19.009 64.9558 19.009C65.8484 19.009 66.5418 19.295 67.0358 19.867V18.736C67.0358 18.32 66.8884 17.995 66.5938 17.761C66.2991 17.527 65.9178 17.41 65.4498 17.41C64.7131 17.41 64.0718 17.7003 63.5258 18.281L63.0708 17.605C63.7381 16.9117 64.5744 16.565 65.5798 16.565C66.2991 16.565 66.8841 16.7383 67.3348 17.085C67.7854 17.4317 68.0108 17.9647 68.0108 18.684V23ZM65.3068 22.454C66.0868 22.454 66.6631 22.194 67.0358 21.674V20.491C66.6631 19.971 66.0868 19.711 65.3068 19.711C64.8561 19.711 64.4834 19.841 64.1888 20.101C63.9028 20.3523 63.7598 20.6817 63.7598 21.089C63.7598 21.4877 63.9028 21.817 64.1888 22.077C64.4834 22.3283 64.8561 22.454 65.3068 22.454ZM72.4872 25.548C71.9326 25.548 71.4602 25.4787 71.0702 25.34C70.6802 25.21 70.3076 24.9673 69.9522 24.612L70.4462 23.884C70.9229 24.456 71.6032 24.742 72.4872 24.742C73.0679 24.742 73.5489 24.586 73.9302 24.274C74.3116 23.9707 74.5022 23.4983 74.5022 22.857V21.96C74.2682 22.2893 73.9649 22.558 73.5922 22.766C73.2196 22.974 72.8209 23.078 72.3962 23.078C71.5642 23.078 70.8882 22.7877 70.3682 22.207C69.8569 21.6177 69.6012 20.8247 69.6012 19.828C69.6012 18.8313 69.8569 18.0383 70.3682 17.449C70.8882 16.8597 71.5642 16.565 72.3962 16.565C73.2542 16.565 73.9562 16.9333 74.5022 17.67V16.721H75.4772V22.818C75.4772 23.78 75.1956 24.4733 74.6322 24.898C74.0689 25.3313 73.3539 25.548 72.4872 25.548ZM72.6302 22.22C73.0029 22.22 73.3626 22.1203 73.7092 21.921C74.0646 21.7217 74.3289 21.479 74.5022 21.193V18.45C74.3289 18.164 74.0689 17.9257 73.7222 17.735C73.3756 17.5357 73.0116 17.436 72.6302 17.436C72.0062 17.436 71.5122 17.657 71.1482 18.099C70.7929 18.541 70.6152 19.1173 70.6152 19.828C70.6152 20.53 70.7972 21.1063 71.1612 21.557C71.5252 21.999 72.0149 22.22 72.6302 22.22ZM78.4051 23H77.4301V16.721H78.4051V17.735C78.9857 16.9723 79.6834 16.591 80.4981 16.591V17.592C80.3767 17.566 80.2467 17.553 80.1081 17.553C79.8134 17.553 79.4927 17.657 79.1461 17.865C78.7994 18.073 78.5524 18.3027 78.4051 18.554V23ZM86.6221 23H85.6471V22.285C85.1184 22.8657 84.4251 23.156 83.5671 23.156C82.9864 23.156 82.4751 22.9697 82.0331 22.597C81.5911 22.2243 81.3701 21.7173 81.3701 21.076C81.3701 20.4173 81.5868 19.9103 82.0201 19.555C82.4621 19.191 82.9778 19.009 83.5671 19.009C84.4598 19.009 85.1531 19.295 85.6471 19.867V18.736C85.6471 18.32 85.4998 17.995 85.2051 17.761C84.9104 17.527 84.5291 17.41 84.0611 17.41C83.3244 17.41 82.6831 17.7003 82.1371 18.281L81.6821 17.605C82.3494 16.9117 83.1858 16.565 84.1911 16.565C84.9104 16.565 85.4954 16.7383 85.9461 17.085C86.3968 17.4317 86.6221 17.9647 86.6221 18.684V23ZM83.9181 22.454C84.6981 22.454 85.2744 22.194 85.6471 21.674V20.491C85.2744 19.971 84.6981 19.711 83.9181 19.711C83.4674 19.711 83.0948 19.841 82.8001 20.101C82.5141 20.3523 82.3711 20.6817 82.3711 21.089C82.3711 21.4877 82.5141 21.817 82.8001 22.077C83.0948 22.3283 83.4674 22.454 83.9181 22.454ZM97.1306 23H96.1556V18.736C96.1556 17.8693 95.7699 17.436 94.9986 17.436C94.6866 17.436 94.3746 17.5313 94.0626 17.722C93.7506 17.9127 93.5079 18.138 93.3346 18.398V23H92.3596V18.736C92.3596 17.8693 91.9739 17.436 91.2026 17.436C90.8992 17.436 90.5916 17.5313 90.2796 17.722C89.9762 17.9127 89.7336 18.1423 89.5516 18.411V23H88.5766V16.721H89.5516V17.631C89.7076 17.3883 89.9806 17.15 90.3706 16.916C90.7606 16.682 91.1636 16.565 91.5796 16.565C92.0389 16.565 92.4116 16.6733 92.6976 16.89C92.9836 17.1067 93.1742 17.3883 93.2696 17.735C93.4602 17.423 93.7506 17.15 94.1406 16.916C94.5306 16.682 94.9422 16.565 95.3756 16.565C96.5456 16.565 97.1306 17.1977 97.1306 18.463V23Z" fill="white"/>
<path d="M22 9C24.717 9 25.056 9.01 26.122 9.06C27.187 9.11 27.912 9.277 28.55 9.525C29.21 9.779 29.766 10.123 30.322 10.678C30.8305 11.1779 31.224 11.7826 31.475 12.45C31.722 13.087 31.89 13.813 31.94 14.878C31.987 15.944 32 16.283 32 19C32 21.717 31.99 22.056 31.94 23.122C31.89 24.187 31.722 24.912 31.475 25.55C31.2247 26.2178 30.8311 26.8226 30.322 27.322C29.822 27.8303 29.2173 28.2238 28.55 28.475C27.913 28.722 27.187 28.89 26.122 28.94C25.056 28.987 24.717 29 22 29C19.283 29 18.944 28.99 17.878 28.94C16.813 28.89 16.088 28.722 15.45 28.475C14.7823 28.2245 14.1775 27.8309 13.678 27.322C13.1694 26.8222 12.7759 26.2175 12.525 25.55C12.277 24.913 12.11 24.187 12.06 23.122C12.013 22.056 12 21.717 12 19C12 16.283 12.01 15.944 12.06 14.878C12.11 13.812 12.277 13.088 12.525 12.45C12.7752 11.7822 13.1688 11.1773 13.678 10.678C14.1777 10.1692 14.7824 9.77573 15.45 9.525C16.088 9.277 16.812 9.11 17.878 9.06C18.944 9.013 19.283 9 22 9ZM22 14C20.6739 14 19.4021 14.5268 18.4645 15.4645C17.5268 16.4021 17 17.6739 17 19C17 20.3261 17.5268 21.5979 18.4645 22.5355C19.4021 23.4732 20.6739 24 22 24C23.3261 24 24.5979 23.4732 25.5355 22.5355C26.4732 21.5979 27 20.3261 27 19C27 17.6739 26.4732 16.4021 25.5355 15.4645C24.5979 14.5268 23.3261 14 22 14ZM28.5 13.75C28.5 13.4185 28.3683 13.1005 28.1339 12.8661C27.8995 12.6317 27.5815 12.5 27.25 12.5C26.9185 12.5 26.6005 12.6317 26.3661 12.8661C26.1317 13.1005 26 13.4185 26 13.75C26 14.0815 26.1317 14.3995 26.3661 14.6339C26.6005 14.8683 26.9185 15 27.25 15C27.5815 15 27.8995 14.8683 28.1339 14.6339C28.3683 14.3995 28.5 14.0815 28.5 13.75ZM22 16C22.7956 16 23.5587 16.3161 24.1213 16.8787C24.6839 17.4413 25 18.2044 25 19C25 19.7956 24.6839 20.5587 24.1213 21.1213C23.5587 21.6839 22.7956 22 22 22C21.2044 22 20.4413 21.6839 19.8787 21.1213C19.3161 20.5587 19 19.7956 19 19C19 18.2044 19.3161 17.4413 19.8787 16.8787C20.4413 16.3161 21.2044 16 22 16Z" fill="white"/>
</svg>
